<svg width="1433" height="287" viewBox="0 0 1433 287" fill="none" xmlns="http://www.w3.org/2000/svg">
<path d="M127.8 3.9C124.1 6.1 118.4 9.7 115.1 11.9C111.8 14.1 108.7 16 108.2 16C107.164 16.3767 106.212 16.9544 105.4 17.7C104.3 18.7 101.2 21.1 98.5 23C96.5855 24.2025 94.8082 25.6109 93.2 27.2C92.9828 27.4641 92.707 27.6738 92.3945 27.8127C92.0821 27.9516 91.7416 28.0157 91.4 28C90.6 28 90 28.4 90 28.8C90 29.2 88.8 30.3 87.3 31.2C84.7255 32.9486 82.2853 34.8874 80 37C68.6 47.5 65.4 50.6 64.6 51.8C64.1 52.7 65.5 54.7 68.9 58C71.8 60.8 74.3 63 74.7 63C75.3 63 82.7 57.2 86.5 53.7C87.6 52.7 91 50 94 47.7C97 45.4 99.7 43.2 100 42.9C100.3 42.6 102.8 40.9 105.5 39C108.2 37.1 110.7 35.3 111 35C111.8 33.9 126.4 24.3 131.4 21.5C134.6 19.7 136.8 19.1 138.3 19.6C142.8 21 174.6 43.3 184 51.6C185.9 53.3 190.2 57.1 193.5 60C199 64.7 211.6 77.4 218.1 84.6C221.9 88.8 241 113 244.5 118.1C246.2 120.5 250.5 126.8 254.2 132.3L260.9 142.1L258.7 145.8C256.9 149 251.1 157.4 248.7 160.5C246.6 163.3 238.1 175 235.8 178.5C233 182.6 220.6 198.4 218.2 200.9C217.1 202.1 217.8 203.2 222.6 208.1C225.8 211.4 229 214 229.6 214C230.2 214 235.5 207.6 241.4 199.7C247.3 191.8 252.3 185 252.7 184.5C253.7 183.4 278.3 146.2 279.4 144.3C280.3 142.7 278.7 139.6 271.4 129C268.2 124.3 262.9 116.4 259.6 111.5C256.3 106.6 253.3 102.3 253 102C252.7 101.7 250.2 98.6 247.5 95C241.9 87.5 223.7 66.8 216.9 60C205 48.3 187 32.9 175.6 24.9C172.9 23 168.9 20.2 166.7 18.7C162.8 15.9 152.7 9.6 146.5 6C144.9 5.1 141.9 3.3 140 2.2C138.629 1.22815 137.109 0.485171 135.5 0C135 0 131.5 1.8 127.8 3.9Z" fill="#F07F24"/>
<path d="M27 8.1C23.4 8.5 17.1 9.1 13 9.5C0.600005 10.7 1 10.1 1 30V46.9L5.3 51.3C7.6 53.7 12.5 58.8 16.1 62.6C26.3 73.3 25.4 72.9 29.8 67.9C31.8 65.6 34.5 62.6 35.8 61.4C36.6346 60.5875 37.3728 59.6815 38 58.7C38 58.4 33.5 53.7 28.1 48.2C16.4 36.5 14.3 33.1 16.2 29.4C17.0628 27.5413 18.534 26.0326 20.3705 25.1234C22.207 24.2143 24.2988 23.9591 26.3 24.4C29 24.9 32.2 27.4 40.1 35.1C45.7 40.6 50.7 44.9 51.1 44.8C53.5683 42.855 55.9067 40.7505 58.1 38.5L64.2 32.6L56.2 25C35.9 5.8 37.8 6.9 27 8.1Z" fill="#F07F24"/>
<path d="M223.8 20.8C208.9 35.4 209.3 33.8 218.8 42.5L224.2 47.4L234.5 36.8C245.1 25.8 247.9 24.1 252.7 25.7C255.8 26.7 258.4 31.1 257.6 33.8C257.3 34.7 252.3 40.4 246.5 46.5C240.7 52.6 236 57.7 236 58C236 58.3 238.8 61.8 242.1 65.8C249.2 74 249.2 74 256 65.8C258.4 62.9 262.9 57.9 266 54.7L271.5 48.9L272 34.2C272.6 16.2 272.3 12.4 270.2 11.4C267.9 10.5 248.6 8.1 242.2 8.1L236.9 8L223.8 20.8Z" fill="#F07F24"/>
<path d="M128.5 39.7C124.6 42.2 121.4 44.7 121.2 45.2C120.983 45.4641 120.707 45.6738 120.395 45.8127C120.082 45.9516 119.742 46.0157 119.4 46C118.6 46 118 46.4 118 46.8C118 47.2 116.7 48.4 115 49.3C113.52 50.1828 112.115 51.1862 110.8 52.3C110.1 53 107 55.4 104 57.7C101 60 95.9 64.3 92.7 67.2L86.9 72.5L123.7 108.7C143.9 128.6 170.8 155 183.5 167.4C196.2 179.8 206.9 190 207.6 190C208.6 190 213.7 184 222 173C223.9 170.5 225.7 168.3 226 168C228.7 165.4 243 143.5 243 142C243 140.5 238.8 134.2 234.5 129.3C232.9 127.4 231.8 125.9 226.5 119C215.1 104 206.8 94.7 191.9 79.9C179.458 67.5354 166.122 56.1045 152 45.7C148.4 43.1 144.8 40.3 144 39.7C140.7 37 137.5 35 136.5 35C135.9 35 132.3 37.1 128.5 39.7Z" fill="#F07F24"/>
<path d="M45 72.7C43 74.8 39.2 79.4 36.5 83C33.8 86.6 31.3 89.7 31 90C28.2 92.6 0 138.1 0 140C0.339572 141.452 0.842789 142.861 1.5 144.2C2.3 146 4.9 152.7 7.4 159.1C12.9 173.2 25.2 199.4 27 200.5C28.4 201.3 37.9 191.6 38 189.2C38 188.5 35.5 182.7 32.4 176.2C29.3 169.7 25.9 162 24.9 159C23.9 156 21.7 150.9 20.3 147.8C18 142.9 17.8 141.7 18.9 139.4C20 136.9 36.8 111.1 38 110C39.2551 108.397 40.4235 106.728 41.5 105C42.5765 103.272 43.7449 101.603 45 100C45.3 99.7 47.8 96.6 50.5 93C53.2 89.4 56.4 85.3 57.8 83.8L60.3 81.1L54.4 75L48.5 68.9L45 72.7Z" fill="#F07F24"/>
<path d="M68 95.2C65.3 98 43.7 126.6 39.5 133C37.8 135.5 35.9 138.1 35.3 138.8C34.5261 139.694 34.0691 140.819 34 142C34 143.7 42.1 163.9 47.5 175.5C55.2 192.3 55.2 192.2 49.8 198.1C45.3 203 39.6 210 39.2 211.1C39 211.7 40.5 214.2 42.7 216.7C44.9 219.2 47 222.1 47.6 222.9C48.6 224.2 48.9 224.2 50.2 222.9C58.2 215.2 62.9 212.3 69.8 210.9C77.1 209.4 77.3 209.5 86.6 217.7C98.4 228.2 120.3 244 123 244C123.5 244 124 244.3 124 244.7C124 245.1 125 246 126.3 246.6C127.6 247.2 130.4 248.7 132.7 250L136.8 252.3L139.8 250.1C140.929 249.284 142.134 248.581 143.4 248C144.2 248 159.2 238 160 237C161.28 235.931 162.615 234.93 164 234C165.604 232.929 167.14 231.76 168.6 230.5C169.2 230 172.1 227.5 175 225C177.9 222.5 182.6 218.3 185.4 215.7L190.5 210.8L174 194.8C158.2 179.5 76.8 99.5 72.4 95L70.3 92.8L68 95.2Z" fill="#F07F24"/>
<path d="M247.8 216.6C246 218.6 243.3 221.6 241.7 223.3C238.5 226.8 237.8 225.6 250.5 238.8C261 249.7 263.4 253.2 262.6 256.3C261.6 260.5 258.3 263 253.8 263C249.9 263 249.1 262.4 239 252.5C233.2 246.7 227.7 242 226.9 242C226.1 242 222.8 244.7 219.5 248L213.5 254L226 266C242.2 281.6 242.7 281.8 254.9 279.6C265 277.8 269.3 275.8 273.5 270.9C275.9 267.9 276 267.4 276 253.6V239.3L271.4 234.5C268.9 231.8 264.1 226.5 260.7 222.7C253.4 214.5 252 213 251.5 213C251.2 213 249.6 214.6 247.8 216.6Z" fill="#F07F24"/>
<path d="M11.2 228.9L1 240V253.4C1 266.4 1.1 267 3.6 269.9C7.7 274.8 11.6 277.1 19.3 279.1C27.9 281.3 32 281.5 36.4 279.6C39.5 278.3 59 259.5 59 257.8C59 256.9 46.8 245 45.9 245C45.5 245 43 247.4 40.3 250.2C29.5 262.1 27.1 264 23.6 264C19.2 264 15 259.9 15 255.6C15 253 16.5 250.9 24.5 243C29.7 237.8 34 233.3 34 233C34 232.3 30.1 227.5 25 221.7L21.4 217.8L11.2 228.9Z" fill="#F07F24"/>
<path d="M195.9 225.3C186.2 234.4 176.7 242.2 169.5 247C166.8 248.9 164.4 250.7 164.2 251.2C164.064 251.428 163.874 251.62 163.648 251.759C163.422 251.899 163.165 251.981 162.9 252C161.6 252 149.6 260.1 149.2 261.2C149.064 261.428 148.874 261.62 148.648 261.759C148.422 261.899 148.165 261.981 147.9 262C146.854 262.346 145.922 262.968 145.2 263.8C144.1 264.7 142.3 266.3 141 267.4C138.3 269.5 139.2 269.9 118.8 258.2C116.7 257 113.3 255.1 111.3 253.9C106.8 251.3 96.4 244.4 92.9 241.6C91.5 240.4 88.9 238.4 87 237C85.1 235.6 83.2 234 82.6 233.5C79 230.2 72 225 71.2 225C70.1198 225.346 69.1295 225.926 68.3 226.7C67.2 227.7 64.9 229.6 63.1 230.9C61.3 232.2 60 233.9 60 234.6C60 236 66.8 242.7 73.6 248C75.7 249.7 78.2 251.7 79.1 252.4C83.3 255.9 105.4 270 106.7 270C107.832 270.457 108.879 271.099 109.8 271.9C113.7 274.6 119.4 277.8 129 282.6L137.5 286.8L144 283.3C149.434 280.239 154.708 276.901 159.8 273.3C164.8 269.8 169 267.3 169 267.7C169 268.1 169.5 267.7 170.1 266.7C170.7 265.7 171.5 265.2 172 265.5C172.5 265.8 173.1 265.3 173.4 264.4C173.7 263.5 174.4 263.1 174.9 263.4C175.4 263.7 176.1 263.3 176.4 262.4C176.7 261.5 177.4 261.1 177.9 261.5C178.4 261.9 179.2 261.4 179.7 260.6C180.08 259.861 180.722 259.291 181.5 259C184.4 258.7 214 234.5 214 232.4C214 231.3 205.2 222.3 202.8 220.9C201.9 220.4 199.6 221.8 195.9 225.3Z" fill="#F07F24"/>
<path d="M411.566 139.024H367.746V109.672C367.746 101.137 367.26 95.8282 366.289 93.7465C365.387 91.5954 363.34 90.5198 360.148 90.5198C356.539 90.5198 354.249 91.8036 353.278 94.371C352.306 96.9385 351.821 102.49 351.821 111.025V189.298C351.821 197.486 352.306 202.83 353.278 205.328C354.249 207.826 356.435 209.075 359.835 209.075C363.097 209.075 365.213 207.826 366.185 205.328C367.225 202.83 367.746 196.966 367.746 187.737V166.607H411.566V173.165C411.566 190.582 410.317 202.934 407.819 210.22C405.391 217.506 399.943 223.89 391.478 229.372C383.081 234.854 372.707 237.595 360.356 237.595C347.518 237.595 336.936 235.27 328.609 230.621C320.282 225.972 314.766 219.553 312.059 211.365C309.353 203.107 308 190.721 308 174.206V124.973C308 112.829 308.416 103.739 309.249 97.7018C310.082 91.5954 312.545 85.7318 316.639 80.1111C320.803 74.4904 326.527 70.0841 333.814 66.8921C341.169 63.6307 349.6 62 359.107 62C372.013 62 382.665 64.4981 391.061 69.4943C399.458 74.4904 404.974 80.7356 407.611 88.2299C410.248 95.6548 411.566 107.243 411.566 122.995V139.024Z" fill="#1D1D1B"/>
<path d="M520.129 116.542H479.431V104.051C479.431 98.2222 478.911 94.5098 477.87 92.9138C476.829 91.3178 475.094 90.5198 472.665 90.5198C470.029 90.5198 468.016 91.5954 466.628 93.7465C465.31 95.8976 464.651 99.159 464.651 103.531C464.651 109.151 465.414 113.384 466.941 116.229C468.398 119.074 472.527 122.509 479.327 126.534C498.826 138.122 511.108 147.629 516.174 155.054C521.239 162.479 523.772 174.449 523.772 190.964C523.772 202.968 522.35 211.816 519.505 217.506C516.729 223.196 511.316 227.984 503.267 231.87C495.218 235.686 485.85 237.595 475.164 237.595C463.436 237.595 453.409 235.374 445.082 230.933C436.825 226.492 431.412 220.837 428.845 213.967C426.277 207.097 424.994 197.348 424.994 184.718V173.685H465.692V194.19C465.692 200.505 466.247 204.564 467.357 206.369C468.537 208.173 470.584 209.075 473.498 209.075C476.413 209.075 478.564 207.93 479.952 205.64C481.409 203.35 482.137 199.95 482.137 195.439C482.137 185.516 480.784 179.028 478.078 175.975C475.302 172.922 468.467 167.822 457.573 160.674C446.678 153.458 439.462 148.219 435.923 144.957C432.384 141.696 429.435 137.185 427.075 131.426C424.786 125.666 423.641 118.311 423.641 109.36C423.641 96.4528 425.271 87.0156 428.533 81.0479C431.863 75.0803 437.207 70.431 444.562 67.1003C451.918 63.7001 460.8 62 471.208 62C482.588 62 492.269 63.8389 500.249 67.5166C508.298 71.1943 513.606 75.8436 516.174 81.4643C518.811 87.0156 520.129 96.4875 520.129 109.88V116.542Z" fill="#1D1D1B"/>
<path d="M587.89 150.474V179.514H532.62V150.474H587.89Z" fill="#1D1D1B"/>
<path d="M693.33 116.542H652.632V104.051C652.632 98.2222 652.111 94.5098 651.07 92.9138C650.03 91.3178 648.295 90.5198 645.866 90.5198C643.229 90.5198 641.217 91.5954 639.829 93.7465C638.511 95.8976 637.851 99.159 637.851 103.531C637.851 109.151 638.615 113.384 640.141 116.229C641.599 119.074 645.727 122.509 652.528 126.534C672.027 138.122 684.309 147.629 689.374 155.054C694.44 162.479 696.973 174.449 696.973 190.964C696.973 202.968 695.55 211.816 692.705 217.506C689.93 223.196 684.517 227.984 676.468 231.87C668.418 235.686 659.05 237.595 648.364 237.595C636.637 237.595 626.61 235.374 618.283 230.933C610.026 226.492 604.613 220.837 602.046 213.967C599.478 207.097 598.194 197.348 598.194 184.718V173.685H638.892V194.19C638.892 200.505 639.447 204.564 640.558 206.369C641.737 208.173 643.784 209.075 646.699 209.075C649.613 209.075 651.764 207.93 653.152 205.64C654.609 203.35 655.338 199.95 655.338 195.439C655.338 185.516 653.985 179.028 651.279 175.975C648.503 172.922 641.668 167.822 630.774 160.674C619.879 153.458 612.662 148.219 609.123 144.957C605.584 141.696 602.635 137.185 600.276 131.426C597.986 125.666 596.841 118.311 596.841 109.36C596.841 96.4528 598.472 87.0156 601.733 81.0479C605.064 75.0803 610.407 70.431 617.763 67.1003C625.118 63.7001 634 62 644.409 62C655.789 62 665.469 63.8389 673.449 67.5166C681.499 71.1943 686.807 75.8436 689.374 81.4643C692.011 87.0156 693.33 96.4875 693.33 109.88V116.542Z" fill="#1D1D1B"/>
<path d="M815.216 65.539L790.131 141.626L817.61 234.056H772.332L754.637 161.819V234.056H710.816V65.539H754.637V131.01L774.101 65.539H815.216Z" fill="#1D1D1B"/>
<path d="M869.133 65.539V234.056H825.312V65.539H869.133Z" fill="#1D1D1B"/>
<path d="M984.565 65.539V234.056H946.157L923.362 157.448V234.056H886.723V65.539H923.362L947.926 141.418V65.539H984.565Z" fill="#1D1D1B"/>
<path d="M1095.11 116.542H1054.41V104.051C1054.41 98.2222 1053.89 94.5098 1052.85 92.9138C1051.81 91.3178 1050.07 90.5198 1047.64 90.5198C1045 90.5198 1042.99 91.5954 1041.6 93.7465C1040.29 95.8976 1039.63 99.159 1039.63 103.531C1039.63 109.151 1040.39 113.384 1041.92 116.229C1043.37 119.074 1047.5 122.509 1054.3 126.534C1073.8 138.122 1086.08 147.629 1091.15 155.054C1096.22 162.479 1098.75 174.449 1098.75 190.964C1098.75 202.968 1097.33 211.816 1094.48 217.506C1091.71 223.196 1086.29 227.984 1078.24 231.87C1070.19 235.686 1060.83 237.595 1050.14 237.595C1038.41 237.595 1028.39 235.374 1020.06 230.933C1011.8 226.492 1006.39 220.837 1003.82 213.967C1001.25 207.097 999.97 197.348 999.97 184.718V173.685H1040.67V194.19C1040.67 200.505 1041.22 204.564 1042.33 206.369C1043.51 208.173 1045.56 209.075 1048.47 209.075C1051.39 209.075 1053.54 207.93 1054.93 205.64C1056.38 203.35 1057.11 199.95 1057.11 195.439C1057.11 185.516 1055.76 179.028 1053.05 175.975C1050.28 172.922 1043.44 167.822 1032.55 160.674C1021.65 153.458 1014.44 148.219 1010.9 144.957C1007.36 141.696 1004.41 137.185 1002.05 131.426C999.762 125.666 998.617 118.311 998.617 109.36C998.617 96.4528 1000.25 87.0156 1003.51 81.0479C1006.84 75.0803 1012.18 70.431 1019.54 67.1003C1026.89 63.7001 1035.78 62 1046.18 62C1057.56 62 1067.24 63.8389 1075.22 67.5166C1083.27 71.1943 1088.58 75.8436 1091.15 81.4643C1093.79 87.0156 1095.11 96.4875 1095.11 109.88V116.542Z" fill="#1D1D1B"/>
<path d="M1139.34 199.707V234.056H1107.6V199.707H1139.34Z" fill="#1D1D1B"/>
<path d="M1193.47 95.9323L1192.74 108.111C1196.49 103.184 1200.61 99.506 1205.13 97.0773C1209.64 94.6486 1214.56 93.4342 1219.91 93.4342C1226.43 93.4342 1232.05 95.2037 1236.77 98.7427C1241.56 102.212 1244.54 106.237 1245.72 110.817C1246.9 115.397 1247.49 123.168 1247.49 134.132V192.317C1247.49 204.877 1246.73 213.828 1245.2 219.171C1243.74 224.445 1240.69 228.678 1236.04 231.87C1231.46 234.992 1225.91 236.554 1219.39 236.554C1214.18 236.554 1209.36 235.339 1204.92 232.911C1200.48 230.482 1196.42 226.874 1192.74 222.086V253.728H1150.69V95.9323H1193.47ZM1205.44 136.11C1205.44 127.575 1205.13 122.405 1204.5 120.601C1203.88 118.797 1202.14 117.895 1199.3 117.895C1196.52 117.895 1194.72 118.936 1193.88 121.017C1193.12 123.099 1192.74 128.13 1192.74 136.11V193.358C1192.74 201.685 1193.16 206.889 1193.99 208.971C1194.82 211.052 1196.62 212.093 1199.4 212.093C1202.11 212.093 1203.77 211.157 1204.4 209.283C1205.09 207.34 1205.44 202.691 1205.44 195.335V136.11Z" fill="#F07F24"/>
<path d="M1303.49 95.9323L1301.82 114.043C1307.93 101.067 1316.78 94.1976 1328.36 93.4342V142.043C1320.66 142.043 1315.01 143.084 1311.4 145.165C1307.79 147.247 1305.57 150.162 1304.74 153.909C1303.9 157.586 1303.49 166.122 1303.49 179.514V234.056H1261.44V95.9323H1303.49Z" fill="#F07F24"/>
<path d="M1432.97 144.437V178.265C1432.97 190.686 1432.35 199.811 1431.1 205.64C1429.85 211.399 1427.18 216.812 1423.08 221.878C1418.99 226.874 1413.72 230.586 1407.26 233.015C1400.88 235.374 1393.52 236.554 1385.2 236.554C1375.9 236.554 1368.02 235.548 1361.57 233.535C1355.11 231.453 1350.08 228.366 1346.48 224.271C1342.94 220.108 1340.4 215.112 1338.88 209.283C1337.35 203.385 1336.59 194.572 1336.59 182.845V147.455C1336.59 134.618 1337.97 124.591 1340.75 117.374C1343.53 110.158 1348.52 104.363 1355.74 99.9917C1362.96 95.6201 1372.18 93.4342 1383.43 93.4342C1392.86 93.4342 1400.95 94.8568 1407.68 97.7018C1414.48 100.477 1419.72 104.121 1423.4 108.631C1427.07 113.141 1429.57 117.791 1430.89 122.579C1432.28 127.367 1432.97 134.653 1432.97 144.437ZM1390.92 134.028C1390.92 126.95 1390.54 122.509 1389.78 120.705C1389.01 118.831 1387.38 117.895 1384.88 117.895C1382.39 117.895 1380.72 118.831 1379.89 120.705C1379.05 122.509 1378.64 126.95 1378.64 134.028V196.376C1378.64 202.899 1379.05 207.167 1379.89 209.179C1380.72 211.122 1382.35 212.093 1384.78 212.093C1387.28 212.093 1388.91 211.191 1389.67 209.387C1390.5 207.583 1390.92 203.697 1390.92 197.729V134.028Z" fill="#F07F24"/>
</svg>
