<svg width="3588" height="774" viewBox="0 0 3588 774" fill="none" xmlns="http://www.w3.org/2000/svg">
<path d="M697.702 633.061C686.762 644.991 670.722 661.261 649.632 678.601C627.662 696.661 587.212 729.451 526.332 751.091C499.462 760.641 471.272 767.121 441.762 770.391C306.802 785.311 192.462 742.491 99.4615 643.671C84.9415 628.241 72.5415 610.641 60.3915 593.181C22.6515 538.951 5.5115 477.471 1.0115 412.451C-6.3885 305.411 26.9315 211.541 97.1215 130.991C157.122 62.1413 233.232 21.4913 322.952 5.73128C350.922 0.821276 379.142 -0.928728 407.372 0.461272C599.062 9.89127 743.732 146.581 776.332 314.411C794.502 407.941 779.342 496.601 732.042 579.541C730.402 582.411 728.741 585.271 726.661 588.871C727.901 589.511 730.422 590.801 733.612 592.391C733.612 592.391 761.201 606.061 790.781 616.811C790.781 616.811 789.971 618.361 789.781 618.731C782.691 632.311 777.781 641.481 777.781 641.481C775.101 646.481 771.452 653.221 766.952 661.311C752.262 655.261 737.512 649.221 722.682 643.201C714.362 639.781 706.022 636.411 697.702 633.061ZM466.142 504.071C467.642 504.721 469.092 505.301 470.502 505.831C475.752 507.891 481.002 509.941 486.242 512.001C489.312 506.411 492.382 500.831 495.452 495.241C487.272 491.651 479.081 488.061 470.901 484.471C469.651 486.161 468.232 488.371 467.012 491.121C466.062 493.261 465.422 495.251 465.002 496.961C464.162 498.771 463.322 500.591 462.492 502.401C463.662 502.961 464.872 503.521 466.142 504.071ZM387.142 298.101C388.042 298.341 388.932 298.591 389.832 298.831C388.952 298.571 388.072 298.301 387.202 298.041C384.552 296.081 382.052 293.861 379.232 292.191C362.562 282.331 346.972 271.321 335.372 255.331C330.052 248.001 329.132 248.271 321.232 254.801C321.672 255.881 321.962 257.201 322.672 258.221C329.962 268.681 339.372 277.161 349.382 284.751C360.382 293.121 372.782 298.671 387.142 298.101ZM391.052 468.361C403.332 474.411 443.832 493.251 445.242 494.931C445.242 494.931 445.251 494.951 445.281 494.971C445.411 495.101 445.552 495.041 445.752 495.101C445.972 495.171 445.982 495.311 446.112 495.291C446.222 495.281 446.242 495.171 446.392 495.111C446.522 495.061 446.631 495.081 446.721 495.101C447.201 495.191 447.361 495.601 447.661 495.581C447.891 495.571 447.931 495.291 448.221 495.071C448.511 494.851 448.952 494.681 449.632 494.711C452.982 489.041 456.322 483.371 459.672 477.691C440.372 468.611 422.122 460.021 403.882 451.441C399.162 449.131 394.442 446.821 389.712 444.521C384.112 441.821 378.502 439.111 372.302 436.121C370.682 446.731 368.452 449.561 366.582 449.981C366.092 450.091 364.732 450.231 364.442 451.041C364.312 451.401 364.312 452.111 366.042 453.851C367.382 455.201 369.142 456.781 374.132 459.071C380.472 461.951 378.482 462.161 391.052 468.361ZM567.221 511.281C562.401 512.311 558.312 513.291 555.112 514.091C552.982 514.621 552.182 514.851 551.642 515.581C549.112 518.961 556.112 528.011 558.602 531.101C566.802 534.671 576.252 538.821 586.182 543.261C592.372 546.031 595.512 547.471 599.692 549.601C604.892 552.261 606.531 553.561 610.961 555.501C615.571 557.521 618.191 558.121 622.651 559.551C627.031 560.961 633.332 563.211 640.942 566.781C644.022 560.771 647.102 554.761 650.192 548.751C637.602 543.211 625.022 537.671 612.432 532.131C597.372 525.181 582.291 518.231 567.221 511.281ZM439.142 360.081C434.692 361.271 430.112 362.101 425.832 363.711C413.992 368.151 401.762 371.361 389.222 371.871C370.392 372.631 351.522 372.611 332.882 368.501C325.352 366.841 317.572 366.281 308.492 365.031C310.072 370.491 311.492 374.781 312.552 379.161C314.442 386.921 319.902 389.871 327.182 390.041C336.482 390.261 345.782 390.131 355.082 390.091C365.382 390.051 375.802 390.971 385.932 389.651C399.532 387.871 412.892 387.281 426.382 389.851C428.182 390.191 430.171 389.581 431.531 389.461C434.201 379.171 436.671 369.641 439.151 360.101C439.301 359.811 439.451 359.531 439.591 359.241C439.451 359.511 439.292 359.791 439.142 360.081ZM242.182 435.541C227.072 430.911 211.972 426.291 196.742 421.621C192.952 428.241 189.832 434.091 186.342 439.701C182.712 445.541 178.741 451.171 173.921 458.371C178.361 457.831 180.902 457.691 183.372 457.191C195.082 454.811 206.791 452.431 218.451 449.831C222.991 448.821 226.572 448.861 229.812 453.161C231.262 455.081 234.852 456.021 237.562 456.251C247.162 457.071 256.872 456.781 266.392 458.061C275.942 459.351 282.282 455.921 286.822 447.931C277.632 440.841 225.852 416.981 218.442 416.891C227.492 422.691 235.762 427.981 244.032 433.271C243.412 434.041 242.802 434.791 242.182 435.541ZM303.152 316.111C293.672 314.001 286.862 307.531 279.782 301.601C276.382 298.751 272.942 296.241 267.812 294.151C285.882 332.831 334.422 358.521 362.212 352.741C353.312 343.211 347.632 332.121 342.802 320.461C341.662 317.711 338.742 315.291 336.062 313.661C311.012 298.431 287.842 281.201 272.312 255.031C268.152 260.011 268.642 264.801 271.082 269.991C277.202 283.031 285.002 294.831 295.112 305.161C298.252 308.361 300.542 312.391 303.222 316.041L303.152 316.111ZM266.912 423.581C279.902 432.251 294.602 437.101 309.452 443.551C315.602 433.921 321.362 424.911 327.402 415.451C316.482 410.271 306.672 405.521 296.782 400.951C285.692 395.831 274.532 390.881 263.402 385.861C251.542 379.961 239.722 373.971 227.812 368.181C219.232 364.011 210.522 360.091 201.902 356.071C202.482 356.921 203.252 358.231 203.742 359.951C206.162 368.501 198.712 376.911 192.492 385.121C189.292 389.341 183.021 400.311 170.481 422.261C170.481 422.261 169.392 424.221 162.092 449.791C161.282 452.611 161.852 455.081 166.002 455.721C183.732 432.751 193.252 404.651 211.242 379.541C211.592 383.181 212.191 385.071 211.861 386.781C210.331 394.821 214.272 398.781 221.222 401.961C233.602 407.621 245.552 414.211 257.752 420.251C260.642 421.681 263.842 422.491 266.912 423.581ZM238.872 123.701C235.882 125.041 232.762 126.171 229.912 127.771C201.702 143.571 177.651 164.551 156.521 188.771C120.722 229.811 98.8215 277.841 87.8215 330.901C83.2515 352.941 82.4415 375.351 83.8615 399.811C86.2015 395.941 87.6015 393.811 88.8215 391.591C95.0415 380.201 101.292 368.831 107.392 357.381C116.692 339.931 129.671 325.881 146.521 315.611C155.021 310.431 163.992 306.031 172.682 301.151C175.512 299.561 179.152 298.171 180.652 295.631C187.802 283.531 199.511 279.411 212.021 276.441C220.421 274.451 228.851 272.581 237.291 270.761C242.401 269.651 244.751 266.881 246.011 261.481C248.201 252.171 251.322 242.991 254.962 234.131C259.332 223.501 255.191 213.721 243.981 210.351C229.021 205.851 224.092 197.431 226.132 181.821C228.682 162.281 233.861 143.431 239.891 124.761C239.981 124.011 240.072 123.261 240.162 122.511C239.732 122.891 239.302 123.291 238.872 123.701ZM71.2215 522.121L71.2315 522.131C72.7915 519.721 73.8515 516.671 75.9915 515.001C88.3415 505.371 101.472 497.031 116.482 491.991C119.132 491.101 121.552 489.531 126.052 487.291C117.812 485.391 111.802 484.161 105.872 482.601C100.002 481.061 93.4415 483.961 86.5815 479.451C89.9715 477.001 92.2915 474.461 95.1615 473.391C114.202 466.241 132.921 471.531 153.071 476.421C150.381 472.271 149.121 468.951 146.761 466.941C139.711 460.931 140.002 453.541 142.412 445.991C146.672 432.701 150.712 419.261 156.242 406.491C161.592 394.131 164.811 382.251 158.771 369.381C158.071 367.901 157.412 366.211 157.432 364.631C157.462 362.551 158.181 360.481 158.801 357.481C164.111 360.571 168.432 363.091 172.942 365.711C174.222 363.591 174.941 362.491 175.571 361.341C180.501 352.401 183.712 342.321 193.212 336.481C194.342 335.781 194.372 332.331 193.962 330.361C193.582 328.541 191.982 326.951 190.812 325.341C186.762 319.741 185.212 319.031 179.252 322.201C169.572 327.331 159.742 332.361 150.752 338.581C142.382 344.371 134.132 350.631 129.152 360.191C118.842 379.951 108.142 399.501 97.6615 419.181C90.4615 432.691 83.7815 446.491 76.1415 459.741C64.2815 480.311 54.8215 501.881 48.2315 524.631C44.4115 537.831 43.6415 551.391 47.3115 564.951C51.2315 579.451 64.6615 589.981 77.1315 587.791C102.662 583.301 127.731 576.781 151.851 567.361C159.761 564.271 166.361 563.651 173.611 568.171C180.221 562.031 186.601 556.111 193.891 549.331C194.961 554.671 195.651 558.091 196.581 562.721C206.751 560.461 216.351 558.321 225.951 556.201C230.521 555.191 231.092 551.891 231.312 547.891C231.702 540.631 231.881 533.261 233.391 526.191C235.041 518.461 238.121 511.031 240.521 503.451C242.101 498.461 240.641 494.341 237.171 494.901C229.511 496.141 221.142 495.391 215.312 502.631C211.362 507.541 206.791 512.051 201.981 516.131C197.411 520.021 193.341 525.111 186.201 525.851C183.191 514.181 194.491 509.081 197.801 499.171C194.291 498.211 191.272 496.541 188.402 496.761C179.852 497.431 171.371 499.021 162.831 499.931C141.641 502.181 121.022 506.791 100.862 513.761C91.1515 517.091 81.1015 519.361 71.2215 522.121ZM654.982 527.901C678.472 490.091 690.172 449.621 692.772 406.451C694.542 377.081 692.341 347.921 685.031 319.331C661.141 225.991 606.052 158.091 519.132 116.281C515.692 114.621 512.012 113.471 507.612 111.761C510.142 120.501 512.662 127.971 514.432 135.611C517.392 148.431 513.762 159.461 503.582 167.801C500.162 170.611 495.662 172.111 491.892 174.091C489.532 189.001 487.701 203.871 484.711 218.491C481.661 233.411 477.482 248.091 473.632 263.511C476.202 264.841 479.072 266.401 482.022 267.831C492.192 272.761 502.422 277.561 512.562 282.551C526.332 289.331 534.372 299.691 532.992 315.841C532.912 316.761 533.452 317.721 533.672 318.541C541.892 323.931 550.091 329.011 557.971 334.541C573.311 345.281 584.481 358.891 591.151 376.971C608.421 423.751 625.711 470.471 635.961 519.571C642.191 522.301 648.232 524.941 654.982 527.901ZM176.722 589.281C289.242 698.111 473.892 698.031 581.682 607.851C575.132 607.351 569.652 606.501 564.192 606.611C557.632 606.741 553.582 603.991 550.992 598.111C548.582 592.631 545.902 587.241 542.942 582.041C541.522 579.551 539.552 576.971 537.172 575.521C531.242 571.931 524.932 568.961 518.292 565.491C516.222 568.871 514.452 571.631 512.802 574.471C507.232 584.061 503.022 591.331 498.672 598.881C489.522 614.751 490.442 613.011 486.352 620.341C469.852 649.931 467.822 658.831 458.832 661.431C453.172 663.061 448.492 661.111 441.832 658.651C397.092 642.121 373.152 645.271 370.832 633.211C370.732 632.671 370.982 630.611 371.442 626.491C372.572 616.461 373.142 611.441 375.502 608.161C379.162 603.051 382.902 606.691 388.672 601.551C390.732 599.711 393.762 593.361 399.732 580.721C400.572 578.931 401.572 576.801 403.562 574.391C406.522 570.801 409.912 568.711 412.302 567.511C404.142 566.061 396.832 565.431 389.952 563.371C382.142 561.031 376.732 563.371 371.392 568.921C361.682 578.991 351.222 588.331 341.652 598.521C335.642 604.911 330.102 606.611 321.482 603.171C297.382 593.561 272.902 584.861 248.472 576.101C244.562 574.701 239.822 573.551 235.962 574.431C216.562 578.851 197.332 584.021 176.722 589.281ZM466.742 89.3613C466.742 87.0313 467.221 84.9913 466.661 83.2813C463.631 73.9513 458.561 65.6613 451.161 59.3413C434.151 44.8113 413.552 38.0713 391.822 36.2813C371.692 34.6113 351.502 35.7313 331.642 41.3313C291.972 52.5113 268.482 78.5813 258.932 118.041C257.162 125.361 258.192 125.991 265.542 124.221C288.062 118.791 310.572 113.091 334.032 114.071C338.402 114.251 341.322 112.271 344.662 109.771C349.882 105.871 355.572 102.271 361.592 99.8413C376.412 93.8413 392.082 91.5913 407.942 89.6313C427.192 87.2213 446.232 87.8013 466.742 89.3613ZM345.302 522.971C352.692 520.961 357.712 523.921 362.782 526.031C374.802 531.051 385.662 538.071 395.952 546.011C401.862 550.581 405.531 551.061 407.961 547.911C410.351 544.811 409.392 541.031 403.992 536.011C386.072 519.351 365.552 506.411 343.302 496.631C334.742 492.871 324.832 491.331 315.402 490.701C308.352 490.221 301.102 492.841 293.932 494.021C285.132 495.471 276.282 496.691 267.512 498.341C261.802 499.411 256.911 501.521 255.301 508.291C252.521 519.961 250.352 531.591 251.122 543.691C252.082 558.861 264.462 568.701 279.202 565.041C288.952 562.621 296.942 565.301 303.812 571.941C306.882 574.911 309.372 578.501 311.982 581.921C316.882 588.331 322.992 589.751 330.632 586.911C331.032 576.041 322.112 568.711 319.482 558.621C325.602 558.131 328.852 560.891 331.962 563.901C334.832 566.681 337.392 569.851 340.572 572.191C342.072 573.291 344.712 572.851 346.832 573.111C347.072 571.051 348.232 568.451 347.382 567.031C343.852 561.071 339.752 555.451 335.792 549.741C333.492 546.431 330.522 543.461 329.662 537.581C334.292 539.671 337.862 540.651 340.682 542.671C347.112 547.281 353.272 552.281 359.332 557.371C362.262 559.831 364.872 560.971 368.052 558.081C371.132 555.291 372.342 551.951 369.962 548.341C368.332 545.881 365.972 543.901 363.872 541.771C357.922 535.721 351.932 529.671 345.302 522.971ZM612.531 505.751C612.531 503.711 612.812 502.381 612.492 501.221C607.842 484.301 603.611 467.251 598.281 450.541C590.921 427.471 582.162 404.841 575.082 381.691C569.822 364.491 558.312 353.581 543.442 345.211C541.282 343.991 538.731 343.461 535.401 342.271C534.611 359.141 533.892 374.961 533.112 390.781C532.902 395.081 533.011 399.461 532.161 403.641C530.301 412.771 530.592 421.561 534.562 431.591C539.622 417.621 536.672 403.221 543.312 390.881C545.922 395.921 548.162 400.821 548.932 405.941C551.312 421.601 553.031 437.361 555.221 453.051C555.831 457.441 557.152 461.731 558.312 466.811C563.652 464.221 567.612 462.291 573.452 459.451C572.942 468.201 573.002 475.091 572.042 481.831C570.942 489.561 570.541 489.521 578.091 492.721C587.551 496.741 597.002 500.791 606.512 504.691C608.172 505.371 610.101 505.351 612.531 505.751ZM369.672 219.551C374.052 223.941 378.192 228.131 382.372 232.271C387.432 237.281 391.182 243.141 392.812 250.061C395.062 259.621 392.492 263.491 382.942 265.741C380.872 266.231 378.732 266.421 376.492 266.761C376.972 268.011 377.072 268.711 377.462 269.181C378.092 269.941 378.852 270.621 379.652 271.201C392.462 280.421 406.132 287.201 422.242 288.961C432.362 290.061 437.841 288.531 443.211 280.061C452.741 265.031 459.062 248.851 461.982 231.211C463.932 219.451 460.562 214.091 448.522 214.211C439.652 214.301 430.562 214.891 421.992 216.981C405.402 221.021 389.022 223.531 372.282 218.341C371.852 218.201 371.212 218.801 369.672 219.551ZM497.492 141.931C498.242 141.411 499.002 140.891 499.752 140.371C498.392 135.771 496.962 131.191 495.702 126.561C492.792 115.891 485.792 109.191 475.202 107.041C464.232 104.821 453.082 102.661 441.942 102.241C429.752 101.781 417.392 102.611 405.292 104.231C393.892 105.761 382.512 108.371 371.502 111.761C358.722 115.691 350.722 133.091 355.202 145.931C357.322 145.571 359.562 145.301 361.742 144.801C390.822 138.141 420.032 133.001 450.102 133.901C466.322 134.381 482.562 133.601 497.492 141.931ZM350.252 166.901C349.112 185.331 359.322 198.691 376.782 203.941C400.992 211.221 422.872 201.871 445.432 195.351C444.232 187.651 438.962 181.121 440.702 172.571C452.162 172.201 464.131 173.781 473.591 164.321C469.331 157.641 462.982 156.451 456.272 155.901C435.312 154.201 414.452 155.591 393.752 158.651C379.052 160.831 364.532 164.151 350.252 166.901ZM283.552 375.961C284.042 375.461 284.542 374.961 285.032 374.461C283.682 371.251 282.452 367.991 280.962 364.841C279.252 361.241 277.162 357.821 275.512 354.191C267.422 336.321 259.582 318.341 251.342 300.551C247.282 291.781 244.821 290.611 235.771 292.381C227.001 294.101 218.272 296.091 209.622 298.351C205.162 299.521 200.812 301.391 199.382 307.301C212.442 318.611 220.001 333.871 228.571 348.481C230.271 351.381 233.411 353.961 236.481 355.431C248.161 361.041 260.062 366.191 271.922 371.411C275.722 373.101 279.662 374.461 283.552 375.961ZM470.632 384.101C484.052 383.241 494.791 389.611 507.151 387.111C507.151 379.261 507.151 372.301 507.151 365.341C507.141 348.011 507.122 330.691 507.132 313.361C507.132 305.071 504.652 298.701 496.052 295.381C487.392 292.041 479.132 287.641 470.602 283.931C469.012 283.241 466.962 283.601 465.122 283.481C465.032 285.591 464.192 288.031 464.952 289.771C470.892 303.331 472.482 317.901 474.582 332.251C475.622 339.351 474.652 346.811 474.052 354.061C473.262 363.521 471.932 372.941 470.632 384.101ZM329.742 136.511C324.872 130.191 320.732 127.401 314.792 128.461C300.522 131.001 286.192 133.271 272.032 136.341C262.992 138.301 253.311 140.601 249.201 150.311C243.861 162.911 240.292 175.921 247.122 190.531C263.282 187.261 278.382 182.401 288.862 168.521C293.842 161.921 298.482 155.061 303.082 148.181C307.272 141.921 313.242 138.991 320.462 138.021C322.932 137.701 325.392 137.231 329.742 136.511ZM442.151 536.361C437.131 545.811 432.862 553.841 428.292 562.451C449.152 571.601 468.792 580.221 488.942 589.061C493.502 580.671 497.582 573.161 502.172 564.731C482.042 555.211 462.601 546.031 442.151 536.361ZM506.812 453.911C507.652 442.221 508.711 432.031 509.031 421.811C509.371 411.011 507.072 408.421 496.562 406.331C487.812 404.591 478.932 403.421 470.252 401.361C465.112 400.141 462.211 401.971 459.911 405.141C463.171 409.811 467.452 413.491 468.302 417.841C469.232 422.581 466.972 427.941 466.022 433.561C479.332 440.201 492.602 446.821 506.812 453.911ZM440.661 508.751C418.791 498.201 397.512 487.941 375.142 477.141C376.042 491.371 378.482 502.601 391.152 508.701C394.402 510.261 397.402 512.611 400.062 515.081C408.182 522.621 418.722 524.631 429.182 529.071C432.982 522.331 436.531 516.051 440.661 508.751ZM379.092 427.961C431.092 452.761 482.492 477.291 533.942 501.741C534.542 502.031 535.672 501.211 536.442 500.941C536.522 500.361 536.692 499.791 536.602 499.741C498.192 480.351 459.762 461.001 420.492 441.231C421.182 436.201 421.872 431.001 422.612 425.801C423.942 416.481 420.091 409.171 412.221 406.541C408.471 405.291 405.142 405.401 404.492 410.691C405.682 411.351 406.472 411.931 407.352 412.251C417.702 416.031 420.771 427.491 413.661 435.881C410.521 439.581 407.812 439.681 404.672 435.941C403.412 434.441 402.582 432.571 401.602 430.841C397.132 422.971 388.432 421.491 379.092 427.961ZM696.692 579.761C702.142 567.531 707.272 556.051 712.372 544.561C713.872 541.181 713.822 537.551 710.692 535.571C708.142 533.951 704.682 533.371 701.572 533.191C699.842 533.091 697.882 534.571 696.232 535.641C685.342 542.681 674.452 549.731 663.692 556.971C661.462 558.471 659.782 560.781 657.002 563.561C670.732 569.171 682.992 574.171 696.692 579.761ZM421.732 574.071C415.632 584.961 410.042 594.951 404.012 605.721C408.372 605.151 414.162 604.841 420.882 605.701C426.502 606.421 431.242 607.761 434.932 609.101C424.622 607.971 414.322 606.851 404.012 605.721C409.922 595.171 415.832 584.621 421.732 574.071ZM759.922 636.931C759.202 635.851 758.362 634.201 758.302 632.161C758.202 628.181 761.242 627.011 760.762 624.541C760.532 623.341 759.541 622.201 747.661 617.131C745.251 616.101 743.612 615.431 743.612 615.431C741.712 614.641 736.222 612.381 727.982 609.131C721.912 606.731 715.782 604.471 709.112 601.941C706.782 605.971 704.932 609.171 702.622 613.171C722.202 621.291 740.472 628.871 759.922 636.931ZM513.012 543.911C492.832 534.331 473.232 525.031 453.242 515.541C451.432 519.221 450.152 521.821 448.622 524.931C468.702 534.541 488.272 543.901 507.982 553.331C509.542 550.641 510.391 549.241 511.161 547.801C511.751 546.731 512.232 545.581 513.012 543.911ZM645.161 588.931C651.751 591.661 658.342 594.401 664.922 597.131C672.982 600.471 681.031 603.811 689.091 607.161C691.151 603.421 693.212 599.681 695.262 595.941C688.222 592.951 681.052 589.971 673.752 587.011C666.022 583.881 658.372 580.871 650.822 577.971C648.942 581.621 647.051 585.271 645.161 588.931ZM520.442 530.381C523.722 524.091 526.732 518.331 530.192 511.711C522.122 507.861 514.791 504.371 506.711 500.521C503.091 507.031 499.842 512.871 496.362 519.111C504.982 523.141 512.402 526.611 520.442 530.381ZM402.442 349.571C425.222 350.741 456.272 330.381 448.622 309.371C440.032 315.041 435.592 324.441 427.882 330.301C419.732 336.491 411.562 342.661 402.442 349.571ZM348.382 425.311C343.032 422.881 339.252 421.161 335.052 419.251C328.882 429.061 323.202 438.101 317.122 447.771C322.262 450.401 326.252 452.441 330.942 454.841C336.802 444.931 342.282 435.651 348.382 425.311ZM319.092 181.781C307.162 191.371 303.882 212.021 310.752 227.511C314.252 228.221 317.922 228.971 323.682 230.151C312.492 213.761 315.052 197.911 319.092 181.781ZM580.971 595.371C580.971 588.871 581.451 582.891 580.841 577.041C580.151 570.381 577.261 568.631 569.091 569.391C569.091 575.171 568.972 581.081 569.122 586.991C569.322 595.451 570.041 595.971 580.971 595.371ZM587.312 577.521C587.312 583.601 586.902 589.511 587.562 595.301C587.762 597.051 590.872 599.591 592.772 599.711C594.692 599.831 598.412 597.481 598.492 596.051C598.762 590.941 598.382 585.641 597.182 580.661C596.192 576.631 592.762 575.181 587.312 577.521ZM562.942 588.941C562.942 584.241 563.342 579.631 562.742 575.161C562.512 573.421 560.242 571.091 558.492 570.661C556.692 570.211 552.832 571.401 552.602 572.461C551.722 576.491 551.022 581.011 552.022 584.881C553.062 588.871 556.702 591.171 562.942 588.941ZM613.852 601.701C618.202 586.821 616.852 584.161 606.062 585.411C603.632 590.481 601.792 595.631 604.512 601.701C607.562 601.701 610.442 601.701 613.852 601.701Z" fill="#031E35"/>
<path d="M2955.54 298.171C2977.99 298.171 2999.84 298.171 3022.91 298.171C3022.91 305.571 3022.91 312.651 3022.91 321.511C3026.57 318.731 3028.54 317.201 3030.54 315.721C3038.3 310.001 3045.67 303.621 3053.92 298.711C3078.53 284.051 3122.38 283.241 3146.1 320.791C3156.23 336.821 3162.28 354.341 3165.27 372.911C3170.73 406.761 3171.11 440.561 3162.35 473.991C3157.12 493.931 3147.81 511.811 3134.01 527.281C3107.2 557.351 3069.67 559.481 3040.16 545.841C3034.84 543.381 3029.71 540.501 3023.29 537.191C3023.29 571.991 3023.29 605.451 3023.29 638.661C3015.56 640.821 2969.23 641.351 2955.53 639.581C2955.54 526.241 2955.54 412.811 2955.54 298.171ZM3022.95 490.041C3025.04 491.081 3026.42 492.061 3027.95 492.491C3056.51 500.421 3086.25 495.921 3095.63 456.911C3096.02 455.291 3096.33 453.661 3096.65 452.031C3100.33 433.191 3099.77 414.201 3097.92 395.291C3097.19 387.781 3094.98 380.241 3092.35 373.111C3087.58 360.161 3077.98 352.511 3064.14 350.851C3052.46 349.451 3041.86 353.031 3031.6 358.341C3025.34 361.581 3022.66 365.711 3022.75 373.211C3023.19 409.191 3022.95 445.171 3022.95 481.161C3022.95 484.091 3022.95 487.031 3022.95 490.041Z" fill="#FFAB07"/>
<path d="M3587.69 423.191C3587.12 447.301 3584.64 471.061 3574.71 493.451C3556.68 534.111 3525.27 555.171 3480.99 556.201C3468.46 556.491 3455.57 555.551 3443.37 552.831C3411.56 545.741 3390.08 525.441 3376.24 496.471C3368.68 480.641 3364.62 463.781 3363.15 446.461C3360.96 420.791 3361.14 395.041 3368.83 370.161C3372.24 359.121 3376.77 348.151 3382.58 338.191C3399.81 308.671 3426.57 293.511 3460.14 290.301C3475.41 288.841 3490.75 289.241 3505.82 292.971C3541.1 301.701 3563.52 324.541 3576.65 357.541C3585.05 378.611 3587.18 400.771 3587.69 423.191ZM3432.62 422.991C3432.62 429.991 3432.19 437.021 3432.71 443.981C3433.68 457.011 3436.21 469.761 3442.49 481.411C3449.47 494.341 3460.55 500.621 3475.2 500.351C3489.27 500.081 3500.47 494.421 3506.91 481.521C3510 475.321 3512.82 468.721 3514.23 461.981C3519.12 438.591 3519.17 414.931 3515.19 391.441C3513.71 382.691 3510.97 373.901 3507.27 365.831C3501.01 352.171 3489.79 345.701 3474.45 345.731C3458.97 345.771 3448.59 353.051 3441.93 366.421C3440.16 369.981 3438.79 373.771 3437.57 377.561C3432.8 392.331 3431.94 407.601 3432.62 422.991Z" fill="#FFAB07"/>
<path d="M3205.54 298.171C3227.98 298.171 3249.81 298.171 3272.57 298.171C3272.57 309.361 3272.57 320.181 3272.57 332.711C3275.7 330.571 3277.5 329.511 3279.1 328.211C3287.1 321.721 3294.64 314.551 3303.12 308.781C3317.39 299.061 3333.31 295.411 3351.18 298.871C3351.18 323.121 3351.18 347.251 3351.18 372.901C3324.07 367.411 3298.02 368.491 3273.08 382.401C3273.08 437.131 3273.08 492.011 3273.08 546.681C3265.65 548.851 3219.43 549.421 3205.53 547.611C3205.54 464.931 3205.54 382.161 3205.54 298.171Z" fill="#FFAB07"/>
<path d="M654.982 527.901C648.222 524.951 642.181 522.301 635.961 519.581C625.711 470.481 608.421 423.771 591.151 376.981C584.471 358.901 573.301 345.291 557.971 334.551C550.081 329.031 541.892 323.941 533.672 318.551C533.452 317.731 532.912 316.761 532.992 315.851C534.382 299.701 526.342 289.341 512.562 282.561C502.422 277.571 492.192 272.771 482.022 267.841C479.082 266.411 476.202 264.851 473.632 263.521C477.482 248.101 481.661 233.411 484.711 218.501C487.701 203.871 489.532 189.011 491.892 174.101C495.672 172.121 500.162 170.621 503.582 167.811C513.762 159.471 517.392 148.441 514.432 135.621C512.662 127.981 510.142 120.511 507.612 111.771C512.012 113.481 515.692 114.641 519.132 116.291C606.052 158.101 661.141 226.001 685.031 319.341C692.351 347.931 694.542 377.091 692.772 406.461C690.182 449.621 678.472 490.081 654.982 527.901Z" fill="#F4AA35"/>
<path d="M176.722 589.281C197.342 584.021 216.562 578.851 235.942 574.401C239.802 573.511 244.542 574.671 248.452 576.071C272.882 584.831 297.352 593.531 321.462 603.141C330.082 606.581 335.622 604.881 341.632 598.491C351.202 588.301 361.662 578.961 371.372 568.891C376.722 563.341 382.132 561.001 389.932 563.341C396.812 565.411 404.121 566.031 412.281 567.481C410.641 570.671 409.692 573.011 408.332 575.081C406.572 577.781 405.952 578.841 404.172 581.881C402.152 585.321 400.912 587.881 400.322 589.051C397.182 595.271 392.582 601.861 381.822 618.751C375.592 628.531 374.432 630.561 375.152 633.191C376.262 637.261 380.902 639.431 392.722 642.921C412.962 648.901 456.981 659.551 457.031 659.571C457.031 659.571 457.032 659.571 457.042 659.571C457.052 659.571 457.082 659.581 457.112 659.591C457.382 659.681 458.202 659.921 459.132 659.771C459.372 659.721 459.712 659.651 460.132 659.531C465.912 657.871 468.762 652.071 472.552 644.851C472.552 644.851 472.862 644.261 479.932 631.261C482.902 625.791 483.481 625.131 488.961 615.761C495.611 604.381 495.741 603.841 504.721 588.151C506.871 584.401 509.432 580.021 512.792 574.461C515.142 570.571 517.081 567.421 518.281 565.481C524.921 568.951 531.231 571.911 537.161 575.511C539.541 576.961 541.512 579.541 542.932 582.031C545.892 587.231 548.572 592.621 550.982 598.101C553.572 603.981 557.612 606.731 564.182 606.601C569.642 606.491 575.132 607.341 581.672 607.841C473.882 698.021 289.242 698.111 176.722 589.281Z" fill="#F4AA35"/>
<path d="M71.2215 522.121C81.1015 519.361 91.1515 517.101 100.832 513.751C120.992 506.771 141.601 502.161 162.801 499.921C171.341 499.011 179.822 497.421 188.372 496.751C191.242 496.531 194.261 498.201 197.771 499.161C194.461 509.071 183.161 514.161 186.171 525.841C193.321 525.101 197.391 520.011 201.951 516.121C206.751 512.031 211.332 507.521 215.282 502.621C221.112 495.381 229.481 496.131 237.141 494.891C240.601 494.331 242.072 498.451 240.492 503.441C238.092 511.021 235.011 518.441 233.361 526.181C231.851 533.241 231.672 540.621 231.282 547.881C231.072 551.881 230.491 555.181 225.921 556.191C216.321 558.311 206.721 560.451 196.551 562.711C195.621 558.081 194.931 554.651 193.861 549.321C186.571 556.091 180.201 562.011 173.581 568.161C166.331 563.641 159.741 564.261 151.821 567.351C127.701 576.771 102.632 583.291 77.1015 587.781C64.6315 589.971 51.2015 579.451 47.2815 564.941C43.6115 551.381 44.3815 537.811 48.2015 524.621C54.7915 501.871 64.2515 480.301 76.1115 459.731C83.7515 446.481 90.4315 432.681 97.6315 419.171C108.112 399.501 118.812 379.941 129.122 360.181C134.112 350.621 142.352 344.361 150.722 338.571C159.702 332.361 169.532 327.321 179.222 322.191C185.182 319.031 186.732 319.731 190.782 325.331C191.952 326.951 193.552 328.541 193.932 330.351C194.342 332.331 194.312 335.771 193.182 336.471C183.692 342.311 180.471 352.391 175.541 361.331C174.911 362.481 174.192 363.581 172.912 365.701C168.402 363.081 164.081 360.561 158.771 357.471C158.151 360.481 157.432 362.551 157.402 364.621C157.382 366.201 158.052 367.891 158.742 369.371C164.782 382.241 161.572 394.121 156.212 406.481C150.682 419.251 146.642 432.691 142.382 445.981C139.962 453.531 139.681 460.921 146.731 466.931C149.091 468.951 150.351 472.261 153.041 476.411C132.891 471.521 114.172 466.221 95.1315 473.381C92.2615 474.461 89.9315 477.001 86.5515 479.441C93.4215 483.951 99.9715 481.051 105.842 482.591C111.772 484.151 117.792 485.381 126.022 487.281C121.522 489.521 119.102 491.091 116.452 491.981C101.442 497.011 88.3115 505.351 75.9615 514.991C73.8215 516.661 72.7615 519.711 71.2015 522.121C71.0415 522.401 70.8815 522.671 70.7215 522.951C70.9115 522.681 71.0715 522.401 71.2215 522.121Z" fill="#163558"/>
<path d="M239.902 124.751C233.872 143.421 228.691 162.261 226.141 181.801C224.101 197.401 229.032 205.831 243.992 210.331C255.202 213.701 259.332 223.481 254.972 234.111C251.332 242.971 248.211 252.151 246.021 261.461C244.751 266.851 242.411 269.631 237.301 270.741C228.861 272.571 220.432 274.431 212.032 276.421C199.512 279.391 187.802 283.511 180.662 295.611C179.162 298.141 175.522 299.531 172.692 301.131C164.002 306.011 155.032 310.411 146.532 315.591C129.682 325.861 116.702 339.911 107.402 357.361C101.302 368.811 95.0515 380.181 88.8315 391.571C87.6115 393.801 86.2115 395.921 83.8715 399.791C82.4515 375.331 83.2615 352.921 87.8315 330.881C98.8315 277.821 120.722 229.781 156.532 188.751C177.662 164.541 201.701 143.551 229.921 127.751C232.771 126.151 235.892 125.031 238.882 123.681C239.212 124.051 239.562 124.401 239.902 124.751Z" fill="#F4AA35"/>
<path d="M466.742 89.3613C446.232 87.8013 427.192 87.2213 407.942 89.6113C392.082 91.5813 376.412 93.8213 361.592 99.8213C355.582 102.251 349.882 105.851 344.662 109.751C341.312 112.251 338.392 114.231 334.032 114.051C310.572 113.071 288.062 118.781 265.542 124.201C258.192 125.971 257.162 125.341 258.932 118.021C268.482 78.5613 291.972 52.4913 331.642 41.3113C351.492 35.7213 371.692 34.5913 391.822 36.2613C413.542 38.0613 434.141 44.7913 451.161 59.3213C458.561 65.6413 463.631 73.9313 466.661 83.2613C467.221 84.9913 466.742 87.0313 466.742 89.3613Z" fill="#163558"/>
<path d="M345.302 522.971C351.932 529.681 357.931 535.721 363.891 541.801C365.991 543.931 368.351 545.911 369.981 548.371C372.371 551.981 371.151 555.321 368.071 558.111C364.881 561.001 362.281 559.861 359.351 557.401C353.291 552.311 347.121 547.311 340.701 542.701C337.881 540.681 334.311 539.701 329.681 537.611C330.541 543.491 333.511 546.461 335.811 549.771C339.771 555.471 343.871 561.101 347.401 567.061C348.241 568.481 347.081 571.081 346.851 573.141C344.731 572.881 342.091 573.321 340.591 572.221C337.411 569.881 334.851 566.701 331.981 563.931C328.871 560.921 325.611 558.151 319.501 558.651C322.131 568.741 331.051 576.071 330.651 586.941C322.991 589.761 316.891 588.341 311.991 581.931C309.381 578.511 306.891 574.921 303.821 571.951C296.951 565.311 288.962 562.631 279.212 565.051C264.482 568.711 252.102 558.861 251.132 543.701C250.362 531.591 252.532 519.971 255.312 508.301C256.922 501.531 261.812 499.421 267.522 498.351C276.292 496.701 285.131 495.481 293.941 494.031C301.111 492.851 308.361 490.231 315.411 490.711C324.841 491.351 334.751 492.881 343.311 496.641C365.571 506.421 386.091 519.361 404.001 536.021C409.401 541.041 410.351 544.821 407.971 547.921C405.541 551.061 401.871 550.581 395.961 546.021C385.671 538.071 374.811 531.061 362.791 526.041C357.711 523.911 352.692 520.961 345.302 522.971Z" fill="#163558"/>
<path d="M612.531 505.751C610.101 505.351 608.172 505.371 606.522 504.691C597.012 500.791 587.562 496.731 578.102 492.721C570.552 489.521 570.952 489.571 572.052 481.831C573.012 475.091 572.961 468.201 573.461 459.451C567.621 462.291 563.652 464.221 558.322 466.811C557.152 461.731 555.842 457.441 555.232 453.051C553.052 437.361 551.322 421.601 548.942 405.941C548.162 400.821 545.932 395.931 543.322 390.881C536.682 403.221 539.632 417.621 534.572 431.591C530.602 421.571 530.312 412.771 532.172 403.641C533.022 399.461 532.912 395.081 533.122 390.781C533.892 374.961 534.611 359.131 535.411 342.271C538.741 343.461 541.292 343.991 543.452 345.211C558.312 353.581 569.821 364.491 575.091 381.691C582.181 404.841 590.942 427.471 598.292 450.541C603.622 467.251 607.852 484.301 612.502 501.221C612.812 502.381 612.531 503.711 612.531 505.751Z" fill="#163558"/>
<path d="M369.672 219.551C371.222 218.801 371.862 218.201 372.272 218.331C389.012 223.521 405.392 221.011 421.982 216.971C430.552 214.881 439.642 214.291 448.512 214.201C460.552 214.081 463.921 219.441 461.971 231.201C459.051 248.851 452.732 265.021 443.202 280.051C437.832 288.521 432.352 290.051 422.232 288.951C406.122 287.201 392.462 280.421 379.642 271.191C378.842 270.611 378.082 269.931 377.452 269.171C377.062 268.711 376.962 268.001 376.482 266.751C378.722 266.401 380.862 266.221 382.932 265.731C392.482 263.481 395.052 259.611 392.802 250.051C391.172 243.131 387.412 237.271 382.362 232.261C378.192 228.131 374.052 223.941 369.672 219.551Z" fill="#163558"/>
<path d="M497.492 141.931C482.562 133.601 466.312 134.381 450.102 133.891C420.032 132.991 390.822 138.131 361.742 144.791C359.552 145.291 357.312 145.561 355.202 145.921C350.722 133.081 358.722 115.681 371.502 111.751C382.512 108.371 393.882 105.751 405.292 104.221C417.392 102.601 429.752 101.771 441.942 102.231C453.082 102.651 464.232 104.801 475.202 107.031C485.792 109.181 492.792 115.881 495.702 126.551C496.962 131.181 498.402 135.761 499.752 140.361C499.002 140.891 498.252 141.411 497.492 141.931Z" fill="#163558"/>
<path d="M266.912 423.581C263.852 422.491 260.642 421.691 257.752 420.251C245.542 414.211 233.592 407.621 221.222 401.961C214.272 398.781 210.331 394.821 211.861 386.781C212.191 385.071 211.592 383.181 211.242 379.541C193.252 404.651 183.732 432.761 166.002 455.721C161.852 455.081 161.282 452.611 162.092 449.791C169.432 424.081 170.481 422.261 170.481 422.261C185.761 396.781 201.902 356.081 201.902 356.081C210.522 360.101 219.222 364.011 227.812 368.191C239.722 373.981 251.542 379.971 263.402 385.881C264.562 398.441 265.732 411.011 266.912 423.581Z" fill="#DF4603"/>
<path d="M350.252 166.901C364.532 164.151 379.052 160.831 393.752 158.651C414.452 155.591 435.312 154.191 456.272 155.901C462.982 156.441 469.331 157.641 473.591 164.321C464.131 173.781 452.162 172.201 440.702 172.571C438.962 181.121 444.232 187.651 445.432 195.351C422.882 201.871 401.002 211.221 376.782 203.941C359.322 198.701 349.112 185.331 350.252 166.901ZM429.012 174.721C415.902 171.761 403.382 168.911 390.842 166.151C389.242 165.801 387.542 165.961 385.892 165.841C377.492 165.241 372.662 169.811 368.362 177.891C376.672 177.891 383.742 177.891 390.452 177.891C391.512 180.581 392.142 182.471 392.982 184.271C397.742 194.561 405.182 196.991 414.602 190.941C420.762 186.961 425.602 181.611 429.012 174.721Z" fill="#F4AA35"/>
<path d="M283.552 375.961C279.672 374.451 275.732 373.091 271.922 371.421C260.062 366.201 248.162 361.051 236.482 355.441C233.412 353.961 230.272 351.381 228.572 348.491C220.002 333.881 212.442 318.621 199.382 307.311C200.812 301.391 205.172 299.521 209.622 298.361C218.272 296.101 227.002 294.101 235.772 292.391C244.822 290.621 247.282 291.791 251.342 300.561C259.582 318.361 267.422 336.341 275.512 354.201C277.152 357.831 279.252 361.251 280.962 364.851C282.452 367.991 283.682 371.261 285.032 374.471C284.532 374.961 284.042 375.461 283.552 375.961Z" fill="#163558"/>
<path d="M470.632 384.101C471.932 372.941 473.262 363.531 474.052 354.071C474.652 346.821 475.622 339.361 474.582 332.261C472.482 317.901 470.902 303.341 464.952 289.781C464.192 288.041 465.022 285.601 465.122 283.491C466.962 283.611 469.012 283.251 470.602 283.941C479.132 287.651 487.382 292.041 496.052 295.391C504.652 298.711 507.132 305.091 507.132 313.371C507.122 330.701 507.152 348.021 507.152 365.351C507.152 372.311 507.152 379.271 507.152 387.121C494.792 389.601 484.052 383.241 470.632 384.101Z" fill="#163558"/>
<path d="M303.222 316.031C300.542 312.381 298.252 308.351 295.112 305.151C285.002 294.821 277.192 283.021 271.082 269.981C268.652 264.791 268.152 260.001 272.312 255.021C287.842 281.201 311.012 298.431 336.062 313.651C338.742 315.281 341.662 317.701 342.802 320.451C347.632 332.111 353.312 343.191 362.212 352.731C334.412 358.521 285.882 332.831 267.812 294.141C272.932 296.241 276.372 298.741 279.782 301.591C286.862 307.521 293.682 313.991 303.152 316.101C304.042 316.341 304.942 316.581 305.832 316.821C304.962 316.561 304.092 316.301 303.222 316.031Z" fill="#163558"/>
<path d="M244.022 433.291C243.532 432.931 232.922 426.141 218.432 416.911C225.842 416.991 277.622 440.851 286.812 447.951C282.272 455.941 275.922 459.371 266.382 458.081C256.862 456.801 247.142 457.091 237.552 456.271C234.842 456.041 231.252 455.101 229.802 453.181C226.562 448.881 222.992 448.841 218.442 449.851C206.782 452.451 195.072 454.831 183.362 457.211C180.892 457.711 178.352 457.851 173.912 458.391C178.732 451.181 182.712 445.561 186.332 439.721C189.822 434.101 192.942 428.261 196.732 421.641C211.962 426.311 227.072 430.931 242.172 435.561C242.432 435.671 243.002 435.851 243.692 435.741C244.052 435.681 244.342 435.561 244.542 435.451C244.582 435.401 244.642 435.331 244.692 435.231C244.842 434.951 244.822 434.681 244.822 434.591C244.802 434.281 244.662 434.061 244.562 433.901C244.572 433.871 244.342 433.521 244.022 433.291Z" fill="white"/>
<path d="M329.742 136.511C325.392 137.231 322.932 137.691 320.462 138.031C313.242 139.001 307.272 141.931 303.082 148.191C298.482 155.061 293.852 161.931 288.862 168.531C278.382 182.411 263.282 187.261 247.122 190.541C240.292 175.931 243.862 162.921 249.202 150.321C253.312 140.611 262.992 138.311 272.032 136.351C286.192 133.281 300.522 131.011 314.792 128.471C320.732 127.411 324.872 130.191 329.742 136.511Z" fill="#163558"/>
<path d="M439.151 360.091C436.681 369.631 434.201 379.171 431.531 389.451C430.171 389.571 428.182 390.191 426.382 389.841C412.892 387.271 399.532 387.861 385.932 389.641C375.802 390.961 365.372 390.051 355.082 390.081C345.782 390.111 336.472 390.241 327.182 390.031C319.902 389.861 314.442 386.911 312.552 379.151C311.482 374.771 310.072 370.471 308.492 365.021C317.562 366.271 325.342 366.831 332.882 368.491C351.512 372.611 370.392 372.631 389.222 371.861C401.762 371.351 413.992 368.141 425.832 363.701C430.122 362.091 434.702 361.261 439.142 360.071L439.151 360.091Z" fill="#163558"/>
<path d="M266.912 423.581C265.742 411.011 264.562 398.441 263.392 385.871C274.522 390.891 285.692 395.841 296.772 400.961C306.662 405.531 316.472 410.281 327.392 415.461C321.352 424.921 315.602 433.921 309.442 443.561C294.592 437.101 279.902 432.251 266.912 423.581Z" fill="white"/>
<path d="M442.151 536.361C462.601 546.021 482.042 555.211 502.172 564.721C497.582 573.161 493.502 580.661 488.942 589.051C468.792 580.211 449.152 571.591 428.292 562.441C432.862 553.851 437.131 545.811 442.151 536.361Z" fill="white"/>
<path d="M506.812 453.911C492.602 446.821 479.322 440.201 466.022 433.561C466.982 427.941 469.232 422.581 468.302 417.841C467.452 413.491 463.161 409.811 459.911 405.141C462.211 401.971 465.112 400.141 470.252 401.361C478.922 403.421 487.802 404.591 496.562 406.331C507.072 408.421 509.371 411.011 509.031 421.811C508.711 432.031 507.652 442.221 506.812 453.911Z" fill="#163558"/>
<path d="M440.661 508.751C436.531 516.061 432.982 522.331 429.172 529.081C410.642 524.701 398.632 517.351 392.002 512.491C386.712 508.611 383.832 505.581 381.562 502.211C375.112 492.651 374.872 482.321 375.142 477.151C397.512 487.931 418.791 498.201 440.661 508.751Z" fill="white"/>
<path d="M379.092 427.961C388.432 421.491 397.132 422.971 401.602 430.841C402.582 432.571 403.412 434.441 404.672 435.941C407.822 439.681 410.531 439.581 413.661 435.881C420.771 427.491 417.702 416.031 407.352 412.251C406.472 411.931 405.682 411.351 404.492 410.691C405.142 405.391 408.471 405.281 412.221 406.541C420.091 409.171 423.942 416.481 422.612 425.801C421.872 430.991 421.182 436.201 420.492 441.231C459.762 461.001 498.192 480.351 536.602 499.741C536.692 499.791 536.522 500.361 536.442 500.941C535.672 501.211 534.542 502.021 533.942 501.741C482.492 477.291 431.082 452.761 379.092 427.961Z" fill="white"/>
<path d="M610.752 555.411C594.622 547.611 578.272 539.971 561.692 532.491C560.662 532.031 559.632 531.561 558.602 531.101C561.482 524.491 564.351 517.881 567.221 511.271C582.291 518.221 597.362 525.171 612.442 532.121C611.882 539.891 611.312 547.651 610.752 555.411Z" fill="white"/>
<path d="M696.692 579.761C682.992 574.171 670.722 569.161 657.002 563.561C659.782 560.781 661.462 558.471 663.692 556.971C674.452 549.731 685.342 542.681 696.232 535.641C697.892 534.571 699.842 533.091 701.572 533.191C704.682 533.371 708.142 533.951 710.692 535.571C713.822 537.551 713.872 541.181 712.372 544.561C707.272 556.051 702.152 567.531 696.692 579.761ZM691.932 573.351C695.042 566.391 697.562 560.761 700.042 555.221C687.282 547.101 679.111 549.271 667.911 563.681C675.661 566.801 683.232 569.851 691.932 573.351Z" fill="white"/>
<path d="M422.221 574.531C430.391 578.401 438.572 582.271 446.752 586.141C443.412 593.851 440.071 601.571 436.721 609.281C432.581 608.901 427.472 608.081 421.802 606.361C416.382 604.721 411.862 602.671 408.302 600.781C412.942 592.031 417.581 583.281 422.221 574.531Z" fill="white"/>
<path d="M610.752 555.411C611.312 547.651 611.872 539.891 612.432 532.131C615.682 533.561 627.622 538.821 630.882 540.261C634.422 541.821 646.652 547.201 650.192 548.761C647.072 555.391 643.942 562.021 640.822 568.641C630.802 564.231 620.782 559.821 610.752 555.411Z" fill="#DF4603"/>
<path d="M449.632 494.721C449.232 495.351 448.842 495.971 448.442 496.601C448.222 496.491 447.922 496.341 447.692 496.221C433.862 489.181 423.571 484.431 418.961 482.171C412.441 478.971 402.862 474.241 391.062 468.371C390.002 464.341 389.092 460.261 387.822 456.301C386.442 451.981 386.862 448.101 389.712 444.531C394.432 446.841 399.152 449.151 403.872 451.461C402.832 462.541 402.751 462.701 412.221 467.561C421.291 472.221 430.402 476.881 439.802 480.811C446.362 483.541 450.072 487.441 449.632 494.721Z" fill="#DF4603"/>
<path d="M759.922 636.931C740.472 628.861 722.212 621.291 702.612 613.161C704.922 609.161 706.772 605.961 709.102 601.931C716.522 604.681 722.881 607.131 727.971 609.121C731.101 610.351 739.982 613.831 745.062 616.021C745.422 616.181 746.632 616.701 748.272 617.371C750.462 618.271 751.401 618.611 754.341 619.751C757.741 621.071 759.672 621.821 762.252 622.901C763.382 623.371 766.122 624.531 766.132 624.521C766.142 624.541 763.702 629.381 759.922 636.931Z" fill="white"/>
<path d="M513.012 543.911C512.232 545.581 511.752 546.721 511.172 547.811C510.402 549.251 509.542 550.651 507.992 553.341C488.282 543.911 468.702 534.541 448.632 524.941C450.162 521.831 451.442 519.221 453.252 515.551C473.232 525.031 492.842 534.341 513.012 543.911Z" fill="white"/>
<path d="M387.142 298.101C372.792 298.671 360.392 293.121 349.372 284.771C339.362 277.171 329.952 268.691 322.662 258.241C321.952 257.221 321.662 255.891 321.222 254.821C329.122 248.281 330.042 248.011 335.362 255.351C346.962 271.341 362.552 282.351 379.222 292.211C382.042 293.881 384.542 296.091 387.192 298.061L387.142 298.101Z" fill="#163558"/>
<path d="M449.632 494.721C450.072 487.441 446.362 483.541 439.802 480.801C430.402 476.871 421.301 472.211 412.221 467.551C402.741 462.681 402.832 462.521 403.872 451.451C422.122 460.031 440.362 468.621 459.672 477.701C455.892 484.101 452.762 489.411 449.632 494.721Z" fill="white"/>
<path d="M645.161 588.931C646.891 584.991 648.632 581.061 650.362 577.121C658.102 580.431 665.902 583.721 673.762 587.011C680.962 590.021 688.132 593.001 695.272 595.941C693.382 599.751 691.502 603.561 689.612 607.371C674.792 601.221 659.981 595.071 645.161 588.931Z" fill="white"/>
<path d="M481.531 601.801C481.561 601.811 482.642 602.321 482.642 602.321L481.322 604.741C481.322 604.741 473.622 620.081 473.372 620.571C473.372 620.571 465.852 618.691 460.012 617.281C456.982 616.551 452.481 615.481 446.911 614.221C450.691 606.081 454.032 598.861 457.892 590.551C465.772 594.311 473.651 598.061 481.531 601.801Z" fill="white"/>
<path d="M520.442 530.381C512.402 526.621 504.982 523.141 496.362 519.111C499.832 512.871 503.081 507.031 506.711 500.521C514.791 504.371 522.112 507.861 530.192 511.711C526.732 518.331 523.732 524.091 520.442 530.381Z" fill="white"/>
<path d="M389.712 444.521C386.852 448.081 386.432 451.961 387.822 456.291C389.092 460.251 389.992 464.331 391.062 468.361C388.362 466.971 375.332 460.261 372.782 458.951C369.582 457.311 361.702 453.321 361.702 453.321C365.382 447.661 368.922 441.931 372.302 436.121C372.572 435.671 377.282 437.821 389.712 444.521Z" fill="white"/>
<path d="M402.442 349.571C411.562 342.661 419.732 336.491 427.872 330.301C435.592 324.431 440.022 315.041 448.612 309.371C456.272 330.381 425.222 350.741 402.442 349.571Z" fill="#163558"/>
<path d="M348.382 425.311C342.282 435.641 336.802 444.921 330.952 454.831C326.262 452.431 322.272 450.391 317.132 447.761C323.212 438.091 328.892 429.051 335.062 419.241C339.252 421.161 343.032 422.881 348.382 425.311Z" fill="white"/>
<path d="M319.092 181.781C315.052 197.901 312.492 213.761 323.692 230.151C317.932 228.971 314.262 228.221 310.762 227.511C303.892 212.021 307.162 191.371 319.092 181.781Z" fill="#163558"/>
<path d="M467.012 491.131C468.292 488.581 469.561 486.031 470.841 483.481C479.461 487.581 488.091 491.671 496.711 495.771C493.271 501.901 489.822 508.031 486.382 514.161C483.582 512.761 480.662 511.361 477.622 509.981C474.352 508.491 471.152 507.121 468.042 505.861C469.692 505.531 471.902 505.031 474.502 504.311C476.402 503.781 478.261 503.301 480.651 502.371C482.721 501.571 485.461 500.341 488.531 498.451C488.991 498.101 489.462 497.761 489.922 497.411C482.282 495.311 474.642 493.221 467.012 491.131Z" fill="white"/>
<path d="M567.221 511.281C565.771 514.481 564.331 517.791 562.911 521.201C561.491 524.611 560.152 527.961 558.892 531.241C554.522 529.361 550.142 527.481 545.772 525.601C548.622 518.991 551.472 512.381 554.332 505.771C555.752 506.351 557.172 506.941 558.612 507.541C561.542 508.761 564.411 510.011 567.221 511.281Z" fill="#DF4603"/>
<path d="M580.971 595.371C570.041 595.971 569.332 595.451 569.122 586.991C568.972 581.081 569.091 575.161 569.091 569.391C577.271 568.641 580.151 570.381 580.841 577.041C581.451 582.901 580.971 588.871 580.971 595.371Z" fill="#163558"/>
<path d="M587.312 577.521C592.762 575.181 596.192 576.631 597.172 580.661C598.382 585.631 598.762 590.941 598.482 596.051C598.402 597.471 594.692 599.831 592.762 599.711C590.862 599.591 587.752 597.051 587.552 595.301C586.902 589.511 587.312 583.601 587.312 577.521Z" fill="#163558"/>
<path d="M469.031 182.211C468.571 186.241 468.171 190.421 467.841 194.731C467.511 199.051 467.262 203.251 467.102 207.321C465.212 206.381 462.782 204.921 460.372 202.651C456.342 198.871 454.332 194.721 453.362 192.221C458.582 188.881 463.811 185.551 469.031 182.211Z" fill="#F4AA35"/>
<path d="M467.012 491.131C475.012 493.221 483.002 495.311 491.002 497.411C488.162 499.071 484.692 500.821 480.632 502.371C475.932 504.161 471.631 505.211 468.031 505.851C465.601 504.791 463.172 503.721 460.742 502.661C462.832 498.811 464.922 494.971 467.012 491.131Z" fill="#DF4603"/>
<path d="M562.942 588.941C556.702 591.171 553.062 588.861 552.022 584.881C551.012 581.011 551.722 576.491 552.602 572.461C552.832 571.401 556.692 570.211 558.492 570.661C560.242 571.101 562.512 573.421 562.742 575.161C563.342 579.631 562.942 584.241 562.942 588.941Z" fill="#163558"/>
<path d="M613.852 601.701C610.442 601.701 607.562 601.701 604.512 601.701C601.802 595.631 603.632 590.481 606.062 585.411C616.852 584.161 618.202 586.821 613.852 601.701Z" fill="#163558"/>
<path d="M387.192 298.041C388.072 298.301 388.942 298.571 389.822 298.831C388.922 298.591 388.032 298.341 387.132 298.101C387.142 298.101 387.192 298.041 387.192 298.041Z" fill="#163558"/>
<path d="M439.142 360.081C439.292 359.801 439.442 359.511 439.602 359.231C439.452 359.521 439.301 359.801 439.161 360.091C439.151 360.091 439.142 360.081 439.142 360.081Z" fill="#163558"/>
<path d="M238.872 123.701C239.302 123.301 239.732 122.901 240.162 122.501C240.072 123.251 239.982 124.001 239.902 124.761C239.562 124.401 239.212 124.051 238.872 123.701Z" fill="#F4AA35"/>
<path d="M71.2215 522.121C71.0615 522.401 70.9115 522.681 70.7515 522.961C70.9115 522.681 71.0715 522.411 71.2315 522.131L71.2215 522.121Z" fill="#031E35"/>
<path d="M429.012 174.721C425.602 181.621 420.761 186.971 414.591 190.931C405.171 196.991 397.742 194.561 392.972 184.261C392.142 182.461 391.502 180.571 390.442 177.881C383.732 177.881 376.662 177.881 368.352 177.881C372.652 169.801 377.482 165.231 385.882 165.831C387.532 165.951 389.232 165.791 390.832 166.141C403.382 168.911 415.902 171.761 429.012 174.721Z" fill="#031E35"/>
<path d="M303.222 316.031C304.092 316.301 304.962 316.561 305.842 316.831C304.952 316.591 304.052 316.351 303.162 316.111C303.152 316.111 303.222 316.031 303.222 316.031Z" fill="#031E35"/>
<path d="M244.022 433.291C244.132 433.371 244.812 433.881 244.842 434.691C244.852 434.941 244.802 435.151 244.742 435.311C244.732 435.331 244.702 435.351 244.672 435.381C244.562 435.471 244.462 435.491 244.242 435.571C244.112 435.621 244.122 435.621 244.052 435.641C244.052 435.641 243.762 435.741 243.452 435.771C242.892 435.821 242.242 435.561 242.182 435.541C242.802 434.791 243.412 434.041 244.022 433.291Z" fill="#031E35"/>
<path d="M691.932 573.351C683.232 569.851 675.661 566.801 667.911 563.681C679.101 549.271 687.272 547.091 700.042 555.221C697.572 560.761 695.052 566.391 691.932 573.351Z" fill="#031E35"/>
<path d="M468.531 629.931C467.991 632.331 466.911 635.791 464.661 639.491C462.641 642.811 460.362 645.171 458.622 646.721C436.072 640.061 413.532 633.401 390.982 626.751C392.522 623.951 394.382 620.921 396.622 617.781C398.442 615.221 400.271 612.931 402.031 610.901C424.191 617.231 446.361 623.581 468.531 629.931Z" fill="#DF4603"/>
<path d="M962.432 553.482C918.482 553.482 883.592 540.202 857.742 513.632C831.892 487.062 818.972 449.712 818.972 401.572C818.972 355.132 831.922 318.112 857.832 290.492C883.742 262.882 918.662 249.072 962.612 249.072C974.282 249.072 984.782 249.732 994.092 251.042C1003.4 252.352 1012.32 254.192 1020.85 256.552C1027.54 258.522 1034.82 261.212 1042.69 264.622C1050.56 268.032 1056.92 270.982 1061.78 273.472V343.332H1054.3C1050.76 340.182 1046.3 336.412 1040.92 332.022C1035.54 327.632 1029.44 323.332 1022.62 319.132C1015.8 314.932 1008.29 311.362 1000.09 308.412C991.892 305.462 983.332 303.982 974.412 303.982C963.782 303.982 954.042 305.652 945.192 309.002C936.332 312.342 927.902 318.152 919.902 326.412C912.552 333.892 906.552 343.992 901.902 356.712C897.242 369.442 894.912 384.462 894.912 401.772C894.912 420.012 897.342 435.322 902.192 447.722C907.042 460.122 913.412 470.122 921.282 477.732C928.892 485.082 937.382 490.392 946.762 493.672C956.142 496.952 965.482 498.592 974.802 498.592C984.512 498.592 993.762 496.992 1002.55 493.772C1011.34 490.562 1018.75 486.982 1024.79 483.052C1031.35 478.992 1037.12 474.852 1042.11 470.652C1047.09 466.452 1051.42 462.712 1055.1 459.432H1061.79V528.302C1056.41 530.792 1050.18 533.652 1043.1 536.862C1036.02 540.082 1028.74 542.802 1021.26 545.032C1012.08 547.782 1003.48 549.882 995.482 551.332C987.492 552.762 976.472 553.482 962.432 553.482Z" fill="white"/>
<path d="M1195.61 553.092C1173.18 553.092 1153.47 550.922 1136.48 546.602C1119.49 542.272 1103.72 536.892 1089.16 530.462V460.802H1095.85C1110.54 473.262 1126.74 482.842 1144.45 489.532C1162.16 496.222 1179.34 499.572 1196.01 499.572C1200.21 499.572 1205.75 499.112 1212.64 498.192C1219.53 497.272 1225.07 495.832 1229.27 493.862C1234.39 491.632 1238.72 488.522 1242.26 484.512C1245.8 480.512 1247.57 475.232 1247.57 468.672C1247.57 461.332 1244.68 455.362 1238.91 450.762C1233.14 446.172 1226.25 442.822 1218.25 440.722C1208.28 438.102 1197.62 435.602 1186.27 433.242C1174.92 430.882 1164.33 427.992 1154.49 424.582C1131.79 416.582 1115.53 405.822 1105.69 392.312C1095.85 378.802 1090.93 361.882 1090.93 341.542C1090.93 314.122 1102.54 291.922 1125.76 274.932C1148.98 257.942 1177.97 249.452 1212.74 249.452C1230.19 249.452 1247.54 251.222 1264.79 254.762C1282.04 258.302 1297.49 263.092 1311.13 269.122V336.022H1304.64C1293.75 326.712 1280.47 318.842 1264.79 312.412C1249.11 305.982 1233.01 302.772 1216.48 302.772C1210.05 302.772 1204.28 303.232 1199.16 304.152C1194.04 305.072 1188.66 306.842 1183.02 309.462C1178.43 311.562 1174.46 314.672 1171.11 318.812C1167.77 322.942 1166.09 327.572 1166.09 332.682C1166.09 340.162 1168.75 346.092 1174.06 350.492C1179.37 354.892 1189.64 358.852 1204.86 362.402C1214.7 364.632 1224.17 366.802 1233.29 368.892C1242.41 370.992 1252.15 373.882 1262.51 377.552C1282.84 384.902 1297.96 394.772 1307.87 407.162C1317.77 419.562 1322.73 435.922 1322.73 456.262C1322.73 485.382 1311.28 508.802 1288.39 526.512C1265.5 544.232 1234.57 553.092 1195.61 553.092Z" fill="white"/>
<path d="M1482.12 445.852H1351.66V391.152H1482.12V445.852Z" fill="white"/>
<path d="M1624.59 553.092C1602.16 553.092 1582.45 550.922 1565.46 546.602C1548.47 542.272 1532.7 536.892 1518.14 530.462V460.802H1524.83C1539.52 473.262 1555.72 482.842 1573.43 489.532C1591.14 496.222 1608.32 499.572 1624.99 499.572C1629.19 499.572 1634.73 499.112 1641.62 498.192C1648.51 497.272 1654.05 495.832 1658.25 493.862C1663.37 491.632 1667.7 488.522 1671.24 484.512C1674.78 480.512 1676.55 475.232 1676.55 468.672C1676.55 461.332 1673.66 455.362 1667.89 450.762C1662.12 446.172 1655.23 442.822 1647.23 440.722C1637.26 438.102 1626.6 435.602 1615.25 433.242C1603.9 430.882 1593.31 427.992 1583.47 424.582C1560.77 416.582 1544.51 405.822 1534.67 392.312C1524.83 378.802 1519.91 361.882 1519.91 341.542C1519.91 314.122 1531.52 291.922 1554.74 274.932C1577.96 257.942 1606.95 249.452 1641.72 249.452C1659.17 249.452 1676.52 251.222 1693.77 254.762C1711.02 258.302 1726.47 263.092 1740.11 269.122V336.022H1733.62C1722.73 326.712 1709.45 318.842 1693.77 312.412C1678.09 305.982 1661.99 302.772 1645.46 302.772C1639.03 302.772 1633.26 303.232 1628.14 304.152C1623.02 305.072 1617.64 306.842 1612 309.462C1607.41 311.562 1603.44 314.672 1600.09 318.812C1596.75 322.942 1595.07 327.572 1595.07 332.682C1595.07 340.162 1597.73 346.092 1603.04 350.492C1608.35 354.892 1618.62 358.852 1633.84 362.402C1643.68 364.632 1653.15 366.802 1662.27 368.892C1671.39 370.992 1681.13 373.882 1691.49 377.552C1711.82 384.902 1726.94 394.772 1736.85 407.162C1746.75 419.562 1751.71 435.922 1751.71 456.262C1751.71 485.382 1740.26 508.802 1717.37 526.512C1694.47 544.232 1663.55 553.092 1624.59 553.092Z" fill="white"/>
<path d="M2046.08 547.782H1957.14L1877.25 428.732L1862.89 448.802V547.782H1789.3V254.782H1862.89V384.852L1956.56 254.782H2041.76L1937.27 390.752L2046.08 547.782Z" fill="white"/>
<path d="M2058.09 547.782V496.622H2100.2V305.942H2058.09V254.782H2215.91V305.942H2173.8V496.622H2215.91V547.782H2058.09Z" fill="white"/>
<path d="M2515.79 547.782H2444.95L2332 343.532V547.782H2264.7V254.782H2355.02L2448.49 422.632V254.772H2515.79V547.782Z" fill="white"/>
<path d="M2665.74 553.092C2643.31 553.092 2623.6 550.922 2606.61 546.602C2589.62 542.272 2573.85 536.892 2559.29 530.462V460.802H2565.98C2580.67 473.262 2596.87 482.842 2614.58 489.532C2632.29 496.222 2649.47 499.572 2666.14 499.572C2670.34 499.572 2675.88 499.112 2682.77 498.192C2689.66 497.272 2695.2 495.832 2699.4 493.862C2704.52 491.632 2708.85 488.522 2712.39 484.512C2715.93 480.512 2717.7 475.232 2717.7 468.672C2717.7 461.332 2714.81 455.362 2709.04 450.762C2703.27 446.172 2696.38 442.822 2688.38 440.722C2678.41 438.102 2667.75 435.602 2656.4 433.242C2645.05 430.882 2634.46 427.992 2624.62 424.582C2601.92 416.582 2585.66 405.822 2575.82 392.312C2565.98 378.802 2561.06 361.882 2561.06 341.542C2561.06 314.122 2572.67 291.922 2595.89 274.932C2619.11 257.942 2648.1 249.452 2682.87 249.452C2700.32 249.452 2717.66 251.222 2734.92 254.762C2752.17 258.302 2767.62 263.092 2781.26 269.122V336.022H2774.77C2763.88 326.712 2750.6 318.842 2734.92 312.412C2719.24 305.982 2703.14 302.772 2686.61 302.772C2680.18 302.772 2674.41 303.232 2669.29 304.152C2664.17 305.072 2658.79 306.842 2653.15 309.462C2648.56 311.562 2644.59 314.672 2641.24 318.812C2637.9 322.942 2636.22 327.572 2636.22 332.682C2636.22 340.162 2638.88 346.092 2644.19 350.492C2649.5 354.892 2659.77 358.852 2674.99 362.402C2684.83 364.632 2694.3 366.802 2703.42 368.892C2712.54 370.992 2722.28 373.882 2732.64 377.552C2752.97 384.902 2768.09 394.772 2778 407.162C2787.9 419.562 2792.86 435.922 2792.86 456.262C2792.86 485.382 2781.41 508.802 2758.52 526.512C2735.62 544.232 2704.7 553.092 2665.74 553.092Z" fill="white"/>
<path d="M2897.94 547.782H2828.28V470.452H2897.94V547.782Z" fill="#FFAB07"/>
<path d="M602.731 575.732C580.321 566.412 540.931 549.252 538.181 548.102C538.161 548.092 536.191 547.262 536.191 547.262C536.191 547.262 537.871 543.522 538.001 543.242C538.871 541.302 540.491 537.652 543.781 530.072L544.261 528.982C544.431 529.052 544.791 529.202 544.961 529.282C566.781 538.502 582.741 545.982 587.421 548.162C597.801 552.992 614.121 560.342 639.951 571.242C637.281 576.642 634.601 582.052 631.921 587.452C619.631 582.692 609.621 578.602 602.731 575.732Z" fill="black"/>
<path d="M356.911 456.352C361.851 449.292 366.801 442.242 371.741 435.182C368.961 433.682 366.181 432.172 363.411 430.672C358.831 438.032 354.241 445.402 349.661 452.772C352.071 453.962 354.491 455.152 356.911 456.352Z" fill="black"/>
<path d="M380.221 502.251C380.311 502.281 382.041 502.901 382.041 502.901L381.871 502.651C380.481 500.601 379.531 498.791 379.531 498.791C379.061 498.081 378.741 497.281 378.081 495.691C377.561 494.431 377.241 493.441 377.061 492.891C376.831 492.191 376.711 491.741 376.661 491.571C376.441 490.751 376.311 490.121 376.221 489.691C375.351 485.361 375.221 484.181 375.221 482.721C375.201 482.221 375.191 481.721 375.171 481.221C375.141 479.831 375.131 478.461 375.141 477.131C372.541 476.641 370.591 476.941 369.431 477.241C368.561 477.461 368.241 477.651 368.051 477.941C367.211 479.231 369.281 481.871 370.341 483.391C375.461 490.691 377.671 501.321 380.221 502.251Z" fill="black"/>
<path d="M292.051 565.111C290.301 564.941 288.811 566.041 286.111 568.021C283.081 570.241 280.601 572.061 280.641 573.951C280.731 579.161 299.871 583.941 302.601 581.241C303.081 580.761 302.831 580.261 298.631 573.141C295.531 567.911 293.951 565.291 292.051 565.111Z" fill="black"/>
</svg>
