<svg xmlns="http://www.w3.org/2000/svg" viewBox="0 0 805.36 773.28"><defs><style>.cls-1{fill:#031e35;}.cls-2{fill:#f4aa35;}.cls-3{fill:#163558;}.cls-4{fill:#df4603;}.cls-5{fill:#fff;}</style></defs><g id="Слой_2" data-name="Слой 2"><g id="_07_02_надпись_справа_Изображение" data-name="07 02 надпись справа Изображение"><path class="cls-1" d="M688.21,642.12c-13.43,12.76-25.49,25.23-38.59,36.48-60,51.53-129.23,83.1-207.86,91.79-135,14.91-249.31-27.9-342.3-126.72-14.52-15.43-26.92-33-39.07-50.49C22.64,538.94,5.51,477.47,1,412.45c-7.4-107,25.92-200.91,96.11-281.45C157.12,62.14,233.23,21.49,323,5.73A379.45,379.45,0,0,1,407.37.46c191.69,9.43,336.36,146.12,369,314,18.16,93.52,3,182.19-44.29,265.13-1.64,2.87-3.3,5.73-5.38,9.32,2.53,1.29,4.68,2.55,7,3.52,18.37,7.82,36.76,15.55,55.12,23.38a56.22,56.22,0,0,1,8.91,4.47c6.56,4.31,9.54,11,6.58,18.14A345.34,345.34,0,0,1,789,669.61c-2.86,5.3-8.47,6.22-14,5.33a54.06,54.06,0,0,1-10.43-3.33Q726.39,656.93,688.21,642.12Zm-222.08-138c1.49.64,2.95,1.23,4.36,1.76L485.13,514l10.31-18.77-25-11.94c-1.41,3.19-2.44,5.51-3.46,7.83L465,497l-2.52,5.43C463.64,503,464.86,503.53,466.13,504.08Zm-79-206,2.69.73-2.64-.79a95.09,95.09,0,0,0-8-5.84c-16.67-9.86-32.26-20.88-43.86-36.86-5.32-7.34-6.24-7.06-14.14-.53a17.24,17.24,0,0,0,1.44,3.43c7.29,10.45,16.7,18.93,26.71,26.53C360.36,293.14,372.77,298.68,387.12,298.11ZM391,468.37c18.36,9.12,36.71,18.26,55.13,27.25.81.4,2.28-.56,3.44-.89l10-17-55.79-26.25-14.17-6.92-17.41-8.41c-2.91,4.16-5.26,7.7-7.8,11.11-4,5.41-4.05,6.86,1.3,9.51C374.08,460.85,382.61,464.52,391,468.37ZM567.2,511.29a30.75,30.75,0,0,1-12.11,2.81c-2.24,0-3.5-.2-4.2.58-1.39,1.55.25,6.22,7.69,16.43q25.83,12.25,52.37,24.41,14.58,6.66,29,13.14l10.2-19.89-37.76-16.63ZM439.12,360.09c-4.44,1.19-9,2-13.31,3.63-11.84,4.45-24.07,7.65-36.61,8.16-18.83.77-37.7.75-56.34-3.37-7.53-1.66-15.31-2.22-24.38-3.47,1.58,5.45,3,9.75,4.06,14.13,1.89,7.75,7.35,10.71,14.63,10.88,9.3.21,18.6.08,27.9.05,10.3,0,20.72.88,30.86-.45,13.59-1.77,26.95-2.36,40.44.21,1.8.34,3.79-.27,5.15-.4,2.67-10.28,5.14-19.82,7.62-29.36l.44-.86C439.43,359.52,439.28,359.81,439.12,360.09Zm-197,75.46-45.44-13.92c-3.78,6.62-6.91,12.47-10.39,18.09-3.63,5.84-7.61,11.46-12.43,18.67,4.44-.54,7-.68,9.45-1.18,11.71-2.38,23.42-4.76,35.08-7.36,4.54-1,8.11-1,11.35,3.33,1.45,1.93,5,2.86,7.75,3.1,9.6.81,19.32.52,28.83,1.8s15.9-2.14,20.44-10.13c-9.19-7.09-61-30.95-68.38-31L244,433.3Zm61-119.43c-9.48-2.11-16.29-8.58-23.38-14.51a42.88,42.88,0,0,0-12-7.45c18.08,38.68,66.61,64.37,94.41,58.59-8.9-9.54-14.58-20.62-19.41-32.28-1.14-2.75-4.07-5.17-6.75-6.8C311,298.44,287.82,281.21,272.29,255c-4.16,5-3.66,9.76-1.23,15a126.39,126.39,0,0,0,24,35.16c3.14,3.2,5.43,7.23,8.11,10.89ZM266.89,423.59c13,8.67,27.68,13.52,42.54,20l17.94-28.09c-10.92-5.18-20.72-9.93-30.62-14.5-11.09-5.12-22.25-10.07-33.38-15.09-11.86-5.91-23.68-11.89-35.6-17.69-8.58-4.17-17.29-8.09-25.9-12.1a16.7,16.7,0,0,0-2.33,2.77c-9.78,21.1-19.87,42.07-29.09,63.41-3.79,8.75-5.76,18.3-8.4,27.53-.8,2.82-.23,5.29,3.91,5.93,17.73-23,27.26-51.07,45.25-76.18.35,3.64.95,5.53.62,7.24-1.53,8,2.41,12,9.36,15.18,12.38,5.66,24.33,12.25,36.54,18.29C260.62,421.7,263.83,422.5,266.89,423.59Zm-28-299.88c-3,1.34-6.12,2.47-9,4.06-28.21,15.81-52.26,36.79-73.38,61-35.81,41-57.7,89.07-68.7,142.13-4.57,22-5.38,44.45-4,68.91,2.34-3.87,3.74-6,5-8.22,6.22-11.39,12.47-22.76,18.57-34.21a106.76,106.76,0,0,1,39.13-41.77c8.5-5.18,17.47-9.58,26.16-14.46,2.83-1.6,6.47-3,8-5.52,7.15-12.1,18.86-16.22,31.37-19.19,8.4-2,16.83-3.86,25.27-5.68,5.11-1.11,7.46-3.89,8.72-9.28A182.12,182.12,0,0,1,255,234.13c4.37-10.64.23-20.42-11-23.78-15-4.5-19.89-12.93-17.85-28.53,2.55-19.55,7.73-38.39,13.76-57.06.09-.75.17-1.5.26-2.25ZM71.21,522.13h0c1.56-2.41,2.62-5.46,4.75-7.13,12.35-9.63,25.49-18,40.49-23,2.65-.89,5.07-2.46,9.57-4.7-8.24-1.9-14.26-3.13-20.19-4.69S93.42,484,86.55,479.47c3.39-2.45,5.71-5,8.59-6.07,19-7.15,37.75-1.86,57.9,3-2.69-4.15-3.94-7.47-6.31-9.49-7-6-6.76-13.4-4.34-20.95,4.25-13.29,8.29-26.73,13.82-39.5,5.36-12.37,8.58-24.24,2.53-37.11a11.56,11.56,0,0,1-1.34-4.75c0-2.08.75-4.15,1.37-7.16l14.13,8.24c1.29-2.12,2-3.22,2.64-4.37,4.92-8.94,8.14-19,17.63-24.87,1.14-.69,1.17-4.14.76-6.12-.38-1.81-2-3.41-3.15-5-4.05-5.6-5.6-6.31-11.56-3.15-9.68,5.14-19.52,10.17-28.5,16.38-8.37,5.8-16.62,12.06-21.6,21.62-10.31,19.76-21,39.31-31.5,59-7.19,13.51-13.88,27.31-21.52,40.57a292.73,292.73,0,0,0-27.91,64.89c-3.82,13.19-4.59,26.76-.92,40.32,3.92,14.5,17.35,25,29.82,22.83a391.06,391.06,0,0,0,74.72-20.43c7.92-3.09,14.52-3.71,21.76.81l20.28-18.84c1.07,5.34,1.76,8.76,2.68,13.39,10.17-2.26,19.77-4.4,29.37-6.52,4.57-1,5.14-4.3,5.36-8.31.39-7.26.57-14.63,2.08-21.69,1.65-7.74,4.73-15.16,7.13-22.74,1.58-5,.12-9.11-3.35-8.55-7.66,1.23-16,.48-21.86,7.72a101.81,101.81,0,0,1-13.32,13.51c-4.57,3.88-8.64,9-15.79,9.71-3-11.67,8.29-16.77,11.61-26.68-3.51-1-6.53-2.63-9.4-2.41-8.56.67-17,2.27-25.58,3.17a279.08,279.08,0,0,0-62,13.83C91.14,517.1,81.09,519.37,71.21,522.13ZM655,527.91c23.48-37.81,35.19-78.28,37.79-121.45,1.77-29.37-.43-58.53-7.74-87.12-23.89-93.34-79-161.24-165.9-203-3.45-1.65-7.13-2.81-11.52-4.52,2.52,8.74,5,16.21,6.81,23.85,3,12.82-.67,23.85-10.85,32.19-3.42,2.81-7.91,4.31-11.69,6.29-2.36,14.92-4.19,29.78-7.17,44.41-3.05,14.92-7.24,29.6-11.08,45,2.56,1.33,5.44,2.9,8.38,4.32,10.17,4.93,20.4,9.74,30.54,14.72,13.78,6.78,21.82,17.14,20.43,33.29a8.31,8.31,0,0,0,.68,2.71c8.22,5.39,16.42,10.47,24.3,16,15.34,10.75,26.51,24.35,33.19,42.43,17.27,46.78,34.55,93.5,44.8,142.6ZM176.7,589.29c112.52,108.83,297.17,108.75,405,18.57-6.55-.51-12-1.35-17.49-1.24-6.57.13-10.61-2.62-13.2-8.5a174.6,174.6,0,0,0-8.05-16.07,18.21,18.21,0,0,0-5.77-6.52c-5.93-3.59-12.24-6.56-18.88-10-2.07,3.38-3.84,6.15-5.49,9-8.86,15.26-17.85,30.46-26.45,45.87-3.16,5.67-7.07,8-13.69,7.31-26.16-2.63-52.33-5.3-78.56-7-10-.66-11.66-7-6.77-13.92,7.33-10.31,14.1-21,21-31.62,1.36-2.08,2.32-4.42,3.95-7.6-8.16-1.45-15.47-2.08-22.35-4.15-7.81-2.34-13.22,0-18.57,5.55-9.7,10.07-20.17,19.41-29.74,29.6-6,6.4-11.55,8.09-20.17,4.66-24.1-9.61-48.57-18.31-73-27.08-3.9-1.4-8.64-2.55-12.51-1.67C216.54,578.87,197.32,584,176.7,589.29Zm290-499.92c0-2.33.48-4.37-.07-6.08a52.21,52.21,0,0,0-15.51-23.94c-17-14.53-37.61-21.27-59.33-23.06-20.13-1.67-40.33-.55-60.18,5C292,52.51,268.47,78.58,258.92,118c-1.77,7.32-.74,7.95,6.61,6.18,22.52-5.43,45-11.13,68.49-10.15,4.36.18,7.28-1.8,10.63-4.3a77.52,77.52,0,0,1,16.93-9.94c14.82-6,30.48-8.24,46.35-10.21C427.17,87.24,446.21,87.82,466.72,89.37ZM345.28,523c7.39-2,12.41.95,17.48,3.06,12,5,22.88,12,33.18,20,5.91,4.56,9.58,5,12,1.9s1.43-6.88-4-11.9a216,216,0,0,0-60.69-39.38c-8.56-3.77-18.48-5.3-27.9-5.94-7.05-.47-14.3,2.14-21.47,3.33-8.81,1.45-17.65,2.67-26.42,4.32-5.71,1.07-10.6,3.18-12.21,9.95-2.78,11.67-4.95,23.3-4.18,35.4,1,15.17,13.34,25,28.08,21.35,9.75-2.42,17.73.26,24.61,6.9,3.07,3,5.56,6.56,8.17,10,4.9,6.41,11,7.84,18.65,5,.4-10.87-8.52-18.2-11.15-28.29,6.12-.49,9.37,2.27,12.48,5.29,2.87,2.77,5.43,6,8.62,8.29,1.5,1.11,4.13.67,6.25.93.24-2.06,1.4-4.67.56-6.09-3.54-5.95-7.64-11.58-11.59-17.28-2.3-3.31-5.27-6.28-6.13-12.16,4.64,2.08,8.2,3.06,11,5.09,6.43,4.61,12.59,9.61,18.66,14.7,2.93,2.46,5.53,3.59,8.72.71s4.29-6.13,1.9-9.74c-1.62-2.46-4-4.44-6.09-6.58C357.91,535.73,351.91,529.69,345.28,523Zm267.23-17.22c0-2,.28-3.36,0-4.52-4.65-16.92-8.88-34-14.2-50.68-7.36-23.07-16.12-45.71-23.21-68.85-5.26-17.2-16.77-28.11-31.64-36.48-2.16-1.22-4.7-1.75-8-3-.79,16.87-1.51,32.7-2.28,48.52-.21,4.3-.1,8.68-1,12.86a46.94,46.94,0,0,0,2.4,27.95c5.07-14,2.12-28.37,8.76-40.71,2.61,5,4.84,9.94,5.62,15.06,2.38,15.66,4.1,31.41,6.28,47.1.61,4.39,1.93,8.68,3.1,13.76l15.14-7.36c-.5,8.75-.45,15.64-1.41,22.38-1.1,7.74-1.5,7.69,6.05,10.89,9.47,4,18.91,8.08,28.43,12C608.15,505.38,610.08,505.36,612.51,505.76ZM369.65,219.56c4.38,4.4,8.52,8.58,12.7,12.73a36.87,36.87,0,0,1,10.44,17.79c2.26,9.56-.32,13.43-9.86,15.68-2.07.48-4.21.67-6.45,1a10.49,10.49,0,0,0,1,2.42,11.94,11.94,0,0,0,2.19,2c12.81,9.23,26.48,16,42.59,17.76,10.12,1.1,15.59-.43,21-8.9A129.77,129.77,0,0,0,462,231.21c1.94-11.75-1.42-17.11-13.46-17-8.87.09-18,.68-26.53,2.77-16.6,4-33,6.55-49.72,1.36C371.84,218.21,371.2,218.81,369.65,219.56Zm127.83-77.62,2.26-1.56c-1.36-4.6-2.8-9.19-4.06-13.81-2.91-10.67-9.91-17.37-20.5-19.52-11-2.23-22.12-4.38-33.26-4.8a216.1,216.1,0,0,0-36.65,2,210.58,210.58,0,0,0-33.79,7.53c-12.78,3.92-20.78,21.33-16.3,34.16,2.12-.36,4.36-.62,6.54-1.12C390.8,138.14,420,133,450.08,133.9,466.3,134.39,482.55,133.61,497.48,141.94Zm-147.25,25c-1.14,18.42,9.08,31.79,26.53,37,24.22,7.27,46.1-2.07,68.65-8.6-1.21-7.7-6.47-14.22-4.73-22.78,11.46-.37,23.42,1.21,32.89-8.24-4.26-6.68-10.61-7.88-17.33-8.42-20.95-1.71-41.81-.31-62.51,2.75C379,160.84,364.52,164.17,350.23,166.92ZM283.53,376c.49-.5,1-1,1.48-1.51-1.35-3.21-2.58-6.47-4.07-9.61-1.71-3.6-3.81-7-5.45-10.65-8.09-17.87-15.93-35.85-24.17-53.65-4-8.76-6.51-9.94-15.56-8.17q-13.15,2.58-26.15,6c-4.46,1.16-8.81,3-10.24,8.95,13,11.31,20.61,26.57,29.18,41.18a19,19,0,0,0,7.91,6.95c11.68,5.62,23.58,10.76,35.44,16C275.7,373.11,279.65,374.47,283.53,376Zm187.08,8.13c13.42-.86,24.16,5.51,36.52,3V365.35q0-26,0-52c0-8.29-2.48-14.67-11.08-18s-16.91-7.74-25.44-11.45c-1.59-.69-3.64-.33-5.48-.45-.09,2.11-.93,4.55-.17,6.29,5.95,13.56,7.53,28.13,9.63,42.48,1,7.1.07,14.56-.53,21.82C473.24,363.54,471.91,373,470.61,384.11ZM329.72,136.53c-4.87-6.32-9-9.11-15-8.05-14.27,2.54-28.6,4.8-42.75,7.88-9,2-18.72,4.26-22.83,14-5.34,12.59-8.91,25.61-2.08,40.22,16.16-3.28,31.25-8.13,41.74-22,5-6.6,9.61-13.46,14.21-20.34,4.19-6.26,10.17-9.19,17.38-10.16C322.92,137.71,325.37,137.24,329.72,136.53ZM442.13,536.38l-13.85,26.08,60.64,26.61,13.24-24.33Zm64.67-82.45c.84-11.69,1.9-21.89,2.22-32.1.33-10.8-2-13.39-12.48-15.48-8.75-1.74-17.63-2.9-26.3-5-5.14-1.22-8.05.61-10.34,3.78,3.26,4.67,7.54,8.34,8.39,12.69.93,4.74-1.33,10.11-2.28,15.72Zm-66.16,54.83-65.52-31.61c.89,14.23,3.33,25.46,16,31.56a37.15,37.15,0,0,1,8.91,6.38c8.11,7.54,18.65,9.55,29.11,14ZM379.07,428c52,24.8,103.4,49.33,154.85,73.77.6.29,1.72-.53,2.5-.79.08-.58.25-1.16.16-1.2-38.41-19.39-76.84-38.74-116.11-58.51.69-5,1.38-10.24,2.12-15.43,1.33-9.32-2.52-16.64-10.39-19.26-3.75-1.26-7.08-1.15-7.73,4.15a23.37,23.37,0,0,0,2.86,1.56c10.35,3.78,13.42,15.24,6.31,23.63-3.13,3.7-5.85,3.79-9,.06a33,33,0,0,1-3.07-5.1C397.11,423,388.41,421.5,379.07,428ZM696.68,579.78c5.45-12.23,10.58-23.71,15.68-35.2,1.5-3.38,1.45-7-1.68-9-2.55-1.61-6-2.2-9.12-2.38-1.73-.09-3.68,1.39-5.34,2.46-10.89,7-21.78,14.09-32.54,21.33-2.23,1.5-3.91,3.81-6.69,6.59Zm-275-5.7L404,605.73c10.62,4.09,20.4,4.67,30.53,6.17,4.21-8.91,8.25-17.47,12.55-26.55ZM759.9,637c5.11-7.94,4.16-11.4,3.28-12.87-1.3-2.19-3.69-2.08-15.54-6.94-1.64-.68-1-.43-4-1.7-1.89-.79-7.39-3.05-15.63-6.3-6.07-2.4-12.19-4.66-18.87-7.19l-6.49,11.23Zm-246.9-93-59.77-28.37L448.61,525,508,553.36c1.56-2.7,2.41-4.09,3.18-5.53C511.74,546.74,512.21,545.59,513,543.93Zm132.14,45,19.77,8.2,24.17,10q3.07-5.61,6.17-11.22-10.56-4.49-21.51-8.93-11.61-4.69-22.93-9ZM483,601.73l-24.67-11.16-11.4,23.67c5.6.92,9.79,1.54,14,2.3,16.24,2.94,13.19,5.22,21.76-11.74C482.88,604.27,482.77,603.55,483,601.73Zm37.47-71.34,9.74-18.67-23.48-11.19-10.34,18.58Zm-118-180.81c22.79,1.17,53.84-19.19,46.18-40.21-8.59,5.67-13,15.07-20.74,20.94C419.71,336.5,411.54,342.67,402.42,349.58Zm-54.06,75.74L335,419.26l-17.93,28.52,13.82,7.07ZM319.08,181.79c-11.93,9.59-15.21,30.24-8.34,45.73l12.94,2.65C312.47,213.77,315,197.92,319.08,181.79ZM581,595.38c0-6.5.48-12.47-.13-18.33-.69-6.66-3.57-8.4-11.75-7.65,0,5.78-.12,11.69,0,17.6C569.31,595.47,570,596,581,595.38Zm6.34-17.85c0,6.08-.41,12,.25,17.77.2,1.75,3.31,4.3,5.21,4.41s5.64-2.23,5.72-3.65a53.78,53.78,0,0,0-1.32-15.39C596.17,576.64,592.74,575.19,587.29,577.53ZM562.93,589c0-4.7.4-9.31-.21-13.78-.23-1.74-2.5-4.06-4.25-4.5s-5.65.74-5.88,1.8c-.88,4-1.59,8.55-.58,12.42S556.69,591.18,562.93,589Zm50.9,12.76c4.36-14.88,3-17.54-7.79-16.29-2.43,5.07-4.26,10.22-1.55,16.29Z"/><path class="cls-2" d="M655,527.91l-19-8.32c-10.25-49.1-27.53-95.82-44.8-142.6-6.68-18.08-17.85-31.68-33.19-42.43-7.88-5.52-16.08-10.6-24.3-16a8.31,8.31,0,0,1-.68-2.71c1.39-16.15-6.65-26.51-20.43-33.29-10.14-5-20.37-9.79-30.54-14.72-2.94-1.42-5.82-3-8.38-4.32,3.84-15.42,8-30.1,11.08-45,3-14.63,4.81-29.49,7.17-44.41,3.78-2,8.27-3.48,11.69-6.29,10.18-8.34,13.82-19.37,10.85-32.19-1.76-7.64-4.29-15.11-6.81-23.85,4.39,1.71,8.07,2.87,11.52,4.52C606,158.1,661.13,226,685,319.34c7.31,28.59,9.51,57.75,7.74,87.12C690.16,449.63,678.45,490.1,655,527.91Z"/><path class="cls-2" d="M176.7,589.29c20.62-5.26,39.84-10.42,59.22-14.88,3.87-.88,8.61.27,12.51,1.67,24.44,8.77,48.91,17.47,73,27.08,8.62,3.43,14.17,1.74,20.17-4.66,9.57-10.19,20-19.53,29.74-29.6,5.35-5.55,10.76-7.89,18.57-5.55,6.88,2.07,14.19,2.7,22.35,4.15-1.63,3.18-2.59,5.52-3.95,7.6-6.91,10.6-13.68,21.31-21,31.62-4.89,6.87-3.23,13.26,6.77,13.92,26.23,1.72,52.4,4.39,78.56,7,6.62.67,10.53-1.64,13.69-7.31,8.6-15.41,17.59-30.61,26.45-45.87,1.65-2.83,3.42-5.6,5.49-9,6.64,3.47,13,6.44,18.88,10a18.21,18.21,0,0,1,5.77,6.52A174.6,174.6,0,0,1,551,598.12c2.59,5.88,6.63,8.63,13.2,8.5,5.46-.11,10.94.73,17.49,1.24C473.87,698,289.22,698.12,176.7,589.29Z"/><path class="cls-3" d="M71.21,522.13c9.88-2.76,19.93-5,29.6-8.38a279.08,279.08,0,0,1,62-13.83c8.54-.9,17-2.5,25.58-3.17,2.87-.22,5.89,1.46,9.4,2.41-3.32,9.91-14.62,15-11.61,26.68,7.15-.74,11.22-5.83,15.79-9.71a101.81,101.81,0,0,0,13.32-13.51c5.83-7.24,14.2-6.49,21.86-7.72,3.47-.56,4.93,3.55,3.35,8.55-2.4,7.58-5.48,15-7.13,22.74-1.51,7.06-1.69,14.43-2.08,21.69-.22,4-.79,7.31-5.36,8.31-9.6,2.12-19.2,4.26-29.37,6.52-.92-4.63-1.61-8.05-2.68-13.39l-20.28,18.84c-7.24-4.52-13.84-3.9-21.76-.81a391.06,391.06,0,0,1-74.72,20.43C64.62,590,51.19,579.45,47.27,565c-3.67-13.56-2.9-27.13.92-40.32A292.73,292.73,0,0,1,76.1,459.74c7.64-13.26,14.33-27.06,21.52-40.57,10.48-19.67,21.19-39.22,31.5-59,5-9.56,13.23-15.82,21.6-21.62,9-6.21,18.82-11.24,28.5-16.38,6-3.16,7.51-2.45,11.56,3.15,1.17,1.61,2.77,3.21,3.15,5,.41,2,.38,5.43-.76,6.12-9.49,5.85-12.71,15.93-17.63,24.87-.63,1.15-1.35,2.25-2.64,4.37l-14.13-8.24c-.62,3-1.34,5.08-1.37,7.16a11.56,11.56,0,0,0,1.34,4.75c6,12.87,2.83,24.74-2.53,37.11-5.53,12.77-9.57,26.21-13.82,39.5-2.42,7.55-2.7,14.95,4.34,20.95,2.37,2,3.62,5.34,6.31,9.49-20.15-4.9-38.87-10.19-57.9-3-2.88,1.08-5.2,3.62-8.59,6.07,6.87,4.51,13.42,1.61,19.29,3.15s12,2.79,20.19,4.69c-4.5,2.24-6.92,3.81-9.57,4.7-15,5-28.14,13.37-40.49,23-2.13,1.67-3.19,4.72-4.75,7.13l-.48.83C70.89,522.69,71.05,522.41,71.21,522.13Z"/><path class="cls-2" d="M239.88,124.76c-6,18.67-11.21,37.51-13.76,57.06-2,15.6,2.89,24,17.85,28.53,11.21,3.36,15.35,13.14,11,23.78A182.12,182.12,0,0,0,246,261.48c-1.26,5.39-3.61,8.17-8.72,9.28-8.44,1.82-16.87,3.69-25.27,5.68-12.51,3-24.22,7.09-31.37,19.19-1.5,2.53-5.14,3.92-8,5.52C164,306,155,310.43,146.51,315.61a106.76,106.76,0,0,0-39.13,41.77c-6.1,11.45-12.35,22.82-18.57,34.21-1.22,2.22-2.62,4.35-5,8.22-1.42-24.46-.61-46.87,4-68.91,11-53.06,32.89-101.09,68.7-142.13,21.12-24.21,45.17-45.19,73.38-61,2.85-1.59,6-2.72,9-4.06Z"/><path class="cls-3" d="M466.72,89.37c-20.51-1.55-39.55-2.13-58.79.25-15.87,2-31.53,4.22-46.35,10.21a77.52,77.52,0,0,0-16.93,9.94c-3.35,2.5-6.27,4.48-10.63,4.3-23.46-1-46,4.72-68.49,10.15-7.35,1.77-8.38,1.14-6.61-6.18,9.55-39.46,33-65.53,72.71-76.71,19.85-5.59,40.05-6.71,60.18-5,21.72,1.79,42.32,8.53,59.33,23.06a52.21,52.21,0,0,1,15.51,23.94C467.2,85,466.72,87,466.72,89.37Z"/><path class="cls-3" d="M345.28,523c6.63,6.71,12.63,12.75,18.59,18.82,2.1,2.14,4.47,4.12,6.09,6.58,2.39,3.61,1.17,7-1.9,9.74s-5.79,1.75-8.72-.71c-6.07-5.09-12.23-10.09-18.66-14.7-2.82-2-6.38-3-11-5.09.86,5.88,3.83,8.85,6.13,12.16,3.95,5.7,8,11.33,11.59,17.28.84,1.42-.32,4-.56,6.09-2.12-.26-4.75.18-6.25-.93-3.19-2.34-5.75-5.52-8.62-8.29-3.11-3-6.36-5.78-12.48-5.29,2.63,10.09,11.55,17.42,11.15,28.29-7.64,2.85-13.75,1.42-18.65-5-2.61-3.42-5.1-7-8.17-10-6.88-6.64-14.86-9.32-24.61-6.9-14.74,3.66-27.12-6.18-28.08-21.35-.77-12.1,1.4-23.73,4.18-35.4,1.61-6.77,6.5-8.88,12.21-9.95,8.77-1.65,17.61-2.87,26.42-4.32,7.17-1.19,14.42-3.8,21.47-3.33,9.42.64,19.34,2.17,27.9,5.94A216,216,0,0,1,404,536c5.4,5,6.35,8.8,4,11.9s-6.1,2.66-12-1.9c-10.3-7.95-21.16-15-33.18-20C357.69,523.93,352.67,521,345.28,523Z"/><path class="cls-3" d="M612.51,505.76c-2.43-.4-4.36-.38-6-1.05-9.52-3.9-19-8-28.43-12-7.55-3.2-7.15-3.15-6.05-10.89,1-6.74.91-13.63,1.41-22.38l-15.14,7.36c-1.17-5.08-2.49-9.37-3.1-13.76-2.18-15.69-3.9-31.44-6.28-47.1-.78-5.12-3-10-5.62-15.06-6.64,12.34-3.69,26.73-8.76,40.71a46.94,46.94,0,0,1-2.4-27.95c.86-4.18.75-8.56,1-12.86.77-15.82,1.49-31.65,2.28-48.52,3.34,1.2,5.88,1.73,8,3,14.87,8.37,26.38,19.28,31.64,36.48,7.09,23.14,15.85,45.78,23.21,68.85,5.32,16.7,9.55,33.76,14.2,50.68C612.79,502.4,612.51,503.72,612.51,505.76Z"/><path class="cls-3" d="M369.65,219.56c1.55-.75,2.19-1.35,2.6-1.22C389,223.53,405.37,221,422,217c8.57-2.09,17.66-2.68,26.53-2.77,12-.11,15.4,5.25,13.46,17a129.77,129.77,0,0,1-18.77,48.86c-5.37,8.47-10.84,10-21,8.9-16.11-1.75-29.78-8.53-42.59-17.76a11.94,11.94,0,0,1-2.19-2,10.49,10.49,0,0,1-1-2.42c2.24-.35,4.38-.54,6.45-1,9.54-2.25,12.12-6.12,9.86-15.68a36.87,36.87,0,0,0-10.44-17.79C378.17,228.14,374,224,369.65,219.56Z"/><path class="cls-3" d="M497.48,141.94c-14.93-8.33-31.18-7.55-47.4-8-30.06-.9-59.28,4.24-88.36,10.91-2.18.5-4.42.76-6.54,1.12-4.48-12.83,3.52-30.24,16.3-34.16a210.58,210.58,0,0,1,33.79-7.53,216.1,216.1,0,0,1,36.65-2c11.14.42,22.29,2.57,33.26,4.8,10.59,2.15,17.59,8.85,20.5,19.52,1.26,4.62,2.7,9.21,4.06,13.81Z"/><path class="cls-4" d="M266.89,423.59c-3.06-1.09-6.27-1.89-9.16-3.33-12.21-6-24.16-12.63-36.54-18.29-6.95-3.18-10.89-7.14-9.36-15.18.33-1.71-.27-3.6-.62-7.24-18,25.11-27.52,53.22-45.25,76.18-4.14-.64-4.71-3.11-3.91-5.93,2.64-9.23,4.61-18.78,8.4-27.53,9.22-21.34,19.31-42.31,29.09-63.41a16.7,16.7,0,0,1,2.33-2.77c8.61,4,17.32,7.93,25.9,12.1,11.92,5.8,23.74,11.78,35.6,17.69Q265.13,404.74,266.89,423.59Z"/><path class="cls-2" d="M350.23,166.92c14.29-2.75,28.81-6.08,43.5-8.25,20.7-3.06,41.56-4.46,62.51-2.75,6.72.54,13.07,1.74,17.33,8.42-9.47,9.45-21.43,7.87-32.89,8.24-1.74,8.56,3.52,15.08,4.73,22.78-22.55,6.53-44.43,15.87-68.65,8.6C359.31,198.71,349.09,185.34,350.23,166.92ZM429,174.73c-13.11-3-25.63-5.81-38.17-8.57a33.84,33.84,0,0,0-4.95-.31c-8.4-.6-13.23,4-17.53,12.05h22.09c1.06,2.69,1.69,4.58,2.53,6.37,4.76,10.3,12.19,12.73,21.61,6.67A39.88,39.88,0,0,0,429,174.73Z"/><path class="cls-3" d="M283.53,376c-3.88-1.51-7.83-2.87-11.63-4.55-11.86-5.22-23.76-10.36-35.44-16a19,19,0,0,1-7.91-6.95c-8.57-14.61-16.13-29.87-29.18-41.18,1.43-5.92,5.78-7.79,10.24-8.95q13-3.4,26.15-6c9.05-1.77,11.51-.59,15.56,8.17,8.24,17.8,16.08,35.78,24.17,53.65,1.64,3.63,3.74,7.05,5.45,10.65,1.49,3.14,2.72,6.4,4.07,9.61C284.51,375,284,375.48,283.53,376Z"/><path class="cls-3" d="M470.61,384.11c1.3-11.16,2.63-20.57,3.42-30,.6-7.26,1.57-14.72.53-21.82-2.1-14.35-3.68-28.92-9.63-42.48-.76-1.74.08-4.18.17-6.29,1.84.12,3.89-.24,5.48.45,8.53,3.71,16.78,8.1,25.44,11.45s11.09,9.69,11.08,18q0,26,0,52v21.77C494.77,389.62,484,383.25,470.61,384.11Z"/><path class="cls-3" d="M303.2,316.05c-2.68-3.66-5-7.69-8.11-10.89a126.39,126.39,0,0,1-24-35.16c-2.43-5.2-2.93-10,1.23-15,15.53,26.17,38.7,43.4,63.75,58.63,2.68,1.63,5.61,4.05,6.75,6.8,4.83,11.66,10.51,22.74,19.41,32.28-27.8,5.78-76.33-19.91-94.41-58.59a42.88,42.88,0,0,1,12,7.45c7.09,5.93,13.9,12.4,23.38,14.51l2.68.72Z"/><path class="cls-5" d="M244,433.3c-.49-.36-11.1-7.15-25.59-16.38,7.4.08,59.19,23.94,68.38,31-4.54,8-10.89,11.42-20.44,10.13s-19.23-1-28.83-1.8c-2.71-.24-6.3-1.17-7.75-3.1-3.24-4.3-6.81-4.34-11.35-3.33-11.66,2.6-23.37,5-35.08,7.36-2.47.5-5,.64-9.45,1.18,4.82-7.21,8.8-12.83,12.43-18.67,3.48-5.62,6.61-11.47,10.39-18.09l45.44,13.92a2.89,2.89,0,0,0,1.53.18,2.68,2.68,0,0,0,.85-.3,1.17,1.17,0,0,0,.15-.22,1.25,1.25,0,0,0,.13-.64,1.47,1.47,0,0,0-.27-.69A2.36,2.36,0,0,0,244,433.3Z"/><path class="cls-3" d="M329.72,136.53c-4.35.71-6.8,1.18-9.28,1.51-7.21,1-13.19,3.9-17.38,10.16-4.6,6.88-9.23,13.74-14.21,20.34-10.49,13.88-25.58,18.73-41.74,22-6.83-14.61-3.26-27.63,2.08-40.22,4.11-9.71,13.79-12,22.83-14,14.15-3.08,28.48-5.34,42.75-7.88C320.71,127.42,324.85,130.21,329.72,136.53Z"/><path class="cls-3" d="M439.14,360.1c-2.48,9.54-4.95,19.08-7.62,29.36-1.36.13-3.35.74-5.15.4-13.49-2.57-26.85-2-40.44-.21-10.14,1.33-20.56.41-30.86.45-9.3,0-18.6.16-27.9-.05-7.28-.17-12.74-3.13-14.63-10.88-1.06-4.38-2.48-8.68-4.06-14.13,9.07,1.25,16.85,1.81,24.38,3.47,18.64,4.12,37.51,4.14,56.34,3.37,12.54-.51,24.77-3.71,36.61-8.16,4.29-1.61,8.87-2.44,13.31-3.63Z"/><path class="cls-5" d="M266.89,423.59q-1.77-18.85-3.52-37.71c11.13,5,22.29,10,33.38,15.09,9.9,4.57,19.7,9.32,30.62,14.5l-17.94,28.09C294.57,437.11,279.88,432.26,266.89,423.59Z"/><path class="cls-5" d="M442.13,536.38l60,28.36-13.24,24.33-60.64-26.61Z"/><path class="cls-3" d="M506.8,453.93,466,433.57c.95-5.61,3.21-11,2.28-15.72-.85-4.35-5.13-8-8.39-12.69,2.29-3.17,5.2-5,10.34-3.78,8.67,2.07,17.55,3.23,26.3,5,10.51,2.09,12.81,4.68,12.48,15.48C508.7,432,507.64,442.24,506.8,453.93Z"/><path class="cls-5" d="M440.64,508.76l-11.49,20.32c-10.46-4.44-21-6.45-29.11-14a37.15,37.15,0,0,0-8.91-6.38c-12.68-6.1-15.12-17.33-16-31.56Z"/><path class="cls-5" d="M379.07,428c9.34-6.47,18-5,22.51,2.88a33,33,0,0,0,3.07,5.1c3.14,3.73,5.86,3.64,9-.06,7.11-8.39,4-19.85-6.31-23.63a23.37,23.37,0,0,1-2.86-1.56c.65-5.3,4-5.41,7.73-4.15,7.87,2.62,11.72,9.94,10.39,19.26-.74,5.19-1.43,10.39-2.12,15.43,39.27,19.77,77.7,39.12,116.11,58.51.09,0-.08.62-.16,1.2-.78.26-1.9,1.08-2.5.79C482.47,477.3,431.07,452.77,379.07,428Z"/><path class="cls-5" d="M610.74,555.42c-8.47-4.09-16.22-7.76-23.11-11-7.2-3.37-16-7.42-26-11.93l-3.08-1.38,8.61-19.83,45.22,20.85Z"/><path class="cls-5" d="M696.68,579.78,657,563.58c2.78-2.78,4.46-5.09,6.69-6.59,10.76-7.24,21.65-14.29,32.54-21.33,1.66-1.07,3.61-2.55,5.34-2.46,3.11.18,6.57.77,9.12,2.38,3.13,2,3.18,5.62,1.68,9C707.26,556.07,702.13,567.55,696.68,579.78Zm-4.76-6.42L700,555.23c-12.77-8.12-20.94-6-32.13,8.46Z"/><path class="cls-4" d="M421.72,574.08l25.36,11.27c-4.3,9.08-8.34,17.64-12.55,26.55-10.13-1.5-19.91-2.08-30.53-6.17Z"/><path class="cls-4" d="M610.74,555.42l1.68-23.28,18.45,8.13,19.31,8.5-9.48,20.89Z"/><path class="cls-4" d="M449.61,494.73c-1.16.33-2.63,1.29-3.44.89-18.42-9-36.77-18.13-55.13-27.25-1.07-4-2-8.11-3.24-12.07-1.39-4.32-1-8.2,1.89-11.76l14.16,6.92c-1,11.08-1.12,11.24,8.36,16.1,9.07,4.66,18.18,9.33,27.57,13.25C446.34,483.55,450.05,487.45,449.61,494.73Z"/><path class="cls-5" d="M759.9,637l-57.3-23.77L709.09,602c7.42,2.75,13.78,5.19,18.87,7.19,3.13,1.22,12,4.7,17.1,6.9.36.16,1.56.68,3.21,1.35,2.39,1,4,1.67,6.06,2.39a81.36,81.36,0,0,1,8.11,2.94c1.42.64,1.6.8,1.73.94C766.57,626.35,761.69,634.21,759.9,637Z"/><path class="cls-5" d="M513,543.93c-.79,1.66-1.26,2.81-1.85,3.9-.77,1.44-1.62,2.83-3.18,5.53L448.61,525l4.62-9.39Z"/><path class="cls-3" d="M387.12,298.11c-14.35.57-26.76-5-37.77-13.33-10-7.6-19.42-16.08-26.71-26.53a17.24,17.24,0,0,1-1.44-3.43c7.9-6.53,8.82-6.81,14.14.53,11.6,16,27.19,27,43.86,36.86a95.09,95.09,0,0,1,8,5.84Z"/><path class="cls-5" d="M449.61,494.73c.44-7.28-3.27-11.18-9.83-13.92-9.39-3.92-18.5-8.59-27.57-13.25-9.48-4.86-9.4-5-8.36-16.1l55.8,26.25Z"/><path class="cls-5" d="M645.14,588.94q2.6-5.91,5.2-11.81,11.61,5,23.4,9.89,10.8,4.53,21.51,8.93l-5.66,11.43Z"/><path class="cls-4" d="M483,601.73c-.19,1.82-.08,2.54-.35,3.07-8.57,17-5.52,14.68-21.76,11.74-4.17-.76-8.36-1.38-14-2.3l11.4-23.67Z"/><path class="cls-5" d="M520.43,530.39l-24.08-11.28,10.34-18.58,23.48,11.19Z"/><path class="cls-5" d="M389.69,444.54c-2.85,3.56-3.28,7.44-1.89,11.76,1.27,4,2.17,8,3.24,12.07-8.43-3.85-17-7.52-25.26-11.62-5.35-2.65-5.31-4.1-1.3-9.51,2.54-3.41,4.89-6.95,7.8-11.11Z"/><path class="cls-3" d="M402.42,349.58c9.12-6.91,17.29-13.08,25.44-19.27,7.71-5.87,12.15-15.27,20.74-20.94C456.26,330.39,425.21,350.75,402.42,349.58Z"/><path class="cls-5" d="M348.36,425.32l-17.43,29.53-13.82-7.07L335,419.26Z"/><path class="cls-3" d="M319.08,181.79c-4,16.13-6.61,32,4.6,48.38l-12.94-2.65C303.87,212,307.15,191.38,319.08,181.79Z"/><path class="cls-5" d="M467,491.14c1-2.32,2.05-4.64,3.46-7.83l25,11.94L485.13,514l-14.64-8.18,20.26-6.93c-.09-.53-.17-1.07-.26-1.6Z"/><path class="cls-4" d="M567.2,511.29q-2.16,4.8-4.3,9.91t-4,10c-1.85-.75-3.53-1.48-5-2.14-3.56-1.6-4.86-2.35-5.78-3.87a5.67,5.67,0,0,1-.73-1.72c-.55-2.44.85-4.36,3.53-8.83,3.05-5.07,2.77-5.15,3.48-5.63C558.52,506.2,565.78,510.43,567.2,511.29Z"/><path class="cls-3" d="M581,595.38c-10.93.6-11.64.09-11.85-8.38-.15-5.91,0-11.82,0-17.6,8.18-.75,11.06,1,11.75,7.65C581.43,582.91,581,588.88,581,595.38Z"/><path class="cls-3" d="M587.29,577.53c5.45-2.34,8.88-.89,9.86,3.14a53.78,53.78,0,0,1,1.32,15.39c-.08,1.42-3.8,3.77-5.72,3.65s-5-2.66-5.21-4.41C586.88,589.52,587.29,583.61,587.29,577.53Z"/><path class="cls-2" d="M469,182.22h0q-.69,6.06-1.2,12.52t-.74,12.59a27.91,27.91,0,0,1-6.73-4.67,28.41,28.41,0,0,1-7-10.43Z"/><path class="cls-4" d="M467,491.14l23.49,6.17c.09.53.17,1.07.26,1.6l-20.26,6.93-4.36-1.76c-.52-.19-1.32-.47-2.32-.78s-1.23-.33-1.37-.54c-.37-.6.34-1.5,1.7-4.1.38-.73.67-1.32.85-1.68Z"/><path class="cls-3" d="M562.93,589c-6.24,2.23-9.88-.07-10.92-4.06s-.3-8.39.58-12.42c.23-1.06,4.08-2.25,5.88-1.8s4,2.76,4.25,4.5C563.33,579.64,562.93,584.25,562.93,589Z"/><path class="cls-3" d="M613.83,601.71h-9.34c-2.71-6.07-.88-11.22,1.55-16.29C616.83,584.17,618.19,586.83,613.83,601.71Z"/><path class="cls-3" d="M387.17,298.05l2.64.79-2.69-.73Z"/><path class="cls-3" d="M439.12,360.09c.16-.28.31-.57.46-.85l-.44.86Z"/><path class="cls-2" d="M238.86,123.71l1.28-1.2c-.09.75-.17,1.5-.26,2.25Z"/><path class="cls-1" d="M71.21,522.13c-.16.28-.32.56-.47.84l.48-.83Z"/><path class="cls-1" d="M429,174.73a39.88,39.88,0,0,1-14.42,16.21c-9.42,6.06-16.85,3.63-21.61-6.67-.84-1.79-1.47-3.68-2.53-6.37H368.34c4.3-8.08,9.13-12.65,17.53-12.05a33.84,33.84,0,0,1,4.95.31C403.36,168.92,415.88,171.77,429,174.73Z"/><path class="cls-1" d="M303.2,316.05l2.62.79-2.68-.72Z"/><path class="cls-1" d="M244,433.3a1.93,1.93,0,0,1,.82,1.4,1.55,1.55,0,0,1-.1.62.29.29,0,0,1-.08.07,1.18,1.18,0,0,1-.42.19l-.2.07a3,3,0,0,1-.6.13,3.28,3.28,0,0,1-1.27-.23Z"/><path class="cls-1" d="M691.92,573.36l-24-9.67c11.19-14.41,19.36-16.58,32.13-8.46Z"/><path d="M602.33,576.35l-65.86-27.62a1.17,1.17,0,0,1-.53-1.56l7.12-16.59a1.17,1.17,0,0,1,1.5-.69c12.08,5.19,24.79,9.87,41.87,17.72,6.42,2.95,12.32,6.4,24.69,12.13,11.92,5.52,21.86,9.56,28.43,12.11l-8,16.21Z"/><path d="M356.51,457l14.83-21.17L363,431.28l-13.75,22.1Z"/><path d="M377.9,501.13c1.27-.58-2-5.53-3.49-19.25-.28-2.48-.53-5.58-2.32-6.26s-4.2,1-5.31,2.72C362.42,485.24,375.5,502.22,377.9,501.13Z"/><path d="M291.65,565.72c-1.75-.17-3.25.93-5.94,2.91-3,2.22-5.51,4-5.48,5.93.09,5.21,19.24,10,22,7.29.48-.48.23-1-4-8.1C295.13,568.52,293.55,565.9,291.65,565.72Z"/></g></g></svg>