<?xml version="1.0" encoding="utf-8"?>
<!-- Generator: Adobe Illustrator 26.5.0, SVG Export Plug-In . SVG Version: 6.00 Build 0)  -->
<svg version="1.1"
	 id="_x30_7_02_надпись_справа_xA0_Изображение_00000155832474977758505880000005907633143478699435_"
	 xmlns="http://www.w3.org/2000/svg" xmlns:xlink="http://www.w3.org/1999/xlink" x="0px" y="0px" viewBox="0 0 4503 1024"
	 style="enable-background:new 0 0 4503 1024;" xml:space="preserve">
<style type="text/css">
	.st0{fill:#031E35;}
	.st1{fill:#FFAB07;}
	.st2{fill:#F4AA35;}
	.st3{fill:#163558;}
	.st4{fill:#DF4603;}
	.st5{fill:#FFFFFF;}
	.st6{fill:none;}
</style>
<g>
	<path class="st0" d="M815.71,729.13c-10.94,11.93-26.98,28.2-48.07,45.54c-21.97,18.06-62.42,50.85-123.3,72.49
		c-26.87,9.55-55.06,16.03-84.57,19.3c-134.96,14.92-249.3-27.9-342.3-126.72c-14.52-15.43-26.92-33.03-39.07-50.49
		c-37.74-54.23-54.88-115.71-59.38-180.73c-7.4-107.04,25.92-200.91,96.11-281.46c60-68.85,136.11-109.5,225.83-125.26
		c27.97-4.91,56.19-6.66,84.42-5.27c191.69,9.43,336.36,146.12,368.96,313.95c18.17,93.53,3.01,182.19-44.29,265.13
		c-1.64,2.87-3.3,5.73-5.38,9.33c1.24,0.64,3.76,1.93,6.95,3.52c0,0,27.59,13.67,57.17,24.42c0,0-0.81,1.55-1,1.92
		c-7.09,13.58-12,22.75-12,22.75c-2.68,5-6.33,11.74-10.83,19.83c-14.69-6.05-29.44-12.09-44.27-18.11
		C832.37,735.85,824.03,732.48,815.71,729.13z M584.15,600.14c1.5,0.65,2.95,1.23,4.36,1.76c5.25,2.06,10.5,4.11,15.74,6.17
		c3.07-5.59,6.14-11.17,9.21-16.76c-8.18-3.59-16.37-7.18-24.55-10.77c-1.25,1.69-2.67,3.9-3.89,6.65
		c-0.95,2.14-1.59,4.13-2.01,5.84c-0.84,1.81-1.68,3.63-2.51,5.44C581.67,599.03,582.88,599.59,584.15,600.14z M505.15,394.17
		c0.9,0.24,1.79,0.49,2.69,0.73c-0.88-0.26-1.76-0.53-2.63-0.79c-2.65-1.96-5.15-4.18-7.97-5.85
		c-16.67-9.86-32.26-20.87-43.86-36.86c-5.32-7.33-6.24-7.06-14.14-0.53c0.44,1.08,0.73,2.4,1.44,3.42
		c7.29,10.46,16.7,18.94,26.71,26.53C478.39,389.19,490.79,394.74,505.15,394.17z M509.06,564.43
		c12.28,6.05,52.78,24.89,54.19,26.57c0,0,0.01,0.02,0.04,0.04c0.13,0.13,0.27,0.07,0.47,0.13c0.22,0.07,0.23,0.21,0.36,0.19
		c0.11-0.01,0.13-0.12,0.28-0.18c0.13-0.05,0.24-0.03,0.33-0.01c0.48,0.09,0.64,0.5,0.94,0.48c0.23-0.01,0.27-0.29,0.56-0.51
		c0.29-0.22,0.73-0.39,1.41-0.36c3.35-5.67,6.69-11.34,10.04-17.02c-19.3-9.08-37.55-17.67-55.79-26.25
		c-4.72-2.31-9.44-4.62-14.17-6.92c-5.6-2.7-11.21-5.41-17.41-8.4c-1.62,10.61-3.85,13.44-5.72,13.86
		c-0.49,0.11-1.85,0.25-2.14,1.06c-0.13,0.36-0.13,1.07,1.6,2.81c1.34,1.35,3.1,2.93,8.09,5.22
		C498.48,558.02,496.49,558.23,509.06,564.43z M685.23,607.35c-4.82,1.03-8.91,2.01-12.11,2.81c-2.13,0.53-2.93,0.76-3.47,1.49
		c-2.53,3.38,4.47,12.43,6.96,15.52c8.2,3.57,17.65,7.72,27.58,12.16c6.19,2.77,9.33,4.21,13.51,6.34c5.2,2.66,6.84,3.96,11.27,5.9
		c4.61,2.02,7.23,2.62,11.69,4.05c4.38,1.41,10.68,3.66,18.29,7.23c3.08-6.01,6.16-12.02,9.25-18.03
		c-12.59-5.54-25.17-11.08-37.76-16.62C715.38,621.25,700.3,614.3,685.23,607.35z M557.15,456.15c-4.45,1.19-9.03,2.02-13.31,3.63
		c-11.84,4.44-24.07,7.65-36.61,8.16c-18.83,0.76-37.7,0.74-56.34-3.37c-7.53-1.66-15.31-2.22-24.39-3.47
		c1.58,5.46,3,9.75,4.06,14.13c1.89,7.76,7.35,10.71,14.63,10.88c9.3,0.22,18.6,0.09,27.9,0.05c10.3-0.04,20.72,0.88,30.85-0.44
		c13.6-1.78,26.96-2.37,40.45,0.2c1.8,0.34,3.79-0.27,5.15-0.39c2.67-10.29,5.14-19.82,7.62-29.36c0.15-0.29,0.3-0.57,0.44-0.86
		C557.46,455.58,557.3,455.86,557.15,456.15z M360.19,531.61c-15.11-4.63-30.21-9.25-45.44-13.92c-3.79,6.62-6.91,12.47-10.4,18.08
		c-3.63,5.84-7.6,11.47-12.42,18.67c4.44-0.54,6.98-0.68,9.45-1.18c11.71-2.38,23.42-4.76,35.08-7.36
		c4.54-1.01,8.12-0.97,11.36,3.33c1.45,1.92,5.04,2.86,7.75,3.09c9.6,0.82,19.31,0.53,28.83,1.81c9.55,1.29,15.89-2.14,20.43-10.13
		c-9.19-7.09-60.97-30.95-68.38-31.04c9.05,5.8,17.32,11.09,25.59,16.38C361.42,530.11,360.81,530.86,360.19,531.61z M421.16,412.18
		c-9.48-2.11-16.29-8.58-23.37-14.51c-3.4-2.85-6.84-5.36-11.97-7.45c18.07,38.68,66.61,64.37,94.4,58.59
		c-8.9-9.53-14.58-20.62-19.41-32.28c-1.14-2.75-4.06-5.17-6.74-6.8c-25.05-15.23-48.22-32.46-63.75-58.63
		c-4.16,4.98-3.67,9.77-1.23,14.96c6.12,13.04,13.92,24.84,24.03,35.17c3.14,3.2,5.43,7.23,8.11,10.88L421.16,412.18z
		 M384.92,519.65c12.99,8.67,27.69,13.52,42.54,19.97c6.15-9.63,11.91-18.64,17.95-28.1c-10.92-5.18-20.73-9.93-30.62-14.5
		c-11.09-5.12-22.25-10.07-33.38-15.09c-11.86-5.9-23.68-11.89-35.59-17.68c-8.58-4.17-17.29-8.09-25.91-12.11
		c0.58,0.85,1.35,2.16,1.84,3.88c2.42,8.55-5.03,16.96-11.25,25.17c-3.2,4.22-9.47,15.19-22.01,37.14c0,0-1.09,1.96-8.39,27.53
		c-0.81,2.82-0.24,5.29,3.91,5.93c17.73-22.97,27.25-51.07,45.24-76.18c0.35,3.64,0.95,5.53,0.62,7.24
		c-1.53,8.04,2.41,12,9.36,15.18c12.38,5.66,24.33,12.25,36.53,18.29C378.65,517.75,381.85,518.56,384.92,519.65z M356.88,219.77
		c-2.99,1.34-6.11,2.47-8.96,4.07c-28.21,15.8-52.26,36.78-73.39,61c-35.8,41.04-57.7,89.07-68.7,142.13
		c-4.57,22.04-5.38,44.45-3.96,68.91c2.34-3.87,3.74-6,4.96-8.22c6.22-11.39,12.47-22.76,18.57-34.21
		c9.3-17.45,22.28-31.5,39.13-41.77c8.5-5.18,17.47-9.58,26.16-14.46c2.83-1.59,6.47-2.98,7.97-5.52
		c7.15-12.1,18.86-16.22,31.37-19.19c8.4-1.99,16.83-3.86,25.27-5.68c5.11-1.11,7.46-3.88,8.72-9.28
		c2.19-9.31,5.31-18.49,8.95-27.35c4.37-10.63,0.23-20.41-10.98-23.78c-14.96-4.5-19.89-12.92-17.85-28.53
		c2.55-19.54,7.73-38.39,13.76-57.06c0.09-0.75,0.18-1.5,0.27-2.25C357.74,218.96,357.31,219.36,356.88,219.77z M189.23,618.19
		c0,0,0.01,0.01,0.01,0.01c1.56-2.41,2.62-5.46,4.76-7.13c12.35-9.63,25.48-17.97,40.49-23.01c2.65-0.89,5.07-2.46,9.57-4.7
		c-8.24-1.9-14.25-3.13-20.18-4.69c-5.87-1.54-12.43,1.36-19.29-3.15c3.39-2.45,5.71-4.99,8.58-6.06
		c19.04-7.15,37.76-1.86,57.91,3.03c-2.69-4.15-3.95-7.47-6.31-9.48c-7.05-6.01-6.76-13.4-4.35-20.95
		c4.26-13.29,8.3-26.73,13.83-39.5c5.35-12.36,8.57-24.24,2.53-37.11c-0.7-1.48-1.36-3.17-1.34-4.75c0.03-2.08,0.75-4.15,1.37-7.15
		c5.31,3.09,9.63,5.61,14.14,8.23c1.28-2.12,2-3.22,2.63-4.37c4.93-8.94,8.14-19.02,17.64-24.86c1.13-0.7,1.16-4.15,0.75-6.12
		c-0.38-1.82-1.98-3.41-3.15-5.02c-4.05-5.6-5.6-6.31-11.56-3.14c-9.68,5.13-19.51,10.16-28.5,16.38
		c-8.37,5.79-16.62,12.05-21.6,21.61c-10.31,19.76-21.01,39.31-31.49,58.99c-7.2,13.51-13.88,27.31-21.52,40.56
		c-11.86,20.57-21.32,42.14-27.91,64.89c-3.82,13.2-4.59,26.76-0.92,40.32c3.92,14.5,17.35,25.03,29.82,22.84
		c25.53-4.49,50.6-11.01,74.72-20.43c7.91-3.09,14.51-3.71,21.76,0.81c6.61-6.14,12.99-12.06,20.28-18.84
		c1.07,5.34,1.76,8.76,2.69,13.39c10.17-2.26,19.77-4.4,29.37-6.52c4.57-1.01,5.14-4.31,5.36-8.31c0.39-7.26,0.57-14.63,2.08-21.7
		c1.65-7.73,4.73-15.16,7.13-22.74c1.58-4.99,0.12-9.11-3.35-8.55c-7.66,1.24-16.03,0.49-21.86,7.73
		c-3.95,4.91-8.52,9.42-13.33,13.5c-4.57,3.89-8.64,8.98-15.78,9.72c-3.01-11.67,8.29-16.77,11.6-26.68
		c-3.51-0.96-6.53-2.63-9.4-2.41c-8.55,0.67-17.03,2.26-25.57,3.17c-21.19,2.25-41.81,6.86-61.97,13.83
		C209.16,613.16,199.11,615.43,189.23,618.19z M772.99,623.97c23.49-37.81,35.19-78.28,37.79-121.45
		c1.77-29.37-0.43-58.53-7.74-87.12c-23.89-93.34-78.98-161.24-165.9-203.05c-3.44-1.66-7.12-2.81-11.52-4.52
		c2.53,8.74,5.05,16.21,6.82,23.85c2.96,12.82-0.67,23.85-10.85,32.19c-3.42,2.81-7.92,4.31-11.69,6.29
		c-2.36,14.91-4.19,29.78-7.18,44.4c-3.05,14.92-7.23,29.6-11.08,45.02c2.57,1.33,5.44,2.89,8.39,4.32
		c10.17,4.93,20.4,9.73,30.54,14.72c13.77,6.78,21.81,17.14,20.43,33.29c-0.08,0.92,0.46,1.88,0.68,2.7
		c8.22,5.39,16.42,10.47,24.3,16c15.34,10.74,26.51,24.35,33.18,42.43c17.27,46.78,34.56,93.5,44.81,142.6
		C760.2,618.37,766.24,621.01,772.99,623.97z M294.73,685.35c112.52,108.83,297.17,108.75,404.96,18.57
		c-6.55-0.5-12.03-1.35-17.49-1.24c-6.56,0.13-10.61-2.62-13.2-8.5c-2.41-5.48-5.09-10.87-8.05-16.07
		c-1.42-2.49-3.39-5.07-5.77-6.52c-5.93-3.59-12.24-6.56-18.88-10.03c-2.07,3.38-3.84,6.14-5.49,8.98
		c-5.57,9.59-9.78,16.86-14.13,24.41c-9.15,15.87-8.23,14.13-12.32,21.46c-16.5,29.59-18.53,38.49-27.52,41.09
		c-5.66,1.63-10.34-0.32-17-2.78c-44.74-16.53-68.68-13.38-71-25.44c-0.1-0.54,0.15-2.6,0.61-6.72c1.13-10.03,1.7-15.05,4.06-18.33
		c3.66-5.11,7.4-1.47,13.17-6.61c2.06-1.84,5.09-8.19,11.06-20.83c0.84-1.79,1.84-3.92,3.83-6.33c2.96-3.59,6.35-5.68,8.74-6.88
		c-8.16-1.45-15.47-2.08-22.35-4.14c-7.81-2.34-13.22,0-18.56,5.55c-9.71,10.07-20.17,19.41-29.74,29.6
		c-6.01,6.39-11.55,8.09-20.17,4.65c-24.1-9.61-48.58-18.31-73.01-27.07c-3.91-1.4-8.65-2.55-12.51-1.67
		C334.57,674.92,315.34,680.09,294.73,685.35z M584.75,185.43c0-2.33,0.48-4.37-0.08-6.08c-3.03-9.33-8.1-17.62-15.5-23.94
		c-17.01-14.53-37.61-21.27-59.34-23.06c-20.13-1.67-40.32-0.55-60.18,5.05c-39.67,11.18-63.16,37.25-72.71,76.71
		c-1.77,7.32-0.74,7.95,6.61,6.18c22.52-5.43,45.03-11.13,68.49-10.15c4.37,0.18,7.29-1.8,10.63-4.3c5.22-3.9,10.91-7.5,16.93-9.93
		c14.82-6,30.49-8.25,46.35-10.21C545.2,183.29,564.24,183.87,584.75,185.43z M463.31,619.04c7.39-2.01,12.41,0.95,17.48,3.06
		c12.02,5.02,22.88,12.04,33.17,19.98c5.91,4.57,9.58,5.05,12.01,1.9c2.39-3.1,1.43-6.88-3.97-11.9
		c-17.92-16.66-38.44-29.6-60.69-39.38c-8.56-3.76-18.47-5.3-27.9-5.93c-7.05-0.48-14.3,2.14-21.47,3.32
		c-8.8,1.45-17.65,2.67-26.42,4.32c-5.71,1.07-10.6,3.18-12.21,9.95c-2.78,11.67-4.95,23.3-4.18,35.4
		c0.96,15.17,13.34,25.01,28.08,21.35c9.75-2.42,17.74,0.26,24.61,6.9c3.07,2.97,5.56,6.56,8.17,9.98
		c4.9,6.41,11.01,7.83,18.65,4.99c0.4-10.87-8.52-18.2-11.15-28.29c6.12-0.49,9.37,2.27,12.48,5.28c2.87,2.78,5.43,5.95,8.61,8.29
		c1.5,1.1,4.14,0.66,6.26,0.92c0.24-2.06,1.4-4.66,0.55-6.08c-3.53-5.96-7.63-11.58-11.59-17.29c-2.3-3.31-5.27-6.28-6.13-12.16
		c4.63,2.09,8.2,3.07,11.02,5.09c6.43,4.61,12.59,9.61,18.65,14.7c2.93,2.46,5.54,3.6,8.72,0.71c3.08-2.79,4.29-6.13,1.91-9.74
		c-1.63-2.46-3.99-4.44-6.09-6.57C475.93,631.79,469.94,625.74,463.31,619.04z M730.54,601.82c0-2.04,0.28-3.37-0.04-4.53
		c-4.65-16.92-8.88-33.97-14.21-50.68c-7.36-23.07-16.12-45.7-23.2-68.85c-5.26-17.2-16.77-28.11-31.64-36.48
		c-2.16-1.22-4.71-1.75-8.04-2.94c-0.79,16.87-1.51,32.69-2.29,48.51c-0.21,4.3-0.1,8.68-0.95,12.86
		c-1.86,9.13-1.57,17.92,2.4,27.95c5.06-13.97,2.11-28.37,8.75-40.71c2.61,5.04,4.85,9.94,5.62,15.06
		c2.38,15.66,4.1,31.42,6.29,47.11c0.61,4.39,1.93,8.68,3.09,13.76c5.34-2.59,9.3-4.52,15.14-7.36c-0.51,8.75-0.45,15.64-1.41,22.38
		c-1.1,7.73-1.5,7.69,6.05,10.89c9.46,4.02,18.91,8.07,28.42,11.97C726.18,601.44,728.11,601.42,730.54,601.82z M487.68,315.62
		c4.38,4.39,8.52,8.58,12.7,12.72c5.06,5.01,8.81,10.87,10.44,17.79c2.25,9.56-0.32,13.43-9.87,15.68
		c-2.07,0.49-4.21,0.68-6.45,1.02c0.48,1.25,0.58,1.95,0.97,2.42c0.63,0.76,1.39,1.44,2.19,2.02c12.81,9.22,26.48,16,42.59,17.76
		c10.12,1.1,15.6-0.43,20.97-8.9c9.53-15.03,15.85-31.21,18.77-48.85c1.95-11.76-1.42-17.12-13.46-17
		c-8.87,0.09-17.96,0.68-26.53,2.77c-16.59,4.04-32.97,6.55-49.71,1.36C489.86,314.27,489.22,314.87,487.68,315.62z M615.5,238
		c0.75-0.52,1.51-1.04,2.26-1.56c-1.36-4.6-2.79-9.18-4.05-13.81c-2.91-10.67-9.91-17.37-20.5-19.52
		c-10.97-2.22-22.12-4.38-33.26-4.8c-12.19-0.46-24.55,0.37-36.65,1.99c-11.4,1.53-22.78,4.14-33.79,7.53
		c-12.78,3.93-20.78,21.33-16.3,34.17c2.12-0.36,4.36-0.63,6.54-1.13c29.08-6.66,58.29-11.8,88.36-10.9
		C584.33,230.45,600.57,229.67,615.5,238z M468.26,262.97c-1.14,18.43,9.07,31.79,26.53,37.04c24.21,7.28,46.09-2.07,68.65-8.59
		c-1.2-7.7-6.47-14.23-4.73-22.78c11.46-0.37,23.43,1.21,32.89-8.25c-4.26-6.68-10.61-7.87-17.32-8.42
		c-20.96-1.7-41.82-0.31-62.52,2.75C497.06,256.9,482.54,260.22,468.26,262.97z M401.56,472.03c0.49-0.5,0.99-1,1.48-1.5
		c-1.35-3.21-2.58-6.47-4.07-9.62c-1.71-3.6-3.8-7.02-5.45-10.65c-8.09-17.87-15.93-35.85-24.17-53.64
		c-4.06-8.77-6.52-9.94-15.57-8.17c-8.77,1.72-17.5,3.71-26.15,5.97c-4.46,1.17-8.81,3.04-10.24,8.95
		c13.06,11.31,20.62,26.57,29.19,41.18c1.7,2.9,4.84,5.48,7.91,6.95c11.68,5.61,23.58,10.76,35.44,15.98
		C393.73,469.17,397.67,470.53,401.56,472.03z M588.64,480.17c13.42-0.86,24.16,5.51,36.52,3.01c0-7.85,0-14.81,0-21.77
		c-0.01-17.33-0.03-34.65-0.02-51.98c0-8.29-2.48-14.66-11.08-17.98c-8.66-3.34-16.92-7.74-25.45-11.45
		c-1.59-0.69-3.64-0.33-5.48-0.45c-0.09,2.11-0.93,4.55-0.17,6.29c5.94,13.56,7.53,28.13,9.63,42.48c1.04,7.1,0.07,14.56-0.53,21.81
		C591.27,459.59,589.94,469.01,588.64,480.17z M447.75,232.58c-4.87-6.32-9.01-9.11-14.95-8.05c-14.27,2.54-28.6,4.81-42.76,7.88
		c-9.04,1.96-18.72,4.26-22.83,13.97c-5.34,12.6-8.91,25.61-2.08,40.22c16.16-3.27,31.26-8.13,41.74-22.01
		c4.98-6.6,9.62-13.46,14.22-20.34c4.19-6.26,10.16-9.19,17.38-10.16C440.94,233.77,443.4,233.3,447.75,232.58z M560.16,632.43
		c-5.02,9.45-9.29,17.48-13.86,26.09c20.86,9.15,40.5,17.77,60.65,26.61c4.56-8.39,8.64-15.9,13.23-24.33
		C600.05,651.28,580.61,642.1,560.16,632.43z M624.82,549.98c0.84-11.69,1.9-21.88,2.22-32.1c0.34-10.8-1.96-13.39-12.47-15.48
		c-8.75-1.74-17.63-2.91-26.31-4.97c-5.14-1.22-8.04,0.61-10.34,3.78c3.26,4.67,7.54,8.35,8.39,12.7c0.93,4.74-1.33,10.1-2.28,15.72
		C597.34,536.27,610.61,542.89,624.82,549.98z M558.67,604.82c-21.87-10.55-43.15-20.81-65.52-31.61
		c0.9,14.23,3.34,25.46,16.01,31.56c3.25,1.56,6.25,3.91,8.91,6.38c8.12,7.54,18.66,9.55,29.12,13.99
		C550.99,618.4,554.54,612.12,558.67,604.82z M497.1,524.03c52,24.8,103.4,49.33,154.85,73.78c0.6,0.29,1.73-0.53,2.5-0.8
		c0.08-0.58,0.25-1.15,0.16-1.2c-38.41-19.39-76.84-38.74-116.11-58.51c0.69-5.03,1.38-10.23,2.12-15.43
		c1.33-9.32-2.52-16.63-10.39-19.26c-3.75-1.25-7.08-1.14-7.73,4.15c1.19,0.66,1.98,1.24,2.86,1.56
		c10.35,3.78,13.42,15.24,6.31,23.63c-3.14,3.7-5.85,3.8-8.99,0.06c-1.26-1.5-2.09-3.37-3.07-5.1
		C515.14,519.04,506.44,517.56,497.1,524.03z M814.7,675.83c5.45-12.23,10.58-23.71,15.68-35.2c1.5-3.38,1.45-7.01-1.68-8.99
		c-2.55-1.62-6.01-2.2-9.12-2.38c-1.73-0.1-3.69,1.38-5.34,2.45c-10.89,7.04-21.78,14.09-32.54,21.33c-2.23,1.5-3.91,3.81-6.69,6.59
		C788.74,665.24,801,670.24,814.7,675.83z M539.74,670.14c-6.1,10.89-11.69,20.88-17.72,31.65c4.36-0.57,10.15-0.88,16.87-0.02
		c5.62,0.72,10.36,2.06,14.05,3.4c-10.31-1.13-20.61-2.25-30.92-3.38C527.93,691.24,533.84,680.69,539.74,670.14z M877.93,733
		c-0.72-1.08-1.56-2.73-1.62-4.77c-0.1-3.98,2.94-5.15,2.46-7.62c-0.23-1.2-1.22-2.34-13.1-7.41c-2.41-1.03-4.05-1.7-4.05-1.7
		c-1.9-0.79-7.39-3.05-15.63-6.3c-6.07-2.4-12.2-4.66-18.87-7.19c-2.33,4.03-4.18,7.23-6.49,11.23
		C840.21,717.36,858.48,724.94,877.93,733z M631.02,639.98c-20.18-9.58-39.78-18.88-59.77-28.37c-1.81,3.68-3.09,6.28-4.62,9.39
		c20.08,9.61,39.65,18.97,59.36,28.4c1.56-2.69,2.41-4.09,3.18-5.53C629.76,642.8,630.24,641.65,631.02,639.98z M763.17,685
		c6.59,2.73,13.18,5.47,19.76,8.2c8.06,3.34,16.11,6.68,24.17,10.03c2.06-3.74,4.12-7.48,6.17-11.22
		c-7.04-2.99-14.21-5.97-21.51-8.93c-7.73-3.13-15.38-6.14-22.93-9.04C766.95,677.69,765.06,681.34,763.17,685z M638.45,626.45
		c3.28-6.29,6.29-12.05,9.75-18.67c-8.07-3.85-15.4-7.34-23.48-11.19c-3.62,6.51-6.87,12.35-10.35,18.59
		C622.99,619.21,630.41,622.68,638.45,626.45z M520.45,445.64c22.78,1.17,53.83-19.19,46.18-40.2
		c-8.59,5.67-13.03,15.07-20.74,20.93C537.74,432.56,529.57,438.73,520.45,445.64z M466.39,521.38c-5.35-2.43-9.13-4.15-13.33-6.06
		c-6.17,9.81-11.85,18.85-17.93,28.52c5.14,2.63,9.13,4.67,13.82,7.07C454.81,541,460.29,531.72,466.39,521.38z M437.1,277.85
		c-11.93,9.59-15.21,30.24-8.34,45.73c3.5,0.71,7.17,1.46,12.93,2.64C430.5,309.83,433.06,293.98,437.1,277.85z M698.98,691.44
		c0-6.5,0.48-12.48-0.13-18.33c-0.69-6.66-3.58-8.41-11.75-7.65c0,5.78-0.12,11.69,0.03,17.6
		C687.33,691.52,688.05,692.04,698.98,691.44z M705.32,673.59c0,6.08-0.41,11.99,0.25,17.78c0.2,1.75,3.31,4.29,5.21,4.41
		c1.92,0.12,5.64-2.23,5.72-3.66c0.27-5.11-0.11-10.41-1.31-15.39C714.2,672.7,710.77,671.25,705.32,673.59z M680.95,685.01
		c0-4.7,0.4-9.31-0.2-13.78c-0.23-1.74-2.5-4.07-4.25-4.5c-1.8-0.45-5.66,0.74-5.89,1.8c-0.88,4.03-1.58,8.55-0.58,12.42
		C671.07,684.94,674.71,687.24,680.95,685.01z M731.86,697.77c4.35-14.88,3-17.54-7.79-16.29c-2.43,5.07-4.27,10.22-1.55,16.29
		C725.57,697.77,728.45,697.77,731.86,697.77z"/>
	<path class="st1" d="M3073.55,394.24c22.45,0,44.3,0,67.37,0c0,7.4,0,14.48,0,23.34c3.66-2.78,5.63-4.31,7.63-5.79
		c7.76-5.72,15.13-12.1,23.38-17.01c24.61-14.66,68.46-15.47,92.18,22.08c10.13,16.03,16.18,33.55,19.17,52.12
		c5.46,33.85,5.84,67.65-2.92,101.08c-5.23,19.94-14.54,37.82-28.34,53.29c-26.81,30.07-64.34,32.2-93.85,18.56
		c-5.32-2.46-10.45-5.34-16.87-8.65c0,34.8,0,68.26,0,101.47c-7.73,2.16-54.06,2.69-67.76,0.92
		C3073.55,622.31,3073.55,508.88,3073.55,394.24z M3140.96,586.11c2.09,1.04,3.47,2.02,5,2.45c28.56,7.93,58.3,3.43,67.68-35.58
		c0.39-1.62,0.7-3.25,1.02-4.88c3.68-18.84,3.12-37.83,1.27-56.74c-0.73-7.51-2.94-15.05-5.57-22.18
		c-4.77-12.95-14.37-20.6-28.21-22.26c-11.68-1.4-22.28,2.18-32.54,7.49c-6.26,3.24-8.94,7.37-8.85,14.87
		c0.44,35.98,0.2,71.96,0.2,107.95C3140.96,580.16,3140.96,583.1,3140.96,586.11z"/>
	<path class="st1" d="M3705.7,519.26c-0.57,24.11-3.05,47.87-12.98,70.26c-18.03,40.66-49.44,61.72-93.72,62.75
		c-12.53,0.29-25.42-0.65-37.62-3.37c-31.81-7.09-53.29-27.39-67.13-56.36c-7.56-15.83-11.62-32.69-13.09-50.01
		c-2.19-25.67-2.01-51.42,5.68-76.3c3.41-11.04,7.94-22.01,13.75-31.97c17.23-29.52,43.99-44.68,77.56-47.89
		c15.27-1.46,30.61-1.06,45.68,2.67c35.28,8.73,57.7,31.57,70.83,64.57C3703.06,474.68,3705.19,496.84,3705.7,519.26z
		 M3550.63,519.06c0,7-0.43,14.03,0.09,20.99c0.97,13.03,3.5,25.78,9.78,37.43c6.98,12.93,18.06,19.21,32.71,18.94
		c14.07-0.27,25.27-5.93,31.71-18.83c3.09-6.2,5.91-12.8,7.32-19.54c4.89-23.39,4.94-47.05,0.96-70.54
		c-1.48-8.75-4.22-17.54-7.92-25.61c-6.26-13.66-17.48-20.13-32.82-20.1c-15.48,0.04-25.86,7.32-32.52,20.69
		c-1.77,3.56-3.14,7.35-4.36,11.14C3550.81,488.4,3549.95,503.67,3550.63,519.06z"/>
	<path class="st1" d="M3323.55,394.24c22.44,0,44.27,0,67.03,0c0,11.19,0,22.01,0,34.54c3.13-2.14,4.93-3.2,6.53-4.5
		c8-6.49,15.54-13.66,24.02-19.43c14.27-9.72,30.19-13.37,48.06-9.91c0,24.25,0,48.38,0,74.03c-27.11-5.49-53.16-4.41-78.1,9.5
		c0,54.73,0,109.61,0,164.28c-7.43,2.17-53.65,2.74-67.55,0.93C3323.55,561,3323.55,478.23,3323.55,394.24z"/>
	<path class="st2" d="M772.99,623.97c-6.76-2.95-12.8-5.6-19.02-8.32c-10.25-49.1-27.54-95.81-44.81-142.6
		c-6.68-18.08-17.85-31.69-33.18-42.43c-7.89-5.52-16.08-10.61-24.3-16c-0.22-0.82-0.76-1.79-0.68-2.7
		c1.39-16.15-6.65-26.51-20.43-33.29c-10.14-4.99-20.37-9.79-30.54-14.72c-2.94-1.43-5.82-2.99-8.39-4.32
		c3.85-15.42,8.03-30.11,11.08-45.02c2.99-14.63,4.82-29.49,7.18-44.4c3.78-1.98,8.27-3.48,11.69-6.29
		c10.18-8.34,13.81-19.37,10.85-32.19c-1.77-7.64-4.29-15.11-6.82-23.85c4.4,1.71,8.08,2.87,11.52,4.52
		c86.92,41.81,142.01,109.71,165.9,203.05c7.32,28.59,9.51,57.75,7.74,87.12C808.19,545.69,796.48,586.15,772.99,623.97z"/>
	<path class="st2" d="M294.73,685.35c20.62-5.26,39.84-10.43,59.22-14.88c3.86-0.89,8.6,0.27,12.51,1.67
		c24.43,8.76,48.9,17.46,73.01,27.07c8.62,3.44,14.16,1.74,20.17-4.65c9.57-10.19,20.03-19.53,29.74-29.6
		c5.35-5.55,10.76-7.89,18.56-5.55c6.88,2.07,14.19,2.69,22.35,4.14c-1.64,3.19-2.59,5.53-3.95,7.6c-1.76,2.7-2.38,3.76-4.16,6.8
		c-2.02,3.44-3.26,6-3.85,7.17c-3.14,6.22-7.74,12.81-18.5,29.7c-6.23,9.78-7.39,11.81-6.67,14.44c1.11,4.07,5.75,6.24,17.57,9.73
		c20.24,5.98,64.26,16.63,64.31,16.65c0,0,0,0,0.01,0c0.01,0,0.04,0.01,0.07,0.02c0.27,0.09,1.09,0.33,2.02,0.18c0,0,0,0,0,0
		c0.24-0.05,0.58-0.12,1-0.24c5.78-1.66,8.63-7.46,12.42-14.68c0,0,0.31-0.59,7.38-13.59c2.97-5.47,3.55-6.13,9.03-15.5
		c6.65-11.38,6.78-11.92,15.76-27.61c2.15-3.75,4.71-8.13,8.07-13.69c2.35-3.89,4.29-7.04,5.49-8.98
		c6.64,3.47,12.95,6.43,18.88,10.03c2.38,1.45,4.35,4.03,5.77,6.52c2.96,5.2,5.64,10.59,8.05,16.07c2.59,5.88,6.63,8.63,13.2,8.5
		c5.46-0.11,10.95,0.74,17.49,1.24C591.89,794.09,407.25,794.18,294.73,685.35z"/>
	<path class="st3" d="M189.23,618.19c9.88-2.76,19.93-5.02,29.61-8.37c20.16-6.98,40.77-11.59,61.97-13.83
		c8.54-0.91,17.02-2.5,25.57-3.17c2.87-0.22,5.89,1.45,9.4,2.41c-3.31,9.91-14.61,15-11.6,26.68c7.15-0.74,11.22-5.83,15.78-9.72
		c4.8-4.09,9.38-8.6,13.33-13.5c5.83-7.24,14.2-6.49,21.86-7.73c3.46-0.56,4.93,3.56,3.35,8.55c-2.4,7.58-5.48,15-7.13,22.74
		c-1.51,7.06-1.69,14.44-2.08,21.7c-0.21,4-0.79,7.3-5.36,8.31c-9.6,2.12-19.2,4.26-29.37,6.52c-0.93-4.63-1.62-8.06-2.69-13.39
		c-7.29,6.77-13.66,12.69-20.28,18.84c-7.25-4.52-13.84-3.9-21.76-0.81c-24.12,9.42-49.19,15.94-74.72,20.43
		c-12.47,2.19-25.9-8.33-29.82-22.84c-3.67-13.56-2.9-27.13,0.92-40.32c6.59-22.75,16.05-44.32,27.91-64.89
		c7.64-13.25,14.32-27.05,21.52-40.56c10.48-19.67,21.18-39.23,31.49-58.99c4.99-9.56,13.23-15.82,21.6-21.61
		c8.98-6.21,18.81-11.25,28.5-16.38c5.96-3.16,7.51-2.46,11.56,3.14c1.17,1.62,2.77,3.21,3.15,5.02c0.41,1.98,0.38,5.42-0.75,6.12
		c-9.49,5.84-12.71,15.92-17.64,24.86c-0.63,1.15-1.35,2.25-2.63,4.37c-4.51-2.62-8.83-5.14-14.14-8.23
		c-0.62,3.01-1.34,5.08-1.37,7.15c-0.02,1.58,0.65,3.27,1.34,4.75c6.04,12.87,2.83,24.75-2.53,37.11
		c-5.53,12.77-9.57,26.21-13.83,39.5c-2.42,7.55-2.7,14.94,4.35,20.95c2.36,2.02,3.62,5.33,6.31,9.48
		c-20.15-4.89-38.87-10.19-57.91-3.03c-2.87,1.08-5.2,3.62-8.58,6.06c6.87,4.51,13.42,1.61,19.29,3.15
		c5.93,1.56,11.95,2.79,20.18,4.69c-4.5,2.24-6.92,3.81-9.57,4.7c-15.01,5.03-28.14,13.37-40.49,23.01
		c-2.14,1.67-3.2,4.72-4.76,7.13c-0.16,0.28-0.32,0.55-0.48,0.83C188.92,618.75,189.08,618.47,189.23,618.19z"/>
	<path class="st2" d="M357.91,220.82c-6.03,18.67-11.21,37.51-13.76,57.05c-2.04,15.6,2.89,24.03,17.85,28.53
		c11.21,3.37,15.34,13.15,10.98,23.78c-3.64,8.86-6.76,18.04-8.95,27.35c-1.27,5.39-3.61,8.17-8.72,9.28
		c-8.44,1.83-16.87,3.69-25.27,5.68c-12.52,2.97-24.23,7.09-31.37,19.19c-1.5,2.53-5.14,3.92-7.97,5.52
		c-8.69,4.88-17.66,9.28-26.16,14.46c-16.85,10.27-29.83,24.32-39.13,41.77c-6.1,11.45-12.35,22.82-18.57,34.21
		c-1.22,2.23-2.62,4.35-4.96,8.22c-1.42-24.46-0.61-46.87,3.96-68.91c11-53.06,32.89-101.1,68.7-142.13
		c21.13-24.21,45.17-45.2,73.39-61c2.85-1.6,5.97-2.72,8.96-4.07C357.22,220.12,357.57,220.47,357.91,220.82z"/>
	<path class="st3" d="M584.75,185.43c-20.51-1.56-39.55-2.14-58.8,0.25c-15.86,1.97-31.53,4.21-46.35,10.21
		c-6.01,2.43-11.71,6.03-16.93,9.93c-3.35,2.5-6.27,4.48-10.63,4.3c-23.46-0.98-45.97,4.73-68.49,10.15
		c-7.35,1.77-8.38,1.14-6.61-6.18c9.55-39.46,33.04-65.53,72.71-76.71c19.85-5.59,40.05-6.72,60.18-5.05
		c21.72,1.8,42.32,8.53,59.34,23.06c7.4,6.32,12.47,14.61,15.5,23.94C585.23,181.06,584.75,183.1,584.75,185.43z"/>
	<path class="st3" d="M463.31,619.04c6.63,6.71,12.63,12.75,18.59,18.83c2.1,2.13,4.46,4.11,6.09,6.57
		c2.39,3.61,1.17,6.95-1.91,9.74c-3.19,2.89-5.79,1.75-8.72-0.71c-6.06-5.09-12.23-10.09-18.65-14.7c-2.82-2.02-6.39-3-11.02-5.09
		c0.86,5.88,3.83,8.85,6.13,12.16c3.96,5.7,8.06,11.33,11.59,17.29c0.84,1.42-0.32,4.02-0.55,6.08c-2.12-0.26-4.76,0.18-6.26-0.92
		c-3.18-2.34-5.74-5.52-8.61-8.29c-3.11-3.01-6.37-5.78-12.48-5.28c2.63,10.09,11.55,17.42,11.15,28.29
		C441,685.83,434.9,684.41,430,678c-2.61-3.42-5.1-7.01-8.17-9.98c-6.87-6.64-14.86-9.32-24.61-6.9
		c-14.73,3.66-27.11-6.19-28.08-21.35c-0.77-12.11,1.4-23.73,4.18-35.4c1.61-6.77,6.5-8.88,12.21-9.95
		c8.77-1.65,17.61-2.87,26.42-4.32c7.17-1.18,14.42-3.8,21.47-3.32c9.43,0.64,19.34,2.17,27.9,5.93
		c22.26,9.78,42.78,22.72,60.69,39.38c5.4,5.02,6.35,8.8,3.97,11.9c-2.43,3.14-6.1,2.66-12.01-1.9
		c-10.29-7.95-21.15-14.96-33.17-19.98C475.72,619.98,470.7,617.03,463.31,619.04z"/>
	<path class="st3" d="M730.54,601.82c-2.43-0.4-4.36-0.38-6.01-1.06c-9.51-3.9-18.96-7.96-28.42-11.97
		c-7.55-3.2-7.15-3.15-6.05-10.89c0.96-6.74,0.91-13.63,1.41-22.38c-5.84,2.84-9.81,4.77-15.14,7.36
		c-1.17-5.08-2.48-9.37-3.09-13.76c-2.18-15.69-3.91-31.45-6.29-47.11c-0.78-5.12-3.01-10.01-5.62-15.06
		c-6.64,12.34-3.69,26.74-8.75,40.71c-3.97-10.02-4.26-18.82-2.4-27.95c0.85-4.18,0.74-8.56,0.95-12.86
		c0.77-15.82,1.49-31.65,2.29-48.51c3.33,1.19,5.88,1.72,8.04,2.94c14.86,8.37,26.37,19.28,31.64,36.48
		c7.09,23.15,15.85,45.78,23.2,68.85c5.33,16.71,9.56,33.76,14.21,50.68C730.82,598.45,730.54,599.78,730.54,601.82z"/>
	<path class="st3" d="M487.68,315.62c1.55-0.75,2.19-1.35,2.6-1.22c16.74,5.19,33.12,2.68,49.71-1.36
		c8.57-2.09,17.66-2.68,26.53-2.77c12.04-0.12,15.41,5.24,13.46,17c-2.92,17.65-9.24,33.82-18.77,48.85
		c-5.37,8.47-10.85,10-20.97,8.9c-16.11-1.75-29.77-8.53-42.59-17.76c-0.8-0.58-1.56-1.26-2.19-2.02c-0.39-0.46-0.49-1.17-0.97-2.42
		c2.24-0.35,4.38-0.53,6.45-1.02c9.55-2.25,12.12-6.12,9.87-15.68c-1.63-6.92-5.39-12.78-10.44-17.79
		C496.2,324.2,492.06,320.01,487.68,315.62z"/>
	<path class="st3" d="M615.5,238c-14.93-8.33-31.18-7.55-47.39-8.04c-30.07-0.9-59.28,4.24-88.36,10.9
		c-2.19,0.5-4.43,0.77-6.54,1.13c-4.48-12.84,3.52-30.24,16.3-34.17c11.01-3.38,22.38-6,33.79-7.53c12.1-1.62,24.46-2.45,36.65-1.99
		c11.14,0.42,22.29,2.57,33.26,4.8c10.59,2.15,17.59,8.85,20.5,19.52c1.26,4.63,2.7,9.21,4.05,13.81
		C617.01,236.96,616.26,237.48,615.5,238z"/>
	<path class="st4" d="M384.92,519.65c-3.06-1.09-6.27-1.89-9.16-3.33c-12.21-6.04-24.16-12.63-36.53-18.29
		c-6.95-3.18-10.89-7.14-9.36-15.18c0.33-1.71-0.27-3.6-0.62-7.24c-17.99,25.11-27.51,53.22-45.24,76.18
		c-4.15-0.64-4.72-3.11-3.91-5.93c7.34-25.71,8.39-27.53,8.39-27.53c15.28-25.48,31.42-66.18,31.42-66.18l0,0
		c8.62,4.02,17.32,7.93,25.91,12.11c11.91,5.79,23.73,11.78,35.59,17.69C382.57,494.51,383.74,507.08,384.92,519.65z"/>
	<path class="st2" d="M468.26,262.97c14.28-2.75,28.8-6.07,43.5-8.25c20.7-3.06,41.56-4.46,62.52-2.75
		c6.71,0.54,13.06,1.74,17.32,8.42c-9.46,9.46-21.43,7.88-32.89,8.25c-1.74,8.55,3.53,15.08,4.73,22.78
		c-22.55,6.52-44.43,15.87-68.65,8.59C477.33,294.77,467.12,281.4,468.26,262.97z M547.02,270.79c-13.11-2.96-25.63-5.81-38.17-8.57
		c-1.6-0.35-3.3-0.19-4.95-0.31c-8.4-0.6-13.23,3.97-17.53,12.05c8.31,0,15.38,0,22.09,0c1.06,2.69,1.69,4.58,2.53,6.38
		c4.76,10.29,12.2,12.72,21.62,6.67C538.77,283.03,543.61,277.68,547.02,270.79z"/>
	<path class="st3" d="M401.56,472.03c-3.88-1.51-7.82-2.87-11.63-4.54c-11.86-5.22-23.76-10.37-35.44-15.98
		c-3.07-1.48-6.21-4.06-7.91-6.95c-8.57-14.61-16.13-29.87-29.19-41.18c1.43-5.92,5.79-7.79,10.24-8.95
		c8.65-2.26,17.38-4.26,26.15-5.97c9.05-1.77,11.51-0.6,15.57,8.17c8.24,17.8,16.08,35.78,24.17,53.64
		c1.64,3.63,3.74,7.05,5.45,10.65c1.49,3.14,2.72,6.41,4.07,9.62C402.54,471.03,402.05,471.53,401.56,472.03z"/>
	<path class="st3" d="M588.64,480.17c1.3-11.16,2.63-20.57,3.42-30.03c0.6-7.25,1.57-14.71,0.53-21.81
		c-2.1-14.36-3.68-28.92-9.63-42.48c-0.76-1.74,0.07-4.18,0.17-6.29c1.84,0.12,3.89-0.24,5.48,0.45c8.53,3.71,16.78,8.1,25.45,11.45
		c8.6,3.32,11.08,9.7,11.08,17.98c-0.01,17.33,0.02,34.65,0.02,51.98c0,6.96,0,13.92,0,21.77
		C612.8,485.67,602.06,479.31,588.64,480.17z"/>
	<path class="st3" d="M421.23,412.1c-2.68-3.65-4.97-7.68-8.11-10.88c-10.11-10.33-17.92-22.13-24.03-35.17
		c-2.43-5.19-2.93-9.98,1.23-14.96c15.53,26.18,38.7,43.41,63.75,58.63c2.68,1.63,5.6,4.05,6.74,6.8
		c4.83,11.66,10.51,22.74,19.41,32.28c-27.8,5.79-76.33-19.9-94.4-58.59c5.12,2.1,8.56,4.6,11.97,7.45
		c7.08,5.93,13.9,12.4,23.37,14.51c0.89,0.24,1.79,0.48,2.68,0.72C422.97,412.63,422.1,412.37,421.23,412.1z"/>
	<path class="st5" d="M362.03,529.36c-0.49-0.36-11.1-7.15-25.59-16.38c7.41,0.08,59.19,23.94,68.38,31.04
		c-4.54,7.99-10.89,11.42-20.43,10.13c-9.52-1.28-19.24-0.99-28.83-1.81c-2.71-0.23-6.3-1.17-7.75-3.09
		c-3.24-4.3-6.81-4.34-11.36-3.33c-11.66,2.6-23.37,4.98-35.08,7.36c-2.47,0.5-5.01,0.64-9.45,1.18c4.82-7.21,8.8-12.83,12.42-18.67
		c3.49-5.62,6.61-11.46,10.4-18.08c15.23,4.67,30.34,9.29,45.44,13.92c0.26,0.11,0.83,0.29,1.52,0.18c0.36-0.06,0.65-0.18,0.85-0.29
		c0.04-0.05,0.1-0.12,0.15-0.22c0.15-0.28,0.13-0.55,0.13-0.64c-0.02-0.31-0.16-0.53-0.26-0.69
		C362.58,529.94,362.35,529.59,362.03,529.36z"/>
	<path class="st3" d="M447.75,232.58c-4.35,0.72-6.81,1.18-9.28,1.52c-7.22,0.97-13.19,3.9-17.38,10.16
		c-4.6,6.87-9.23,13.74-14.22,20.34c-10.48,13.88-25.58,18.73-41.74,22.01c-6.83-14.61-3.26-27.62,2.08-40.22
		c4.11-9.71,13.79-12.01,22.83-13.97c14.16-3.07,28.49-5.34,42.76-7.88C438.74,223.48,442.88,226.26,447.75,232.58z"/>
	<path class="st3" d="M557.16,456.16c-2.47,9.54-4.95,19.08-7.62,29.36c-1.36,0.12-3.35,0.74-5.15,0.39
		c-13.49-2.57-26.85-1.98-40.45-0.2c-10.13,1.32-20.56,0.41-30.85,0.44c-9.3,0.03-18.61,0.16-27.9-0.05
		c-7.28-0.17-12.74-3.12-14.63-10.88c-1.07-4.38-2.48-8.68-4.06-14.13c9.07,1.25,16.85,1.81,24.39,3.47
		c18.63,4.12,37.51,4.14,56.34,3.37c12.54-0.51,24.77-3.72,36.61-8.16c4.29-1.61,8.87-2.44,13.31-3.63L557.16,456.16z"/>
	<path class="st5" d="M384.92,519.65c-1.17-12.57-2.35-25.14-3.52-37.71c11.13,5.02,22.3,9.97,33.38,15.09
		c9.89,4.57,19.7,9.32,30.62,14.5c-6.04,9.46-11.79,18.46-17.95,28.1C412.6,533.17,397.91,528.32,384.92,519.65z"/>
	<path class="st5" d="M560.16,632.43c20.45,9.66,39.89,18.85,60.02,28.36c-4.59,8.44-8.67,15.94-13.23,24.33
		c-20.15-8.84-39.79-17.46-60.65-26.61C550.87,649.92,555.14,641.88,560.16,632.43z"/>
	<path class="st3" d="M624.82,549.98c-14.21-7.09-27.49-13.71-40.79-20.35c0.96-5.62,3.21-10.98,2.28-15.72
		c-0.85-4.35-5.14-8.03-8.39-12.7c2.3-3.17,5.2-5,10.34-3.78c8.67,2.06,17.55,3.23,26.31,4.97c10.51,2.09,12.81,4.68,12.47,15.48
		C626.72,528.1,625.66,538.29,624.82,549.98z"/>
	<path class="st5" d="M558.67,604.82c-4.13,7.31-7.68,13.58-11.49,20.33c-18.53-4.38-30.54-11.73-37.17-16.59
		c-5.29-3.88-8.17-6.91-10.44-10.28c-6.45-9.56-6.69-19.89-6.42-25.06C515.52,584,536.8,594.27,558.67,604.82z"/>
	<path class="st5" d="M497.1,524.03c9.34-6.47,18.04-4.99,22.51,2.88c0.98,1.73,1.81,3.6,3.07,5.1c3.15,3.74,5.86,3.64,8.99-0.06
		c7.11-8.39,4.04-19.85-6.31-23.63c-0.88-0.32-1.67-0.9-2.86-1.56c0.65-5.3,3.98-5.41,7.73-4.15c7.87,2.63,11.72,9.94,10.39,19.26
		c-0.74,5.19-1.43,10.4-2.12,15.43c39.27,19.77,77.7,39.12,116.11,58.51c0.09,0.05-0.08,0.62-0.16,1.2c-0.77,0.27-1.9,1.08-2.5,0.8
		C600.5,573.36,549.09,548.83,497.1,524.03z"/>
	<path class="st5" d="M728.76,651.48c-16.13-7.8-32.48-15.44-49.06-22.92c-1.03-0.46-2.06-0.93-3.09-1.39
		c2.88-6.61,5.75-13.22,8.62-19.83c15.07,6.95,30.14,13.9,45.22,20.85C729.89,635.96,729.32,643.72,728.76,651.48z"/>
	<path class="st5" d="M814.7,675.83c-13.7-5.59-25.97-10.6-39.69-16.2c2.78-2.78,4.46-5.09,6.69-6.59
		c10.76-7.24,21.65-14.29,32.54-21.33c1.66-1.07,3.61-2.55,5.34-2.45c3.11,0.18,6.57,0.76,9.12,2.38c3.13,1.98,3.18,5.61,1.68,8.99
		C825.28,652.12,820.16,663.6,814.7,675.83z M809.94,669.42c3.11-6.96,5.63-12.59,8.11-18.13c-12.76-8.12-20.93-5.95-32.13,8.46
		C793.67,662.87,801.24,665.92,809.94,669.42z"/>
	<path class="st5" d="M540.23,670.6c8.17,3.87,16.35,7.74,24.53,11.61c-3.34,7.71-6.68,15.43-10.03,23.14
		c-4.14-0.38-9.25-1.2-14.92-2.92c-5.42-1.64-9.94-3.69-13.5-5.58C530.95,688.1,535.59,679.35,540.23,670.6z"/>
	<path class="st4" d="M728.76,651.48c0.56-7.76,1.12-15.52,1.68-23.28c3.25,1.43,15.19,6.69,18.45,8.13
		c3.54,1.56,15.77,6.94,19.31,8.5c-3.12,6.63-6.25,13.26-9.37,19.88C748.81,660.3,738.79,655.89,728.76,651.48z"/>
	<path class="st4" d="M567.64,590.79c-0.4,0.63-0.79,1.25-1.19,1.88c-0.22-0.11-0.52-0.26-0.75-0.38
		c-13.83-7.04-24.12-11.79-28.73-14.05c-6.52-3.2-16.1-7.93-27.9-13.8c-1.06-4.03-1.97-8.11-3.24-12.07
		c-1.38-4.32-0.96-8.2,1.89-11.77c4.72,2.31,9.44,4.62,14.16,6.93c-1.04,11.08-1.12,11.24,8.35,16.1
		c9.07,4.66,18.18,9.32,27.58,13.25C564.37,579.61,568.08,583.51,567.64,590.79z"/>
	<path class="st5" d="M877.93,733c-19.45-8.07-37.71-15.64-57.31-23.77c2.31-4,4.16-7.2,6.49-11.23c7.42,2.75,13.78,5.2,18.87,7.19
		c3.13,1.23,12.01,4.71,17.09,6.9c0.36,0.16,1.57,0.68,3.21,1.35c2.19,0.9,3.13,1.24,6.07,2.38c3.4,1.32,5.33,2.07,7.91,3.15
		c1.13,0.47,3.87,1.63,3.88,1.62l0,0C884.15,720.61,881.71,725.45,877.93,733z"/>
	<path class="st5" d="M631.02,639.98c-0.78,1.67-1.26,2.81-1.84,3.9c-0.77,1.44-1.63,2.84-3.18,5.53
		c-19.71-9.43-39.29-18.8-59.36-28.4c1.53-3.11,2.81-5.72,4.62-9.39C591.24,621.1,610.85,630.41,631.02,639.98z"/>
	<path class="st3" d="M505.15,394.17c-14.35,0.57-26.75-4.98-37.77-13.33c-10.01-7.6-19.42-16.08-26.71-26.53
		c-0.71-1.02-1-2.35-1.44-3.42c7.9-6.54,8.82-6.81,14.14,0.53c11.6,15.99,27.19,27,43.86,36.86c2.82,1.67,5.32,3.88,7.97,5.85
		L505.15,394.17z"/>
	<path class="st5" d="M567.64,590.79c0.44-7.28-3.27-11.18-9.83-13.92c-9.4-3.93-18.5-8.59-27.58-13.25
		c-9.48-4.87-9.39-5.03-8.35-16.1c18.25,8.58,36.49,17.17,55.8,26.25C573.9,580.17,570.77,585.48,567.64,590.79z"/>
	<path class="st5" d="M763.17,685c1.73-3.94,3.47-7.87,5.2-11.81c7.74,3.31,15.54,6.6,23.4,9.89c7.2,3.01,14.37,5.99,21.51,8.93
		c-1.89,3.81-3.77,7.62-5.66,11.43C792.8,697.29,777.99,691.14,763.17,685z"/>
	<path class="st5" d="M599.54,697.87c0.03,0.01,1.11,0.52,1.11,0.52l0,0l0,0c0,0-1.32,2.42-1.32,2.42l0,0c0,0-7.7,15.34-7.95,15.83
		c0,0-7.52-1.88-13.36-3.29c-3.03-0.73-7.53-1.8-13.1-3.06c3.78-8.14,7.12-15.36,10.98-23.67
		C583.78,690.38,591.66,694.13,599.54,697.87z"/>
	<path class="st5" d="M638.45,626.45c-8.04-3.76-15.46-7.24-24.08-11.27c3.47-6.24,6.72-12.08,10.35-18.59
		c8.08,3.85,15.4,7.34,23.48,11.19C644.74,614.4,641.74,620.16,638.45,626.45z"/>
	<path class="st5" d="M507.72,540.59c-2.86,3.56-3.28,7.44-1.89,11.77c1.27,3.96,2.17,8.04,3.24,12.07
		c-2.7-1.39-15.73-8.1-18.28-9.41c-3.2-1.64-11.08-5.63-11.08-5.63l0,0c3.68-5.66,7.22-11.39,10.6-17.2c0,0,0,0,0,0
		C490.58,531.74,495.29,533.89,507.72,540.59z"/>
	<path class="st3" d="M520.45,445.64c9.12-6.91,17.29-13.08,25.43-19.27c7.72-5.87,12.15-15.26,20.74-20.93
		C574.28,426.45,543.23,446.81,520.45,445.64z"/>
	<path class="st5" d="M466.39,521.38c-6.1,10.33-11.58,19.61-17.43,29.52c-4.69-2.4-8.68-4.44-13.82-7.07
		c6.08-9.67,11.76-18.71,17.93-28.52C457.26,517.23,461.04,518.95,466.39,521.38z"/>
	<path class="st3" d="M437.1,277.85c-4.04,16.12-6.6,31.98,4.6,48.37c-5.76-1.18-9.43-1.93-12.93-2.64
		C421.9,308.09,425.17,287.44,437.1,277.85z"/>
	<path class="st5" d="M585.02,587.2c1.28-2.55,2.55-5.1,3.83-7.65c8.62,4.1,17.25,8.19,25.87,12.29
		c-3.44,6.13-6.89,12.26-10.33,18.39c-2.8-1.4-5.72-2.8-8.76-4.18c-3.27-1.49-6.47-2.86-9.58-4.12c1.65-0.33,3.86-0.83,6.46-1.55
		c1.9-0.53,3.76-1.01,6.15-1.94c2.07-0.8,4.81-2.03,7.88-3.92c0.46-0.35,0.93-0.69,1.39-1.04
		C600.29,591.38,592.65,589.29,585.02,587.2z"/>
	<path class="st4" d="M685.23,607.35c-1.45,3.2-2.89,6.51-4.31,9.92c-1.42,3.41-2.76,6.76-4.02,10.04
		c-4.37-1.88-8.75-3.76-13.12-5.64c2.85-6.61,5.7-13.22,8.56-19.83c1.42,0.58,2.84,1.17,4.28,1.77
		C679.55,604.83,682.42,606.08,685.23,607.35z"/>
	<path class="st3" d="M698.98,691.44c-10.93,0.6-11.64,0.08-11.85-8.38c-0.15-5.91-0.03-11.83-0.03-17.6
		c8.18-0.75,11.06,0.99,11.75,7.65C699.46,678.97,698.98,684.94,698.98,691.44z"/>
	<path class="st3" d="M705.32,673.59c5.45-2.34,8.88-0.89,9.86,3.14c1.21,4.97,1.59,10.28,1.31,15.39
		c-0.08,1.42-3.79,3.78-5.72,3.66c-1.9-0.12-5.01-2.66-5.21-4.41C704.91,685.58,705.32,679.67,705.32,673.59z"/>
	<path class="st2" d="M587.04,278.28L587.04,278.28C587.04,278.28,587.04,278.28,587.04,278.28
		C587.04,278.28,587.04,278.28,587.04,278.28c-0.46,4.03-0.86,8.21-1.19,12.52c-0.33,4.32-0.58,8.52-0.74,12.59
		c-1.89-0.94-4.32-2.4-6.73-4.67c-4.03-3.78-6.04-7.93-7.01-10.43C576.59,284.95,581.82,281.62,587.04,278.28z"/>
	<path class="st4" d="M585.02,587.2c8,2.09,15.99,4.18,23.99,6.28c-2.84,1.66-6.31,3.41-10.37,4.96c-4.7,1.79-9,2.84-12.6,3.48
		c-2.43-1.06-4.86-2.13-7.29-3.19l0,0C580.84,594.88,582.93,591.04,585.02,587.2z"/>
	<path class="st3" d="M680.95,685.01c-6.24,2.23-9.88-0.08-10.92-4.06c-1.01-3.87-0.3-8.39,0.58-12.42c0.23-1.06,4.09-2.25,5.89-1.8
		c1.75,0.44,4.02,2.76,4.25,4.5C681.35,675.7,680.95,680.31,680.95,685.01z"/>
	<path class="st3" d="M731.86,697.77c-3.41,0-6.29,0-9.34,0c-2.71-6.07-0.88-11.22,1.55-16.29
		C734.86,680.23,736.21,682.89,731.86,697.77z"/>
	<path class="st3" d="M505.2,394.11c0.88,0.26,1.75,0.53,2.63,0.79c-0.9-0.24-1.79-0.49-2.69-0.73
		C505.15,394.17,505.2,394.11,505.2,394.11z"/>
	<path class="st3" d="M557.15,456.15c0.15-0.28,0.3-0.57,0.46-0.85c-0.15,0.29-0.3,0.57-0.44,0.86
		C557.16,456.16,557.15,456.15,557.15,456.15z"/>
	<path class="st2" d="M356.88,219.77c0.43-0.4,0.86-0.8,1.29-1.2c-0.09,0.75-0.18,1.5-0.26,2.26
		C357.57,220.47,357.22,220.12,356.88,219.77z"/>
	<path class="st0" d="M189.23,618.19c-0.16,0.28-0.31,0.56-0.47,0.84c0.16-0.28,0.32-0.55,0.48-0.83
		C189.24,618.2,189.23,618.19,189.23,618.19z"/>
	<path class="st0" d="M547.02,270.79c-3.41,6.9-8.25,12.25-14.42,16.21c-9.42,6.06-16.85,3.63-21.62-6.67
		c-0.83-1.8-1.47-3.69-2.53-6.38c-6.71,0-13.78,0-22.09,0c4.3-8.08,9.13-12.65,17.53-12.05c1.65,0.12,3.35-0.04,4.95,0.31
		C521.39,264.98,533.91,267.83,547.02,270.79z"/>
	<path class="st0" d="M421.23,412.1c0.87,0.27,1.74,0.53,2.62,0.8c-0.89-0.24-1.79-0.48-2.68-0.72
		C421.16,412.18,421.23,412.1,421.23,412.1z"/>
	<path class="st0" d="M362.03,529.36c0.11,0.08,0.79,0.59,0.82,1.4c0.01,0.25-0.04,0.46-0.1,0.62c-0.01,0.02-0.04,0.04-0.07,0.07
		c-0.11,0.09-0.21,0.11-0.43,0.19c-0.13,0.05-0.12,0.05-0.19,0.07c0,0-0.29,0.1-0.6,0.13c-0.56,0.05-1.21-0.21-1.27-0.23
		C360.81,530.86,361.42,530.11,362.03,529.36z"/>
	<path class="st0" d="M809.94,669.42c-8.7-3.5-16.27-6.55-24.02-9.67c11.19-14.41,19.36-16.59,32.13-8.46
		C815.58,656.83,813.06,662.46,809.94,669.42z"/>
	<path class="st2" d="M587.19,278.19"/>
	<path class="st2" d="M587.03,278.34"/>
	<path class="st4" d="M586.54,726c-0.54,2.4-1.62,5.86-3.87,9.56c-2.02,3.32-4.3,5.68-6.04,7.23
		c-22.55-6.66-45.09-13.32-67.64-19.97c1.54-2.8,3.4-5.83,5.64-8.97c1.82-2.56,3.65-4.85,5.41-6.88
		C542.2,713.3,564.37,719.65,586.54,726z"/>
	<line class="st6" x1="600.74" y1="697.67" x2="600.74" y2="697.67"/>
	<line class="st6" x1="600.66" y1="700.65" x2="600.66" y2="700.65"/>
	<path class="st0" d="M483.87,553.3"/>
	<path class="st0" d="M493.92,559.8"/>
	<path class="st0" d="M665.48,612.94"/>
	<path class="st0" d="M327.15,491.35"/>
	<path class="st5" d="M479.22,549.83"/>
	<path class="st2" d="M506.06,745.05"/>
	<path class="st0" d="M613.51,735.38"/>
	<path class="st2" d="M511.17,683.94"/>
	<path class="st2" d="M524.4,681.72"/>
</g>
<g>
	<path class="st5" d="M1080.44,649.55c-43.95,0-78.84-13.28-104.69-39.85c-25.85-26.57-38.77-63.92-38.77-112.06
		c0-46.44,12.95-83.46,38.86-111.08c25.91-27.61,60.83-41.42,104.78-41.42c11.67,0,22.17,0.66,31.48,1.97
		c9.31,1.31,18.23,3.15,26.76,5.51c6.69,1.97,13.97,4.66,21.84,8.07c7.87,3.41,14.23,6.36,19.09,8.85v69.86h-7.48
		c-3.54-3.15-8-6.92-13.38-11.31c-5.38-4.39-11.48-8.69-18.3-12.89c-6.82-4.2-14.33-7.77-22.53-10.72
		c-8.2-2.95-16.76-4.43-25.68-4.43c-10.63,0-20.37,1.67-29.22,5.02c-8.86,3.34-17.29,9.15-25.29,17.41
		c-7.35,7.48-13.35,17.58-18,30.3c-4.66,12.73-6.99,27.75-6.99,45.06c0,18.24,2.43,33.55,7.28,45.95
		c4.85,12.4,11.22,22.4,19.09,30.01c7.61,7.35,16.1,12.66,25.48,15.94c9.38,3.28,18.72,4.92,28.04,4.92c9.71,0,18.96-1.6,27.75-4.82
		c8.79-3.21,16.2-6.79,22.24-10.72c6.56-4.06,12.33-8.2,17.32-12.4c4.98-4.2,9.31-7.94,12.99-11.22h6.69v68.87
		c-5.38,2.49-11.61,5.35-18.69,8.56c-7.08,3.22-14.36,5.94-21.84,8.17c-9.18,2.75-17.78,4.85-25.78,6.3
		C1105.5,648.83,1094.48,649.55,1080.44,649.55z"/>
	<path class="st5" d="M1313.62,649.16c-22.43,0-42.14-2.17-59.13-6.49c-16.99-4.33-32.76-9.71-47.32-16.14v-69.66h6.69
		c14.69,12.46,30.89,22.04,48.6,28.73s34.89,10.04,51.56,10.04c4.2,0,9.74-0.46,16.63-1.38c6.89-0.92,12.43-2.36,16.63-4.33
		c5.12-2.23,9.45-5.34,12.99-9.35c3.54-4,5.31-9.28,5.31-15.84c0-7.34-2.89-13.31-8.66-17.91c-5.77-4.59-12.66-7.94-20.66-10.04
		c-9.97-2.62-20.63-5.12-31.98-7.48c-11.35-2.36-21.94-5.25-31.78-8.66c-22.7-8-38.96-18.76-48.8-32.27
		c-9.84-13.51-14.76-30.43-14.76-50.77c0-27.42,11.61-49.62,34.83-66.61c23.22-16.99,52.21-25.48,86.98-25.48
		c17.45,0,34.8,1.77,52.05,5.31c17.25,3.54,32.7,8.33,46.34,14.36v66.9h-6.49c-10.89-9.31-24.17-17.18-39.85-23.61
		c-15.68-6.43-31.78-9.64-48.31-9.64c-6.43,0-12.2,0.46-17.32,1.38c-5.12,0.92-10.5,2.69-16.14,5.31c-4.59,2.1-8.56,5.21-11.91,9.35
		c-3.34,4.13-5.02,8.76-5.02,13.87c0,7.48,2.66,13.41,7.97,17.81c5.31,4.4,15.58,8.36,30.8,11.91c9.84,2.23,19.31,4.4,28.43,6.49
		c9.12,2.1,18.86,4.99,29.22,8.66c20.33,7.35,35.45,17.22,45.36,29.61c9.9,12.4,14.86,28.76,14.86,49.1
		c0,29.12-11.45,52.54-34.34,70.25C1383.51,640.3,1352.58,649.16,1313.62,649.16z"/>
	<path class="st5" d="M1600.13,541.92h-130.46v-54.7h130.46V541.92z"/>
	<path class="st5" d="M1742.6,649.16c-22.43,0-42.14-2.17-59.13-6.49c-16.99-4.33-32.76-9.71-47.32-16.14v-69.66h6.69
		c14.69,12.46,30.89,22.04,48.6,28.73s34.89,10.04,51.56,10.04c4.2,0,9.74-0.46,16.63-1.38c6.89-0.92,12.43-2.36,16.63-4.33
		c5.12-2.23,9.45-5.34,12.99-9.35c3.54-4,5.31-9.28,5.31-15.84c0-7.34-2.89-13.31-8.66-17.91c-5.77-4.59-12.66-7.94-20.66-10.04
		c-9.97-2.62-20.63-5.12-31.98-7.48c-11.35-2.36-21.94-5.25-31.78-8.66c-22.7-8-38.96-18.76-48.8-32.27
		c-9.84-13.51-14.76-30.43-14.76-50.77c0-27.42,11.61-49.62,34.83-66.61c23.22-16.99,52.21-25.48,86.98-25.48
		c17.45,0,34.8,1.77,52.05,5.31c17.25,3.54,32.7,8.33,46.34,14.36v66.9h-6.49c-10.89-9.31-24.17-17.18-39.85-23.61
		c-15.68-6.43-31.78-9.64-48.31-9.64c-6.43,0-12.2,0.46-17.32,1.38c-5.12,0.92-10.5,2.69-16.14,5.31c-4.59,2.1-8.56,5.21-11.91,9.35
		c-3.34,4.13-5.02,8.76-5.02,13.87c0,7.48,2.66,13.41,7.97,17.81c5.31,4.4,15.58,8.36,30.8,11.91c9.84,2.23,19.31,4.4,28.43,6.49
		c9.12,2.1,18.86,4.99,29.22,8.66c20.33,7.35,35.45,17.22,45.36,29.61c9.9,12.4,14.86,28.76,14.86,49.1
		c0,29.12-11.45,52.54-34.34,70.25C1812.48,640.3,1781.56,649.16,1742.6,649.16z"/>
	<path class="st5" d="M2164.09,643.85h-88.94l-79.89-119.05l-14.36,20.07v98.98h-73.59v-293h73.59v130.07l93.67-130.07h85.2
		l-104.49,135.97L2164.09,643.85z"/>
	<path class="st5" d="M2333.91,643.85H2176.1v-51.16h42.11V402.01h-42.11v-51.16h157.82v51.16h-42.11v190.68h42.11V643.85z"/>
	<path class="st5" d="M2633.8,643.85h-70.84l-112.95-204.25v204.25h-67.3v-293h90.32l93.47,167.85V350.84h67.3V643.85z"/>
	<path class="st5" d="M2783.75,649.16c-22.43,0-42.14-2.17-59.13-6.49c-16.99-4.33-32.76-9.71-47.32-16.14v-69.66h6.69
		c14.69,12.46,30.89,22.04,48.6,28.73s34.89,10.04,51.56,10.04c4.2,0,9.74-0.46,16.63-1.38c6.89-0.92,12.43-2.36,16.63-4.33
		c5.12-2.23,9.45-5.34,12.99-9.35c3.54-4,5.31-9.28,5.31-15.84c0-7.34-2.89-13.31-8.66-17.91c-5.77-4.59-12.66-7.94-20.66-10.04
		c-9.97-2.62-20.63-5.12-31.98-7.48c-11.35-2.36-21.94-5.25-31.78-8.66c-22.7-8-38.96-18.76-48.8-32.27
		c-9.84-13.51-14.76-30.43-14.76-50.77c0-27.42,11.61-49.62,34.83-66.61c23.22-16.99,52.21-25.48,86.98-25.48
		c17.45,0,34.79,1.77,52.05,5.31c17.25,3.54,32.7,8.33,46.34,14.36v66.9h-6.49c-10.89-9.31-24.17-17.18-39.85-23.61
		c-15.68-6.43-31.78-9.64-48.31-9.64c-6.43,0-12.2,0.46-17.32,1.38c-5.12,0.92-10.5,2.69-16.14,5.31c-4.59,2.1-8.56,5.21-11.91,9.35
		c-3.34,4.13-5.02,8.76-5.02,13.87c0,7.48,2.66,13.41,7.97,17.81c5.31,4.4,15.58,8.36,30.8,11.91c9.84,2.23,19.31,4.4,28.43,6.49
		c9.12,2.1,18.86,4.99,29.22,8.66c20.33,7.35,35.45,17.22,45.36,29.61c9.9,12.4,14.86,28.76,14.86,49.1
		c0,29.12-11.45,52.54-34.34,70.25C2853.63,640.3,2822.71,649.16,2783.75,649.16z"/>
	<path class="st1" d="M3015.95,643.85h-69.66v-77.33h69.66V643.85z"/>
</g>
<path class="st2" d="M793.33,147.33"/>
<path class="st0" d="M585.08,596.47"/>
<path class="st5" d="M867.38,711.5"/>
<path class="st0" d="M367.58,522.21"/>
<path class="st5" d="M364.14,529.92"/>
<path class="st0" d="M733.25,647.67"/>
<path class="st0" d="M665.33,621.56"/>
<path class="st4" d="M733.94,625.5"/>
<path class="st0" d="M913.33,668.89"/>
<path class="st0" d="M820,691.08"/>
<path d="M720.74,671.8c-22.41-9.32-61.8-26.48-64.55-27.63c-0.02-0.01-1.99-0.84-1.99-0.84l0,0c0,0,1.68-3.74,1.81-4.02
	c0.87-1.94,2.49-5.59,5.78-13.17l0.48-1.09c0.17,0.07,0.53,0.22,0.7,0.3c21.82,9.22,37.78,16.7,42.46,18.88
	c10.38,4.83,26.7,12.18,52.53,23.08c-2.67,5.4-5.35,10.81-8.03,16.21C737.64,678.76,727.63,674.67,720.74,671.8z"/>
<path d="M747.33,663.58"/>
<path d="M474.92,552.42c4.94-7.06,9.89-14.11,14.83-21.17c-2.78-1.5-5.56-3.01-8.33-4.51c-4.58,7.36-9.17,14.73-13.75,22.1
	C470.08,550.03,472.5,551.22,474.92,552.42z"/>
<path d="M498.23,598.32c0.09,0.03,1.82,0.65,1.82,0.65s-0.17-0.25-0.17-0.25c-1.39-2.05-2.34-3.86-2.34-3.86
	c-0.47-0.71-0.79-1.51-1.45-3.1c-0.52-1.26-0.84-2.25-1.02-2.8c-0.23-0.7-0.35-1.15-0.4-1.32c-0.22-0.82-0.35-1.45-0.44-1.88
	c-0.87-4.33-1-5.51-1-6.97v0c-0.02-0.5-0.03-1-0.05-1.5c-0.03-1.39-0.04-2.76-0.03-4.09c-2.6-0.49-4.55-0.19-5.71,0.11
	c-0.87,0.22-1.19,0.41-1.38,0.7c-0.84,1.29,1.23,3.93,2.29,5.45C493.47,586.76,495.68,597.39,498.23,598.32z"/>
<path d="M477.39,576.49"/>
<path d="M410.06,661.18c-1.75-0.17-3.24,0.93-5.94,2.91c-3.03,2.22-5.51,4.04-5.47,5.93c0.09,5.21,19.23,9.99,21.96,7.29
	c0.48-0.48,0.23-0.98-3.97-8.1C413.54,663.98,411.96,661.36,410.06,661.18z"/>
<path d="M400.56,675.67"/>
<path class="st2" d="M564,739.17"/>
<path class="st0" d="M603.83,736.67"/>
<path class="st2" d="M616.33,714.22"/>
<path class="st0" d="M561.93,754.39"/>
<path class="st2" d="M607,745.56"/>
<path class="st4" d="M550.42,724.25"/>
<path class="st4" d="M570.58,727.17"/>
<path class="st2" d="M498.92,705.62"/>
<path class="st2" d="M599.67,726.92"/>
<path class="st2" d="M599.36,726.47"/>
<path class="st0" d="M-1428,332"/>
<path d="M493.42,573.06"/>
<path d="M493.45,573.04"/>
<path class="st5" d="M576.94,593.72"/>
<path class="st0" d="M584.04,582.62"/>
<path class="st0" d="M740.89,619.56"/>
<path class="st4" d="M755.54,664.04"/>
</svg>
