<svg width="280" height="287" viewBox="0 0 280 287" fill="none" xmlns="http://www.w3.org/2000/svg">
<path d="M127.8 3.9C124.1 6.1 118.4 9.7 115.1 11.9C111.8 14.1 108.7 16 108.2 16C107.164 16.3767 106.212 16.9544 105.4 17.7C104.3 18.7 101.2 21.1 98.5 23C96.5854 24.2025 94.8082 25.6109 93.2 27.2C92.9828 27.4641 92.707 27.6738 92.3945 27.8127C92.0821 27.9516 91.7415 28.0157 91.4 28C90.6 28 90 28.4 90 28.8C90 29.2 88.8 30.3 87.3 31.2C84.7255 32.9486 82.2853 34.8874 80 37C68.6 47.5 65.4 50.6 64.6 51.8C64.1 52.7 65.5 54.7 68.9 58C71.8 60.8 74.3 63 74.7 63C75.3 63 82.7 57.2 86.5 53.7C87.6 52.7 91 50 94 47.7C97 45.4 99.7 43.2 100 42.9C100.3 42.6 102.8 40.9 105.5 39C108.2 37.1 110.7 35.3 111 35C111.8 33.9 126.4 24.3 131.4 21.5C134.6 19.7 136.8 19.1 138.3 19.6C142.8 21 174.6 43.3 184 51.6C185.9 53.3 190.2 57.1 193.5 60C199 64.7 211.6 77.4 218.1 84.6C221.9 88.8 241 113 244.5 118.1C246.2 120.5 250.5 126.8 254.2 132.3L260.9 142.1L258.7 145.8C256.9 149 251.1 157.4 248.7 160.5C246.6 163.3 238.1 175 235.8 178.5C233 182.6 220.6 198.4 218.2 200.9C217.1 202.1 217.8 203.2 222.6 208.1C225.8 211.4 229 214 229.6 214C230.2 214 235.5 207.6 241.4 199.7C247.3 191.8 252.3 185 252.7 184.5C253.7 183.4 278.3 146.2 279.4 144.3C280.3 142.7 278.7 139.6 271.4 129C268.2 124.3 262.9 116.4 259.6 111.5C256.3 106.6 253.3 102.3 253 102C252.7 101.7 250.2 98.6 247.5 95C241.9 87.5 223.7 66.8 216.9 60C205 48.3 187 32.9 175.6 24.9C172.9 23 168.9 20.2 166.7 18.7C162.8 15.9 152.7 9.6 146.5 6C144.9 5.1 141.9 3.3 140 2.2C138.629 1.22815 137.109 0.485171 135.5 0C135 0 131.5 1.8 127.8 3.9Z" fill="#C3C3C3"/>
<path d="M27 8.09997C23.4 8.49997 17.1 9.09997 13 9.49997C0.600005 10.7 1 10.1 1 30V46.9L5.3 51.3C7.6 53.7 12.5 58.8 16.1 62.6C26.3 73.3 25.4 72.9 29.8 67.9C31.8 65.6 34.5 62.6 35.8 61.4C36.6346 60.5875 37.3728 59.6815 38 58.7C38 58.4 33.5 53.7 28.1 48.2C16.4 36.5 14.3 33.1 16.2 29.4C17.0628 27.5412 18.534 26.0326 20.3705 25.1234C22.207 24.2142 24.2988 23.959 26.3 24.4C29 24.9 32.2 27.4 40.1 35.1C45.7 40.6 50.7 44.9 51.1 44.8C53.5683 42.855 55.9067 40.7505 58.1 38.5L64.2 32.6L56.2 25C35.9 5.79996 37.8 6.89997 27 8.09997Z" fill="#C3C3C3"/>
<path d="M223.8 20.8C208.9 35.4 209.3 33.8 218.8 42.5L224.2 47.4L234.5 36.8C245.1 25.8 247.9 24.1 252.7 25.7C255.8 26.7 258.4 31.1 257.6 33.8C257.3 34.7 252.3 40.4 246.5 46.5C240.7 52.6 236 57.7 236 58C236 58.3 238.8 61.8 242.1 65.8C249.2 74 249.2 74 256 65.8C258.4 62.9 262.9 57.9 266 54.7L271.5 48.9L272 34.2C272.6 16.2 272.3 12.4 270.2 11.4C267.9 10.5 248.6 8.1 242.2 8.1L236.9 8L223.8 20.8Z" fill="#C3C3C3"/>
<path d="M128.5 39.7C124.6 42.2 121.4 44.7 121.2 45.2C120.983 45.4641 120.707 45.6738 120.395 45.8127C120.082 45.9516 119.742 46.0157 119.4 46C118.6 46 118 46.4 118 46.8C118 47.2 116.7 48.4 115 49.3C113.52 50.1828 112.115 51.1862 110.8 52.3C110.1 53 107 55.4 104 57.7C101 60 95.9 64.3 92.7 67.2L86.9 72.5L123.7 108.7C143.9 128.6 170.8 155 183.5 167.4C196.2 179.8 206.9 190 207.6 190C208.6 190 213.7 184 222 173C223.9 170.5 225.7 168.3 226 168C228.7 165.4 243 143.5 243 142C243 140.5 238.8 134.2 234.5 129.3C232.9 127.4 231.8 125.9 226.5 119C215.1 104 206.8 94.7 191.9 79.9C179.458 67.5354 166.122 56.1045 152 45.7C148.4 43.1 144.8 40.3 144 39.7C140.7 37 137.5 35 136.5 35C135.9 35 132.3 37.1 128.5 39.7Z" fill="#C3C3C3"/>
<path d="M45 72.6999C43 74.7999 39.2 79.3999 36.5 82.9999C33.8 86.5999 31.3 89.6999 31 89.9999C28.2 92.5999 0 138.1 0 140C0.339572 141.452 0.842789 142.861 1.5 144.2C2.3 146 4.9 152.7 7.4 159.1C12.9 173.2 25.2 199.4 27 200.5C28.4 201.3 37.9 191.6 38 189.2C38 188.5 35.5 182.7 32.4 176.2C29.3 169.7 25.9 162 24.9 159C23.9 156 21.7 150.9 20.3 147.8C18 142.9 17.8 141.7 18.9 139.4C20 136.9 36.8 111.1 38 110C39.2551 108.397 40.4235 106.728 41.5 105C42.5765 103.272 43.7449 101.603 45 99.9999C45.3 99.6999 47.8 96.5999 50.5 92.9999C53.2 89.3999 56.4 85.2999 57.8 83.7999L60.3 81.0999L54.4 74.9999L48.5 68.8999L45 72.6999Z" fill="#C3C3C3"/>
<path d="M68 95.2C65.3 98 43.7 126.6 39.5 133C37.8 135.5 35.9 138.1 35.3 138.8C34.5261 139.694 34.0691 140.819 34 142C34 143.7 42.1 163.9 47.5 175.5C55.2 192.3 55.2 192.2 49.8 198.1C45.3 203 39.6 210 39.2 211.1C39 211.7 40.5 214.2 42.7 216.7C44.9 219.2 47 222.1 47.6 222.9C48.6 224.2 48.9 224.2 50.2 222.9C58.2 215.2 62.9 212.3 69.8 210.9C77.1 209.4 77.3 209.5 86.6 217.7C98.4 228.2 120.3 244 123 244C123.5 244 124 244.3 124 244.7C124 245.1 125 246 126.3 246.6C127.6 247.2 130.4 248.7 132.7 250L136.8 252.3L139.8 250.1C140.929 249.284 142.134 248.581 143.4 248C144.2 248 159.2 238 160 237C161.28 235.931 162.615 234.93 164 234C165.604 232.929 167.14 231.761 168.6 230.5C169.2 230 172.1 227.5 175 225C177.9 222.5 182.6 218.3 185.4 215.7L190.5 210.8L174 194.8C158.2 179.5 76.8 99.5 72.4 95L70.3 92.8L68 95.2Z" fill="#C3C3C3"/>
<path d="M247.8 216.6C246 218.6 243.3 221.6 241.7 223.3C238.5 226.8 237.8 225.6 250.5 238.8C261 249.7 263.4 253.2 262.6 256.3C261.6 260.5 258.3 263 253.8 263C249.9 263 249.1 262.4 239 252.5C233.2 246.7 227.7 242 226.9 242C226.1 242 222.8 244.7 219.5 248L213.5 254L226 266C242.2 281.6 242.7 281.8 254.9 279.6C265 277.8 269.3 275.8 273.5 270.9C275.9 267.9 276 267.4 276 253.6V239.3L271.4 234.5C268.9 231.8 264.1 226.5 260.7 222.7C253.4 214.5 252 213 251.5 213C251.2 213 249.6 214.6 247.8 216.6Z" fill="#C3C3C3"/>
<path d="M11.2 228.9L1 240V253.4C1 266.4 1.1 267 3.6 269.9C7.7 274.8 11.6 277.1 19.3 279.1C27.9 281.3 32 281.5 36.4 279.6C39.5 278.3 59 259.5 59 257.8C59 256.9 46.8 245 45.9 245C45.5 245 43 247.4 40.3 250.2C29.5 262.1 27.1 264 23.6 264C19.2 264 15 259.9 15 255.6C15 253 16.5 250.9 24.5 243C29.7 237.8 34 233.3 34 233C34 232.3 30.1 227.5 25 221.7L21.4 217.8L11.2 228.9Z" fill="#C3C3C3"/>
<path d="M195.9 225.3C186.2 234.4 176.7 242.2 169.5 247C166.8 248.9 164.4 250.7 164.2 251.2C164.064 251.428 163.874 251.62 163.648 251.759C163.422 251.899 163.165 251.981 162.9 252C161.6 252 149.6 260.1 149.2 261.2C149.064 261.428 148.874 261.62 148.648 261.759C148.422 261.899 148.165 261.981 147.9 262C146.854 262.346 145.922 262.968 145.2 263.8C144.1 264.7 142.3 266.3 141 267.4C138.3 269.5 139.2 269.9 118.8 258.2C116.7 257 113.3 255.1 111.3 253.9C106.8 251.3 96.4 244.4 92.9 241.6C91.5 240.4 88.9 238.4 87 237C85.1 235.6 83.2 234 82.6 233.5C79 230.2 72 225 71.2 225C70.1198 225.346 69.1295 225.926 68.3 226.7C67.2 227.7 64.9 229.6 63.1 230.9C61.3 232.2 60 233.9 60 234.6C60 236 66.8 242.7 73.6 248C75.7 249.7 78.2 251.7 79.1 252.4C83.3 255.9 105.4 270 106.7 270C107.832 270.457 108.879 271.099 109.8 271.9C113.7 274.6 119.4 277.8 129 282.6L137.5 286.8L144 283.3C149.434 280.239 154.708 276.901 159.8 273.3C164.8 269.8 169 267.3 169 267.7C169 268.1 169.5 267.7 170.1 266.7C170.7 265.7 171.5 265.2 172 265.5C172.5 265.8 173.1 265.3 173.4 264.4C173.7 263.5 174.4 263.1 174.9 263.4C175.4 263.7 176.1 263.3 176.4 262.4C176.7 261.5 177.4 261.1 177.9 261.5C178.4 261.9 179.2 261.4 179.7 260.6C180.08 259.861 180.722 259.291 181.5 259C184.4 258.7 214 234.5 214 232.4C214 231.3 205.2 222.3 202.8 220.9C201.9 220.4 199.6 221.8 195.9 225.3Z" fill="#C3C3C3"/>
</svg>
